<svg xmlns="http://www.w3.org/2000/svg" xmlns:xlink="http://www.w3.org/1999/xlink" width="500" zoomAndPan="magnify" viewBox="0 0 375 374.999991" height="500" preserveAspectRatio="xMidYMid meet" version="1.2"><defs><clipPath id="cce6e1dcdb"><path d="M 1.824219 26 L 374 26 L 374 348.976562 L 1.824219 348.976562 Z M 1.824219 26 "/></clipPath></defs><g id="75163d23fe"><rect x="0" width="375" y="0" height="374.999991" style="fill:#ffffff;fill-opacity:1;stroke:none;"/><rect x="0" width="375" y="0" height="374.999991" style="fill:#ffffff;fill-opacity:1;stroke:none;"/><path style=" stroke:none;fill-rule:nonzero;fill:#114f89;fill-opacity:1;" d="M 111.933594 101.414062 L 80.644531 101.414062 L 80.644531 124.488281 L 106.246094 124.488281 C 108.984375 124.488281 111.300781 126.597656 111.300781 129.335938 C 111.300781 132.074219 108.984375 134.179688 106.246094 134.179688 L 80.644531 134.179688 L 80.644531 159.890625 C 80.644531 163.050781 78.113281 165.789062 75.058594 165.789062 C 71.898438 165.789062 69.261719 163.050781 69.261719 159.890625 L 69.261719 97.625 C 69.261719 94.046875 71.898438 91.410156 75.476562 91.410156 L 111.933594 91.410156 C 114.671875 91.410156 116.988281 93.621094 116.988281 96.367188 C 116.988281 99.203125 114.671875 101.414062 111.933594 101.414062 Z M 111.933594 101.414062 "/><path style=" stroke:none;fill-rule:nonzero;fill:#114f89;fill-opacity:1;" d="M 186.214844 160.3125 C 186.214844 163.160156 183.789062 165.578125 180.632812 165.578125 C 178.101562 165.578125 176.101562 164.101562 175.152344 162 L 168.730469 146.929688 L 136.59375 146.929688 L 130.167969 162 C 129.21875 164.109375 127.21875 165.578125 124.691406 165.578125 C 121.53125 165.578125 119.105469 163.160156 119.105469 160.3125 C 119.105469 159.261719 119.421875 158.101562 119.84375 157.253906 L 147.132812 95.199219 C 148.292969 92.460938 149.980469 90.980469 152.609375 90.980469 C 155.246094 90.980469 157.035156 92.460938 158.195312 95.199219 L 185.484375 157.253906 C 185.898438 158.101562 186.214844 159.261719 186.214844 160.3125 Z M 164.824219 137.867188 L 152.601562 109.417969 L 140.480469 137.867188 Z M 164.824219 137.867188 "/><path style=" stroke:none;fill-rule:nonzero;fill:#114f89;fill-opacity:1;" d="M 256.703125 158.203125 C 257.445312 159.152344 257.972656 160.203125 257.972656 161.46875 C 257.972656 164.109375 255.863281 166.207031 253.234375 166.207031 C 251.96875 166.207031 250.707031 165.679688 249.96875 164.730469 L 245.960938 160.722656 C 240.375 163.992188 234.058594 165.890625 227.625 165.890625 C 209.1875 165.890625 190.960938 150.507812 190.960938 128.277344 C 190.960938 106.042969 209.1875 90.664062 227.625 90.664062 C 246.0625 90.664062 264.289062 106.042969 264.289062 128.277344 C 264.289062 139.128906 259.972656 148.292969 253.4375 154.828125 Z M 238.058594 152.617188 L 229.632812 143.976562 C 228.894531 143.132812 228.265625 141.976562 228.265625 140.707031 C 228.265625 138.179688 230.371094 135.96875 233 135.96875 C 234.371094 135.96875 235.53125 136.5 236.371094 137.449219 L 245.535156 146.820312 C 249.75 142.183594 252.378906 135.859375 252.378906 128.277344 C 252.378906 112.257812 240.578125 101.40625 227.617188 101.40625 C 214.765625 101.40625 202.855469 112.257812 202.855469 128.277344 C 202.855469 144.292969 214.757812 155.035156 227.617188 155.035156 C 231.3125 155.042969 234.789062 154.203125 238.058594 152.617188 Z M 238.058594 152.617188 "/><g clip-rule="nonzero" clip-path="url(#cce6e1dcdb)"><path style=" stroke:none;fill-rule:nonzero;fill:#114f89;fill-opacity:1;" d="M 327.03125 65.109375 C 321.117188 42.632812 300.632812 26.007812 276.332031 26.007812 L 54.265625 26.007812 C 25.347656 26.007812 1.824219 49.535156 1.824219 78.449219 L 1.824219 180.660156 C 1.824219 207.617188 22.265625 229.882812 48.460938 232.777344 L 48.925781 304.121094 C 48.941406 306.5 50.398438 308.632812 52.605469 309.511719 C 53.308594 309.78125 54.039062 309.914062 54.753906 309.914062 C 56.324219 309.914062 57.859375 309.285156 58.984375 308.101562 L 93.75 271.578125 C 95.617188 271.78125 97.507812 271.898438 99.421875 271.898438 L 245.371094 271.898438 L 316.769531 346.90625 C 317.898438 348.082031 319.429688 348.71875 321 348.71875 C 321.722656 348.71875 322.449219 348.578125 323.148438 348.304688 C 325.355469 347.425781 326.820312 345.296875 326.835938 342.914062 L 327.292969 271.578125 C 353.488281 268.683594 373.929688 246.414062 373.929688 219.457031 L 373.929688 117.246094 C 373.929688 90.203125 353.355469 67.878906 327.03125 65.109375 Z M 60.503906 289.589844 L 60.269531 254.277344 L 60.113281 230.207031 L 60.097656 227.222656 C 60.082031 225.90625 59.632812 224.691406 58.890625 223.71875 C 57.828125 222.328125 56.144531 221.425781 54.265625 221.425781 C 51.789062 221.425781 49.378906 221.191406 47.027344 220.773438 C 27.992188 217.347656 13.492188 200.671875 13.492188 180.660156 L 13.492188 78.449219 C 13.492188 55.96875 31.78125 37.679688 54.265625 37.679688 L 276.332031 37.679688 C 294.03125 37.679688 309.113281 49.019531 314.738281 64.8125 C 316.046875 68.484375 316.847656 72.40625 317.042969 76.480469 C 317.074219 77.136719 317.085938 77.789062 317.085938 78.449219 L 317.085938 180.660156 C 317.085938 203.144531 298.804688 221.425781 276.332031 221.425781 L 127.878906 221.425781 C 126.285156 221.425781 124.761719 222.078125 123.65625 223.238281 L 89.597656 259.023438 L 80.660156 268.414062 Z M 362.261719 219.457031 C 362.261719 241.941406 343.972656 260.230469 321.5 260.230469 C 318.285156 260.230469 315.679688 262.8125 315.664062 266.023438 L 315.257812 328.390625 L 252.097656 262.035156 C 250.996094 260.882812 249.46875 260.230469 247.875 260.230469 L 104.566406 260.230469 L 130.382812 233.09375 L 276.332031 233.09375 C 305.238281 233.09375 328.757812 209.578125 328.757812 180.660156 L 328.757812 78.449219 C 328.757812 78.007812 328.734375 77.570312 328.726562 77.136719 C 347.761719 80.558594 362.261719 97.238281 362.261719 117.246094 Z M 362.261719 219.457031 "/></g></g></svg>