<svg xmlns="http://www.w3.org/2000/svg" xmlns:xlink="http://www.w3.org/1999/xlink" width="500" zoomAndPan="magnify" viewBox="0 0 375 374.999991" height="500" preserveAspectRatio="xMidYMid meet" version="1.2"><defs><clipPath id="c501e83463"><path d="M 2.007812 4.015625 L 373 4.015625 L 373 375 L 2.007812 375 Z M 2.007812 4.015625 "/></clipPath></defs><g id="c2241acd3f"><rect x="0" width="375" y="0" height="374.999991" style="fill:#ffffff;fill-opacity:1;stroke:none;"/><rect x="0" width="375" y="0" height="374.999991" style="fill:#ffffff;fill-opacity:1;stroke:none;"/><g clip-rule="nonzero" clip-path="url(#c501e83463)"><path style=" stroke:none;fill-rule:nonzero;fill:#114f89;fill-opacity:1;" d="M 348.257812 214.238281 C 343.167969 214.238281 338.4375 215.785156 334.5 218.425781 C 332.53125 212.835938 328.574219 208.210938 323.523438 205.265625 L 323.523438 22.566406 C 323.523438 12.339844 315.203125 4.015625 304.976562 4.015625 L 20.558594 4.015625 C 10.332031 4.015625 2.007812 12.339844 2.007812 22.566406 L 2.007812 245.152344 C 2.007812 255.378906 10.332031 263.703125 20.558594 263.703125 L 175.132812 263.703125 L 175.132812 300.175781 C 175.132812 310.203125 179.039062 319.628906 186.125 326.71875 L 223.402344 363.996094 C 230.488281 371.082031 239.917969 374.988281 249.945312 374.988281 L 311.851562 374.988281 C 324.964844 374.988281 337.492188 368.726562 345.363281 358.234375 L 356.332031 343.597656 C 367.070312 329.292969 372.980469 311.546875 372.980469 293.660156 L 372.980469 238.964844 C 372.980469 225.324219 361.890625 214.230469 348.25 214.230469 Z M 20.558594 251.335938 C 17.144531 251.335938 14.375 248.566406 14.375 245.152344 L 14.375 22.566406 C 14.375 19.152344 17.144531 16.382812 20.558594 16.382812 L 304.976562 16.382812 C 308.386719 16.382812 311.160156 19.152344 311.160156 22.566406 L 311.160156 201.871094 C 306.65625 201.871094 302.433594 203.089844 298.792969 205.203125 L 298.792969 41.113281 C 298.792969 34.292969 293.246094 28.746094 286.425781 28.746094 L 39.105469 28.746094 C 32.285156 28.746094 26.738281 34.292969 26.738281 41.113281 L 26.738281 226.605469 C 26.738281 233.425781 32.285156 238.96875 39.105469 238.96875 L 175.132812 238.96875 L 175.132812 251.335938 Z M 39.105469 226.605469 L 39.105469 218.535156 L 143.167969 136.363281 C 144.664062 135.183594 145.535156 133.371094 145.515625 131.453125 C 145.496094 129.542969 144.601562 127.742188 143.078125 126.585938 L 39.105469 47.382812 L 39.105469 41.113281 L 51.238281 41.113281 L 212.230469 163.792969 L 212.230469 179.316406 L 166.140625 144.210938 C 163.898438 142.503906 160.769531 142.535156 158.566406 144.277344 L 54.273438 226.605469 Z M 39.105469 62.933594 L 129.242188 131.597656 L 39.105469 202.769531 Z M 212.230469 121.492188 L 212.230469 148.246094 L 71.640625 41.113281 L 286.425781 41.113281 L 286.425781 106.152344 L 261.695312 125.9375 L 261.695312 121.492188 C 261.695312 107.851562 250.601562 96.761719 236.960938 96.761719 C 223.324219 96.761719 212.230469 107.851562 212.230469 121.492188 Z M 261.695312 141.78125 L 286.425781 121.992188 L 286.425781 138.304688 L 261.695312 158.089844 Z M 261.695312 173.929688 L 286.425781 154.144531 L 286.425781 199.007812 C 282.785156 196.902344 278.5625 195.6875 274.058594 195.6875 C 269.558594 195.6875 265.335938 196.894531 261.695312 199.007812 Z M 175.757812 226.605469 L 74.226562 226.605469 L 162.464844 156.953125 L 212.230469 194.855469 L 212.230469 202.921875 C 210.300781 202.242188 208.21875 201.867188 206.046875 201.867188 C 191.121094 201.867188 178.632812 212.507812 175.757812 226.597656 Z M 360.621094 293.664062 C 360.621094 308.898438 355.589844 324 346.445312 336.191406 L 335.476562 350.828125 C 329.929688 358.214844 321.101562 362.628906 311.855469 362.628906 L 249.953125 362.628906 C 243.226562 362.628906 236.90625 360.007812 232.152344 355.261719 L 194.875 317.984375 C 190.121094 313.226562 187.503906 306.910156 187.503906 300.183594 L 187.503906 232.792969 C 187.503906 222.566406 195.828125 214.246094 206.054688 214.246094 C 209.464844 214.246094 212.238281 217.015625 212.238281 220.425781 L 212.238281 276.074219 C 212.238281 279.492188 215 282.257812 218.417969 282.257812 C 221.839844 282.257812 224.601562 279.492188 224.601562 276.074219 L 224.601562 121.5 C 224.601562 114.679688 230.148438 109.132812 236.96875 109.132812 C 243.789062 109.132812 249.335938 114.679688 249.335938 121.5 L 249.335938 220.425781 C 249.335938 223.847656 252.097656 226.609375 255.515625 226.609375 C 258.9375 226.609375 261.699219 223.847656 261.699219 220.425781 C 261.699219 213.609375 267.246094 208.0625 274.066406 208.0625 C 280.886719 208.0625 286.433594 213.609375 286.433594 220.425781 L 286.433594 226.609375 C 286.433594 230.03125 289.195312 232.792969 292.617188 232.792969 C 296.035156 232.792969 298.796875 230.03125 298.796875 226.609375 C 298.796875 219.789062 304.34375 214.246094 311.164062 214.246094 C 317.984375 214.246094 323.53125 219.789062 323.53125 226.609375 L 323.53125 238.976562 C 323.53125 242.394531 326.292969 245.160156 329.714844 245.160156 C 333.132812 245.160156 335.898438 242.394531 335.898438 238.976562 C 335.898438 232.15625 341.441406 226.609375 348.261719 226.609375 C 355.082031 226.609375 360.628906 232.15625 360.628906 238.976562 L 360.628906 293.671875 Z M 360.621094 293.664062 "/></g></g></svg>