<svg xmlns="http://www.w3.org/2000/svg" xmlns:xlink="http://www.w3.org/1999/xlink" width="500" zoomAndPan="magnify" viewBox="0 0 375 374.999991" height="500" preserveAspectRatio="xMidYMid meet" version="1.2"><g id="2880d89ea1"><rect x="0" width="375" y="0" height="374.999991" style="fill:#ffffff;fill-opacity:1;stroke:none;"/><rect x="0" width="375" y="0" height="374.999991" style="fill:#ffffff;fill-opacity:1;stroke:none;"/><path style=" stroke:none;fill-rule:nonzero;fill:#114f89;fill-opacity:1;" d="M 33.867188 283.066406 L 162.734375 283.066406 C 163.726562 293.453125 167.449219 303.324219 173.527344 311.78125 L 160.050781 325.25 C 159.242188 324.933594 158.382812 324.746094 157.492188 324.738281 C 155.601562 324.738281 153.820312 325.480469 152.476562 326.820312 L 126.359375 352.9375 C 125.015625 354.28125 124.277344 356.058594 124.277344 357.960938 C 124.277344 359.847656 125.015625 361.625 126.359375 362.960938 L 136.039062 372.648438 C 137.417969 374.015625 139.234375 374.707031 141.046875 374.707031 C 142.859375 374.707031 144.671875 374.015625 146.054688 372.640625 L 172.1875 346.515625 C 174.21875 344.46875 174.730469 341.480469 173.75 338.949219 L 187.226562 325.480469 C 197.265625 332.726562 209.257812 336.695312 221.890625 336.703125 L 221.941406 336.703125 C 237.875 336.703125 252.859375 330.5 264.136719 319.21875 C 273.941406 309.34375 279.882812 296.609375 281.191406 283.0625 L 362.339844 283.0625 C 364.25 283.0625 365.796875 281.511719 365.796875 279.601562 L 365.796875 105.644531 C 365.796875 103.734375 364.25 102.1875 362.339844 102.1875 L 181.003906 102.1875 C 183.851562 94.035156 185.378906 85.570312 185.378906 76.902344 C 185.378906 34.546875 150.886719 0.0820312 108.488281 0.0820312 C 73.410156 0.0820312 42.617188 24.273438 34.101562 57.964844 L 33.867188 57.964844 C 19.789062 57.964844 8.328125 69.421875 8.328125 83.5 L 8.328125 257.460938 C 8.328125 271.582031 19.789062 283.066406 33.867188 283.066406 Z M 52.484375 252.488281 L 52.484375 238.832031 L 94.707031 238.832031 C 96.617188 238.832031 98.164062 237.28125 98.164062 235.375 L 98.164062 186.28125 C 103.253906 185.742188 107.4375 186.425781 110.535156 188.496094 C 114.222656 190.921875 115.992188 194.761719 117.875 198.828125 C 120.195312 203.882812 122.839844 209.613281 129.617188 211.828125 C 137.96875 214.578125 145.242188 209.792969 151.65625 205.554688 C 157.199219 201.898438 161.992188 198.730469 166.535156 200.339844 C 170.375 201.683594 174.03125 206.308594 175.851562 212.125 C 177.378906 216.980469 177.261719 221.640625 175.558594 223.992188 C 174.28125 225.753906 172.234375 225.933594 167.101562 225.984375 C 161.773438 226.03125 154.457031 226.09375 146.460938 230.65625 C 140.273438 234.183594 137.625 238.0625 134.800781 242.171875 C 132.878906 244.980469 130.894531 247.875 127.25 251.3125 C 126.84375 251.6875 126.386719 252.09375 125.945312 252.488281 Z M 140.515625 246.078125 C 143.066406 242.34375 145.085938 239.398438 149.882812 236.667969 C 156.324219 232.996094 162.082031 232.9375 167.164062 232.898438 C 172.351562 232.847656 177.710938 232.800781 181.160156 228.042969 C 184.191406 223.859375 184.667969 217.132812 182.449219 210.050781 C 180.496094 203.832031 175.898438 196.296875 168.832031 193.820312 C 161.074219 191.0625 154.035156 195.695312 147.84375 199.789062 C 142.234375 203.488281 136.933594 206.972656 131.773438 205.257812 C 128.046875 204.039062 126.449219 200.921875 124.152344 195.9375 C 122.050781 191.386719 119.683594 186.234375 114.355469 182.726562 C 110.050781 179.859375 104.582031 178.792969 98.164062 179.351562 L 98.164062 157.257812 L 105.488281 169.988281 C 106.105469 171.0625 107.246094 171.71875 108.484375 171.71875 C 109.71875 171.71875 110.863281 171.0625 111.476562 169.988281 L 121.59375 152.496094 C 136.46875 149.957031 150.03125 143.164062 161.03125 132.820312 L 255.238281 132.820312 C 250.3125 138.492188 248.03125 144.070312 248.335938 149.742188 C 248.777344 157.15625 253.605469 161.527344 258.28125 165.742188 C 262.761719 169.796875 267.394531 173.988281 269.566406 181.46875 C 272.007812 189.949219 269.550781 196.917969 267.394531 203.066406 C 265.277344 209.089844 263.085938 215.3125 267.230469 220.816406 C 271.238281 226.175781 279.128906 228.078125 286.839844 228.078125 C 289.28125 228.078125 291.703125 227.890625 293.976562 227.558594 C 303.867188 226.128906 315.585938 221.453125 318.851562 212.636719 C 321.671875 205.035156 316.964844 197.421875 312.800781 190.707031 C 309.128906 184.773438 305.65625 179.167969 307.785156 175.09375 C 308.65625 173.453125 309.828125 172.894531 313.394531 171.359375 C 316.015625 170.230469 319.605469 168.691406 324.148438 165.867188 C 327.75 163.65625 331.140625 160.980469 334.402344 158.089844 L 334.402344 252.480469 L 276.230469 252.480469 C 273.335938 246.007812 269.324219 240.082031 264.136719 234.902344 C 252.867188 223.632812 237.878906 217.429688 221.949219 217.429688 L 221.898438 217.429688 C 205.980469 217.441406 191.03125 223.644531 179.804688 234.902344 C 174.660156 240.046875 170.625 245.972656 167.664062 252.480469 L 135.6875 252.480469 C 137.671875 250.179688 139.179688 248.027344 140.519531 246.070312 Z M 334.394531 148.574219 C 330.144531 153.046875 325.503906 156.925781 320.503906 159.996094 C 316.382812 162.554688 313.207031 163.925781 310.648438 165.023438 C 306.785156 166.691406 303.734375 168.003906 301.660156 171.878906 C 297.691406 179.472656 302.585938 187.382812 306.910156 194.359375 C 310.550781 200.257812 313.996094 205.816406 312.359375 210.25 C 310.585938 215.023438 302.621094 219.335938 292.972656 220.742188 C 283.851562 222.070312 275.535156 220.402344 272.746094 216.6875 C 270.914062 214.253906 271.890625 211.136719 273.910156 205.375 C 276.289062 198.605469 279.246094 190.183594 276.203125 179.574219 C 273.480469 170.199219 267.621094 164.894531 262.914062 160.632812 C 258.183594 156.359375 255.5 153.726562 255.238281 149.367188 C 254.976562 144.328125 258.355469 138.761719 265.09375 132.835938 L 334.390625 132.835938 L 334.390625 148.574219 Z M 167.296875 341.640625 L 165.609375 343.328125 L 155.789062 333.507812 L 157.601562 331.710938 L 167.289062 341.640625 Z M 141.164062 367.757812 C 141.089844 367.828125 140.992188 367.808594 140.929688 367.757812 L 131.246094 357.828125 L 150.878906 338.367188 L 160.71875 348.210938 Z M 169.300781 333.632812 L 165.382812 329.710938 L 177.925781 317.171875 C 178.546875 317.859375 179.140625 318.570312 179.800781 319.226562 C 180.457031 319.882812 181.167969 320.464844 181.851562 321.09375 L 169.308594 333.632812 Z M 274.566406 279.472656 C 274.0625 292.515625 268.613281 304.898438 259.234375 314.339844 C 249.269531 324.304688 236.027344 329.785156 221.933594 329.785156 L 221.890625 329.785156 C 207.820312 329.785156 194.613281 324.289062 184.679688 314.339844 C 175.3125 304.96875 169.855469 292.582031 169.34375 279.4375 C 168.96875 271.84375 170.25 264.167969 173.042969 257.246094 C 175.699219 250.738281 179.613281 244.859375 184.6875 239.792969 C 194.613281 229.847656 207.820312 224.359375 221.890625 224.351562 L 221.933594 224.351562 C 236.019531 224.351562 249.261719 229.835938 259.234375 239.800781 C 264.332031 244.894531 268.222656 250.761719 270.8125 257.261719 C 270.8125 257.261719 270.8125 257.265625 270.8125 257.273438 C 270.8125 257.28125 270.8125 257.289062 270.816406 257.292969 C 273.644531 264.167969 274.945312 271.816406 274.566406 279.4375 C 274.566406 279.4375 274.566406 279.457031 274.566406 279.472656 Z M 358.882812 276.152344 L 281.542969 276.152344 C 281.542969 275.621094 281.472656 275.101562 281.453125 274.570312 C 281.417969 273.726562 281.371094 272.894531 281.308594 272.058594 C 281.210938 270.871094 281.074219 269.6875 280.898438 268.503906 C 280.78125 267.679688 280.679688 266.867188 280.527344 266.050781 C 280.292969 264.789062 279.996094 263.558594 279.683594 262.320312 C 279.503906 261.628906 279.363281 260.925781 279.15625 260.242188 C 279.074219 259.964844 278.992188 259.679688 278.910156 259.402344 L 337.820312 259.402344 C 338.308594 259.402344 338.773438 259.300781 339.195312 259.113281 C 340.441406 258.589844 341.3125 257.363281 341.3125 255.925781 L 341.3125 129.355469 C 341.3125 127.449219 339.761719 125.898438 337.855469 125.898438 C 337.820312 125.898438 337.792969 125.917969 337.75 125.917969 L 167.609375 125.917969 C 167.972656 125.484375 168.285156 125.011719 168.644531 124.5625 C 169.667969 123.285156 170.691406 122.003906 171.625 120.664062 C 172.179688 119.875 172.667969 119.046875 173.1875 118.238281 C 173.984375 117 174.777344 115.769531 175.503906 114.488281 C 176.003906 113.609375 176.4375 112.703125 176.902344 111.804688 C 177.367188 110.898438 177.882812 110.019531 178.3125 109.09375 L 358.890625 109.09375 L 358.890625 276.140625 Z M 108.488281 7 C 147.078125 7 178.464844 38.359375 178.464844 76.902344 C 178.464844 86.351562 176.582031 95.5625 172.871094 104.289062 C 169.261719 112.757812 164.019531 120.367188 157.285156 126.902344 C 146.738281 137.191406 133.472656 143.765625 118.917969 145.933594 C 117.875 146.085938 116.960938 146.707031 116.433594 147.621094 L 108.496094 161.347656 L 100.605469 147.625 C 100.074219 146.699219 99.140625 146.070312 98.074219 145.925781 C 97.675781 145.871094 97.285156 145.808594 96.851562 145.722656 C 96.421875 145.640625 95.953125 145.542969 95.390625 145.433594 C 95.378906 145.433594 95.371094 145.433594 95.359375 145.433594 C 62.453125 139.230469 38.578125 110.414062 38.578125 76.910156 C 38.578125 71.996094 39.09375 67.160156 40.160156 62.140625 C 46.964844 30.191406 75.703125 7 108.496094 7 Z M 15.238281 240.019531 L 15.238281 83.5 C 15.238281 73.652344 22.914062 65.570312 32.601562 64.914062 C 32.464844 65.804688 32.394531 66.691406 32.285156 67.582031 C 32.199219 68.261719 32.105469 68.953125 32.042969 69.628906 C 31.808594 72.050781 31.65625 74.46875 31.65625 76.902344 C 31.65625 79.179688 31.757812 81.433594 31.953125 83.660156 C 32.015625 84.359375 32.140625 85.035156 32.222656 85.726562 C 32.394531 87.25 32.566406 88.769531 32.832031 90.265625 C 32.976562 91.074219 33.183594 91.863281 33.355469 92.664062 C 33.640625 94.019531 33.910156 95.382812 34.269531 96.714844 C 34.476562 97.496094 34.753906 98.257812 34.988281 99.03125 C 35.390625 100.355469 35.777344 101.679688 36.246094 102.972656 C 36.507812 103.699219 36.828125 104.390625 37.109375 105.113281 C 37.628906 106.425781 38.148438 107.738281 38.734375 109.019531 C 39.03125 109.660156 39.371094 110.269531 39.691406 110.90625 C 40.347656 112.226562 41.003906 113.546875 41.738281 114.828125 C 42.042969 115.367188 42.386719 115.878906 42.710938 116.410156 C 43.515625 117.746094 44.332031 119.074219 45.214844 120.351562 C 45.519531 120.796875 45.851562 121.21875 46.167969 121.652344 C 47.132812 122.988281 48.105469 124.300781 49.148438 125.566406 C 49.441406 125.917969 49.75 126.257812 50.050781 126.605469 C 51.167969 127.917969 52.308594 129.195312 53.511719 130.433594 C 53.785156 130.710938 54.074219 130.972656 54.351562 131.25 C 55.621094 132.515625 56.921875 133.746094 58.285156 134.917969 C 58.542969 135.136719 58.8125 135.34375 59.066406 135.566406 C 60.476562 136.753906 61.929688 137.902344 63.429688 138.988281 C 63.679688 139.167969 63.941406 139.339844 64.199219 139.523438 C 65.726562 140.601562 67.28125 141.628906 68.894531 142.597656 C 69.183594 142.773438 69.472656 142.929688 69.765625 143.105469 C 71.347656 144.03125 72.964844 144.902344 74.625 145.71875 C 75 145.90625 75.386719 146.078125 75.765625 146.25 C 77.34375 146.988281 78.941406 147.679688 80.574219 148.316406 C 81.105469 148.523438 81.652344 148.71875 82.191406 148.914062 C 83.671875 149.445312 85.15625 149.949219 86.679688 150.390625 C 87.460938 150.628906 88.253906 150.835938 89.050781 151.042969 C 89.789062 151.234375 90.503906 151.472656 91.257812 151.644531 L 91.257812 231.921875 L 33.867188 231.921875 C 27 231.921875 20.597656 234.585938 15.902344 239.355469 C 15.679688 239.570312 15.460938 239.792969 15.238281 240.027344 Z M 20.769531 244.265625 C 24.214844 240.765625 28.859375 238.839844 33.867188 238.839844 L 45.566406 238.839844 L 45.566406 255.953125 C 45.566406 257.863281 47.117188 259.410156 49.027344 259.410156 L 164.988281 259.410156 C 164.898438 259.707031 164.808594 260.003906 164.722656 260.308594 C 164.542969 260.925781 164.421875 261.554688 164.261719 262.175781 C 163.929688 263.496094 163.609375 264.824219 163.367188 266.175781 C 163.238281 266.914062 163.140625 267.652344 163.03125 268.402344 C 162.851562 269.660156 162.703125 270.917969 162.601562 272.191406 C 162.539062 272.972656 162.496094 273.746094 162.464844 274.527344 C 162.441406 275.074219 162.375 275.621094 162.367188 276.167969 L 33.867188 276.167969 C 23.597656 276.167969 15.246094 267.777344 15.246094 257.472656 C 15.246094 252.488281 17.238281 247.703125 20.777344 244.28125 Z M 20.769531 244.265625 "/><path style=" stroke:none;fill-rule:nonzero;fill:#114f89;fill-opacity:1;" d="M 255.875 243.152344 C 255.382812 242.65625 254.84375 242.121094 254.386719 241.730469 C 250.453125 238.089844 245.964844 235.171875 241.046875 233.058594 C 229.320312 227.960938 215.75 227.789062 203.84375 232.628906 C 198.976562 234.613281 194.488281 237.363281 190.496094 240.835938 C 189.660156 241.570312 188.832031 242.335938 188.027344 243.140625 C 169.324219 261.84375 169.324219 292.277344 188.027344 310.992188 C 197.386719 320.328125 209.660156 324.988281 221.941406 324.988281 C 234.222656 324.988281 246.503906 320.320312 255.847656 310.992188 C 259.027344 307.808594 261.628906 304.269531 263.722656 300.527344 C 263.722656 300.527344 263.730469 300.527344 263.738281 300.523438 C 263.742188 300.507812 263.742188 300.492188 263.757812 300.480469 C 273.972656 282.21875 271.363281 258.664062 255.875 243.167969 Z M 259.613281 293.191406 L 240.375 279.078125 L 249.054688 272.453125 L 262.464844 282.320312 C 261.988281 286.035156 261.101562 289.691406 259.609375 293.191406 Z M 192.925781 248.027344 C 193.621094 247.328125 194.34375 246.667969 195.054688 246.042969 C 198.464844 243.089844 202.300781 240.726562 206.449219 239.03125 C 211.394531 237.03125 216.679688 236.03125 221.941406 236.03125 C 227.535156 236.03125 233.121094 237.15625 238.296875 239.40625 C 238.296875 239.40625 238.300781 239.40625 238.308594 239.40625 C 242.5 241.203125 246.332031 243.6875 249.769531 246.867188 C 250.167969 247.21875 250.570312 247.613281 250.964844 248.015625 C 258.164062 255.214844 261.9375 264.445312 262.671875 273.878906 L 251.082031 265.34375 C 249.84375 264.4375 248.164062 264.445312 246.925781 265.378906 L 234.5625 274.8125 L 220.210938 264.285156 C 218.980469 263.378906 217.300781 263.402344 216.070312 264.320312 L 183.007812 289.464844 C 178.527344 275.308594 181.707031 259.222656 192.917969 248.019531 Z M 250.964844 306.09375 C 234.960938 322.078125 208.925781 322.0625 192.917969 306.09375 C 189.910156 303.085938 187.65625 299.652344 185.773438 296.0625 L 218.199219 271.394531 L 256.359375 299.378906 C 254.824219 301.753906 253.039062 304.015625 250.957031 306.089844 Z M 250.964844 306.09375 "/><path style=" stroke:none;fill-rule:nonzero;fill:#114f89;fill-opacity:1;" d="M 79.507812 123.4375 C 79.570312 123.464844 79.613281 123.511719 79.675781 123.539062 C 88.054688 128.789062 97.921875 131.875 108.523438 131.875 C 119.125 131.875 128.992188 128.789062 137.375 123.539062 C 137.417969 123.519531 137.449219 123.492188 137.492188 123.472656 C 152.859375 113.804688 163.121094 96.730469 163.121094 77.269531 C 163.121094 47.160156 138.632812 22.667969 108.523438 22.667969 C 78.414062 22.667969 53.921875 47.160156 53.921875 77.269531 C 53.921875 96.710938 64.164062 113.761719 79.5 123.4375 Z M 84.460938 118.367188 C 84.5 105.113281 95.261719 94.335938 108.488281 94.335938 C 114.898438 94.335938 120.964844 96.839844 125.542969 101.347656 C 130.066406 105.941406 132.5625 111.976562 132.582031 118.367188 C 125.507812 122.523438 117.304688 124.953125 108.523438 124.953125 C 99.742188 124.953125 91.535156 122.523438 84.464844 118.367188 Z M 108.523438 87.421875 C 99.671875 87.421875 92.472656 80.214844 92.472656 71.371094 C 92.472656 62.527344 99.671875 55.320312 108.523438 55.320312 C 117.375 55.320312 124.574219 62.527344 124.574219 71.371094 C 124.574219 80.214844 117.375 87.421875 108.523438 87.421875 Z M 108.523438 29.589844 C 134.816406 29.589844 156.203125 50.980469 156.203125 77.277344 C 156.203125 91.957031 149.523438 105.105469 139.054688 113.859375 C 138.085938 107.351562 135.1875 101.289062 130.433594 96.46875 C 127.78125 93.851562 124.710938 91.855469 121.433594 90.347656 C 127.5 86.210938 131.488281 79.253906 131.488281 71.371094 C 131.488281 58.703125 121.1875 48.40625 108.523438 48.40625 C 95.863281 48.40625 85.558594 58.710938 85.558594 71.371094 C 85.558594 79.242188 89.550781 86.199219 95.601562 90.332031 C 86.304688 94.636719 79.570312 103.382812 78 113.867188 C 67.523438 105.113281 60.835938 91.964844 60.835938 77.269531 C 60.835938 50.980469 82.234375 29.582031 108.523438 29.582031 Z M 108.523438 29.589844 "/></g></svg>