<?xml version="1.0" standalone="no"?>
<!DOCTYPE svg PUBLIC "-//W3C//DTD SVG 20010904//EN"
 "http://www.w3.org/TR/2001/REC-SVG-20010904/DTD/svg10.dtd">
<svg version="1.0" xmlns="http://www.w3.org/2000/svg"
 width="1024.000000pt" height="683.000000pt" viewBox="0 0 1024.000000 683.000000"
 preserveAspectRatio="xMidYMid meet">

<g transform="translate(0.000000,683.000000) scale(0.100000,-0.100000)"
fill="#000000" stroke="none">
<path d="M0 5461 l0 -1369 32 -21 c28 -17 34 -18 41 -6 9 17 53 20 62 5 9 -15
25 -12 25 6 0 8 4 13 8 10 11 -7 8 22 -6 57 -6 15 -17 27 -23 27 -8 0 -8 4 1
15 7 8 19 15 26 15 8 0 14 4 14 9 0 13 59 19 64 7 3 -7 5 -6 5 2 1 6 9 12 20
12 30 0 45 25 30 52 -16 28 -17 49 -5 66 12 17 29 15 22 -3 -3 -8 -1 -15 4
-15 6 0 10 6 10 13 0 6 12 18 27 24 21 10 31 10 52 -2 14 -8 34 -17 44 -21 9
-3 17 -10 17 -15 0 -5 6 -6 13 -3 23 9 87 10 87 2 0 -4 6 -8 14 -8 8 0 16 -5
18 -11 2 -6 33 -13 70 -16 58 -5 70 -3 98 17 28 20 33 21 48 7 9 -8 23 -12 30
-10 6 3 12 -1 12 -7 0 -10 4 -10 15 0 12 10 15 9 15 -4 0 -12 5 -16 19 -11 11
3 26 -1 37 -12 10 -10 20 -18 23 -18 3 0 5 -6 5 -12 -2 -16 -6 -15 86 -20 65
-4 113 -5 205 -3 11 1 23 6 27 13 6 9 10 8 18 -3 9 -13 11 -13 20 0 5 8 10 20
10 25 0 6 -4 5 -8 -1 -8 -14 -71 -9 -86 6 -7 7 -6 10 3 10 7 0 9 4 6 10 -3 5
-18 8 -34 6 -15 -2 -36 3 -46 10 -16 12 -17 14 -2 14 9 0 21 8 26 18 10 17 12
15 15 -10 2 -15 19 -15 100 2 47 9 64 9 83 -1 27 -14 36 -9 27 15 -5 14 -16
17 -54 14 -40 -3 -46 -1 -42 14 3 12 9 15 19 10 17 -10 73 -3 73 9 0 13 -31
27 -51 22 -24 -7 -25 13 -1 26 16 9 16 10 -2 17 -12 5 -21 3 -24 -4 -6 -19
-34 -14 -30 6 2 10 12 17 26 16 15 0 22 5 22 17 0 9 5 19 10 21 6 2 1 11 -10
20 -11 10 -20 14 -20 9 0 -17 -61 -10 -73 10 -6 10 -17 19 -23 19 -7 0 -19 11
-28 25 l-16 25 39 0 c22 0 41 5 44 13 4 10 7 10 18 0 7 -7 21 -13 31 -13 10 0
18 -4 18 -10 0 -5 19 -3 45 4 25 8 45 10 45 5 0 -5 -8 -9 -17 -9 -10 0 -25 -5
-33 -10 -13 -8 -12 -11 5 -24 12 -9 24 -11 30 -5 5 5 17 9 27 9 15 0 17 3 8
19 -13 25 -13 31 0 31 6 0 10 -6 10 -13 0 -18 60 -9 67 10 7 19 61 46 79 39
22 -8 25 9 4 26 -10 9 -20 14 -23 12 -2 -3 -16 1 -31 7 -19 9 -23 15 -14 20
10 6 8 12 -6 22 -19 14 -19 15 0 34 25 26 88 49 81 29 -4 -9 4 -13 25 -13 16
0 33 -4 36 -9 4 -6 27 -16 52 -23 25 -7 53 -17 64 -23 12 -6 21 -6 25 0 3 5
15 8 26 6 11 -2 42 -6 70 -9 27 -4 53 -9 59 -12 16 -10 76 -12 70 -2 -3 5 0 9
5 9 6 0 11 -4 11 -9 0 -11 94 -36 170 -45 14 -2 25 -5 25 -6 0 -1 24 -4 53 -6
33 -2 50 1 47 7 -4 5 -1 8 6 7 28 -6 20 30 -10 43 -31 14 -33 32 -3 23 16 -5
16 -5 0 6 -10 6 -22 18 -28 28 -10 15 -11 14 -7 -5 7 -31 -1 -29 -15 5 l-11
27 -7 -30 c-5 -24 -8 -26 -14 -13 -4 9 -3 25 3 37 15 27 15 27 -25 28 -19 1
-43 8 -52 16 -9 8 -23 12 -30 10 -6 -3 -12 1 -12 7 0 8 -9 10 -22 7 -13 -3
-32 1 -42 9 -16 11 -22 11 -28 1 -5 -8 -8 -7 -8 5 0 12 -5 15 -16 11 -9 -3
-19 -1 -23 6 -4 6 -22 13 -39 14 -18 1 -32 5 -32 9 0 3 -13 9 -30 13 -26 6
-33 15 -29 41 0 4 -5 11 -13 15 -11 7 -11 9 0 9 16 0 42 24 42 39 0 6 3 11 8
11 12 0 81 -26 88 -33 3 -3 15 -2 25 4 10 5 28 14 39 19 12 6 26 7 32 4 8 -5
5 -10 -8 -16 -16 -7 -15 -8 5 -4 14 3 32 0 40 -7 12 -10 14 -9 8 5 -3 10 -2
20 3 23 6 4 10 3 10 -2 0 -4 11 -13 25 -19 23 -11 24 -10 14 7 -5 10 -14 19
-19 19 -6 0 -10 5 -10 11 0 6 15 9 37 7 26 -2 38 2 40 12 4 13 3 13 -6 0 -7
-9 -11 -10 -11 -3 0 20 17 24 34 8 8 -8 17 -11 20 -6 6 9 26 8 99 -5 17 -3 45
-5 60 -5 16 1 26 -2 23 -7 -5 -8 51 -26 118 -37 30 -5 38 -3 34 7 -4 10 10 13
60 15 38 1 68 7 72 14 5 6 17 9 29 6 12 -3 21 -1 21 4 0 5 -4 9 -9 9 -5 0 -12
7 -15 16 -4 11 -2 14 6 11 51 -21 52 -21 45 -4 -6 15 -3 16 13 7 11 -6 25 -8
30 -5 6 3 7 -1 4 -10 -10 -26 20 -7 33 21 12 25 11 26 -14 19 -23 -5 -25 -4
-13 10 12 14 10 15 -16 5 -16 -6 -25 -8 -21 -4 4 5 -3 14 -15 21 -19 10 -20
12 -5 13 11 0 15 5 11 11 -3 6 -15 9 -25 6 -11 -3 -19 -1 -19 4 0 4 -6 6 -14
3 -7 -3 -16 1 -19 9 -4 10 3 12 25 9 18 -3 33 1 38 8 11 17 81 41 102 34 9 -2
20 1 24 7 5 9 10 7 15 -7 6 -14 8 -11 8 16 1 24 4 31 10 21 5 -8 18 -12 30 -8
12 3 21 2 21 -3 0 -4 11 -5 25 -2 14 2 25 0 25 -5 0 -5 8 -9 18 -9 9 -1 24 -4
33 -8 11 -5 24 0 35 12 16 16 33 19 109 18 70 -1 93 2 105 15 16 16 76 19 100
4 8 -5 15 -4 17 2 5 13 72 5 92 -11 12 -9 13 -8 7 3 -5 8 -5 12 0 9 78 -36 81
-46 54 -193 -25 -138 -25 -133 5 -141 15 -4 33 -22 47 -48 28 -50 91 -85 172
-93 31 -3 58 -9 60 -12 8 -13 -14 -126 -30 -156 l-17 -32 -126 4 c-75 3 -144
11 -171 19 -25 9 -91 19 -147 24 -68 6 -114 15 -141 29 -68 35 -114 41 -153
20 -19 -10 -43 -22 -55 -28 -26 -12 -116 -106 -126 -130 -3 -10 -31 -42 -62
-72 -41 -39 -58 -63 -61 -87 -2 -17 -18 -57 -36 -88 -24 -43 -29 -58 -19 -64
7 -5 18 -7 24 -5 22 7 743 36 1244 50 101 2 187 7 191 9 9 6 238 8 288 3 18
-2 35 -6 39 -10 3 -3 12 0 19 7 16 15 215 25 678 32 289 4 307 3 307 -13 1
-17 1 -17 11 0 12 21 48 23 55 2 4 -8 11 -12 16 -9 6 4 9 1 6 -7 -5 -15 -8
-15 -303 -25 -88 -3 -218 -9 -290 -14 -120 -8 -113 -8 88 -6 120 2 214 0 210
-5 -7 -7 -313 -23 -425 -22 -27 0 -48 -4 -48 -8 0 -4 -19 -5 -43 -3 -36 3 -38
2 -11 -5 68 -18 864 10 864 30 0 18 18 8 23 -12 5 -17 10 -20 29 -14 70 22
435 41 1328 70 47 1 126 7 175 14 50 6 231 12 403 14 l312 3 0 -32 c0 -17 -6
-34 -13 -37 -9 -3 -12 -16 -9 -35 3 -25 0 -31 -25 -40 -15 -6 -22 -11 -15 -11
18 -1 14 -28 -5 -33 -16 -4 -17 -16 -11 -134 3 -71 6 -177 7 -236 1 -115 6
-138 27 -138 10 0 14 15 14 60 0 48 4 62 17 67 21 8 63 52 63 65 0 5 4 7 8 4
5 -3 9 0 10 7 2 28 9 48 18 57 12 12 44 3 44 -12 0 -6 7 -4 16 3 14 11 19 10
33 -7 17 -21 71 -28 71 -9 0 16 56 7 71 -11 6 -8 19 -14 28 -14 20 -1 46 -20
54 -40 3 -9 6 -10 6 -2 2 20 42 14 48 -8 6 -24 19 -26 27 -4 6 15 9 14 24 -4
12 -14 26 -19 39 -16 11 3 24 1 27 -5 11 -17 29 -13 22 5 -3 8 -2 12 4 9 6 -3
10 -13 10 -21 0 -11 6 -13 20 -9 12 4 20 2 20 -5 0 -6 6 -10 12 -7 7 2 21 0
30 -5 11 -5 25 -4 38 4 17 11 22 11 29 -1 5 -8 16 -11 30 -6 15 4 19 3 16 -7
-4 -9 4 -14 25 -14 16 -1 30 2 30 6 0 4 24 2 53 -5 49 -11 556 -13 757 -2 126
7 167 -7 137 -47 -10 -13 -57 -17 -277 -26 -146 -5 -317 -12 -380 -15 -63 -3
-279 -12 -480 -21 -201 -8 -441 -19 -535 -24 l-170 -9 220 5 c121 2 265 7 320
9 130 7 698 24 980 29 167 3 192 2 105 -4 -63 -4 -205 -11 -315 -14 -110 -4
-283 -11 -385 -16 -102 -5 -329 -14 -505 -20 -367 -13 -445 -18 -445 -31 0
-12 24 -12 420 6 403 17 915 33 1175 37 l190 3 3 -33 c3 -26 -1 -34 -19 -40
-15 -6 -18 -11 -11 -16 19 -11 14 -44 -7 -56 -11 -5 -46 -11 -78 -12 l-58 -1
54 -6 c54 -6 78 -25 44 -35 -10 -2 -171 -10 -358 -17 -187 -6 -344 -15 -348
-19 -5 -4 22 -6 60 -4 212 12 614 24 622 20 5 -3 12 -48 15 -98 12 -164 16
-189 31 -174 7 7 15 26 17 42 2 21 9 30 25 32 36 5 44 26 54 139 13 142 24
166 64 142 6 -4 29 -5 52 -4 23 1 40 -1 38 -5 -2 -4 18 -6 44 -6 27 1 47 -2
45 -6 -2 -4 0 -9 6 -13 5 -3 10 -2 10 3 0 4 16 14 35 22 19 7 44 24 55 37 13
16 27 22 39 18 10 -3 34 2 54 10 l37 15 0 1655 0 1655 -5120 0 -5120 0 0
-1369z m4582 943 c-7 -12 -11 -13 -17 -4 -4 7 -2 16 6 21 18 11 23 4 11 -17z
m-32 12 c0 -16 -14 -36 -26 -36 -14 0 -19 22 -7 33 7 8 33 10 33 3z m60 -46
c0 -5 -6 -7 -14 -4 -8 3 -21 -5 -30 -17 -13 -19 -18 -21 -28 -10 -11 10 -9 15
6 27 22 16 66 19 66 4z m-190 -37 c0 -6 -8 -9 -20 -6 -23 6 -25 14 -8 31 13
13 28 0 28 -25z m218 14 c15 -17 9 -52 -9 -53 -50 -4 -50 -4 -40 -23 8 -15 6
-20 -14 -29 -16 -8 -23 -17 -19 -27 5 -12 0 -15 -24 -13 -23 2 -32 8 -35 25
-3 15 1 23 9 23 16 0 19 26 4 35 -5 3 -10 13 -10 21 0 11 4 13 17 5 20 -11 47
0 76 30 21 22 31 24 45 6z m-185 -176 c-16 -48 -33 -67 -33 -38 1 19 40 101
46 94 3 -3 -3 -28 -13 -56z m-250 -197 c12 -12 -17 -54 -50 -74 l-34 -20 7 22
c19 64 53 96 77 72z m5 -90 c-9 -10 -24 -14 -33 -10 -23 9 -9 26 23 26 24 0
25 -1 10 -16z m1133 -222 c30 5 40 -6 14 -16 -8 -3 -15 -12 -15 -20 0 -16 -21
-26 -55 -26 -17 0 -24 7 -28 28 -3 15 -1 29 4 30 5 2 9 12 9 23 0 18 1 18 21
-2 15 -15 30 -20 50 -17z m-105 -23 c3 -6 1 -16 -6 -22 -10 -9 -14 -9 -17 1
-3 6 -12 12 -21 13 -14 0 -13 2 3 9 27 12 33 12 41 -1z m-276 -98 c0 -6 -4
-13 -10 -16 -5 -3 -10 1 -10 9 0 9 5 16 10 16 6 0 10 -4 10 -9z m1426 -110
c-9 -13 -46 -15 -46 -1 0 14 34 30 44 20 4 -4 5 -13 2 -19z m-2619 -68 c-3
-10 -5 -4 -5 12 0 17 2 24 5 18 2 -7 2 -21 0 -30z m-10 -110 c-2 -16 -4 -5 -4
22 0 28 2 40 4 28 2 -13 2 -35 0 -50z m698 -29 c8 -3 15 -17 15 -31 0 -22 -2
-24 -15 -13 -33 27 -54 67 -48 89 6 22 7 22 19 -8 7 -17 20 -34 29 -37z m375
5 c0 -7 9 -9 24 -5 13 3 37 -1 55 -10 18 -9 44 -17 58 -19 15 -1 34 -11 42
-22 9 -10 37 -25 64 -32 26 -8 47 -18 47 -23 0 -6 7 -8 15 -5 8 4 17 2 20 -3
3 -5 13 -6 21 -3 10 4 17 -2 21 -17 5 -18 11 -21 33 -17 31 7 51 -8 43 -32 -3
-9 -1 -12 4 -6 11 13 86 13 104 0 8 -6 30 -19 49 -29 19 -11 39 -25 43 -33 4
-7 17 -13 27 -13 13 0 20 -7 20 -20 0 -13 -7 -20 -18 -20 -10 0 -22 -4 -28 -9
-8 -8 -204 27 -246 44 -28 11 -88 -18 -278 -135 -163 -101 -227 -136 -261
-144 -23 -5 -27 -1 -39 34 -15 44 -9 144 10 180 l12 22 16 -24 c17 -24 32 -38
44 -38 4 0 5 42 1 93 -6 100 18 275 40 289 18 12 57 9 57 -3z m-590 -14 c0 -8
-4 -15 -10 -15 -5 0 -10 7 -10 15 0 8 5 15 10 15 6 0 10 -7 10 -15z m-480 -12
c0 -10 -5 -25 -10 -33 -7 -11 -10 -7 -10 18 0 17 5 32 10 32 6 0 10 -8 10 -17z
m-1013 -125 c-3 -8 -6 -5 -6 6 -1 11 2 17 5 13 3 -3 4 -12 1 -19z m3803 2 c0
-5 -7 -7 -15 -4 -8 4 -15 8 -15 10 0 2 7 4 15 4 8 0 15 -4 15 -10z m-1993 -46
c3 -9 1 -20 -6 -27 -8 -8 -11 -5 -11 11 0 12 -4 22 -9 22 -5 0 -11 7 -15 15
-5 13 -2 14 15 5 11 -6 23 -18 26 -26z m-497 -59 c0 -13 -7 -50 -15 -82 -8
-31 -15 -71 -15 -88 0 -16 -8 -39 -16 -50 -15 -19 -16 -16 -10 40 6 55 24 163
32 193 6 22 24 13 24 -13z m336 -81 c27 -9 50 -18 52 -19 3 -2 -16 -47 -53
-125 -22 -47 -38 -75 -54 -94 -9 -11 -10 -16 -2 -16 6 0 11 -4 11 -10 0 -5
-12 -10 -27 -10 -21 0 -24 3 -15 12 18 18 15 30 -6 24 -10 -3 -35 3 -57 14
-22 11 -51 20 -65 20 -48 0 -50 10 -22 93 17 51 31 77 41 77 9 0 41 11 71 24
69 30 66 29 126 10z m1624 6 c0 -5 -5 -10 -11 -10 -5 0 -7 5 -4 10 3 6 8 10
11 10 2 0 4 -4 4 -10z m-970 -74 c0 -2 -18 -15 -39 -29 -22 -15 -50 -36 -63
-47 -95 -86 -156 -123 -142 -86 6 15 117 106 131 106 4 1 26 14 48 30 35 25
65 38 65 26z m-3545 -46 c3 -5 1 -10 -4 -10 -6 0 -11 5 -11 10 0 6 2 10 4 10
3 0 8 -4 11 -10z m5035 -81 c-7 -11 -14 -18 -17 -15 -3 3 0 12 7 21 18 21 23
19 10 -6z m-2526 -14 c6 -9 25 -15 41 -15 115 0 126 -2 112 -17 -11 -11 -140
-4 -147 8 -4 5 -12 9 -17 7 -6 -2 -11 0 -12 5 -4 31 5 36 23 12z m-2767 -31
c-3 -3 -12 -4 -19 -1 -8 3 -5 6 6 6 11 1 17 -2 13 -5z m3739 -29 c-19 -15 -46
-20 -46 -10 0 6 40 24 55 24 6 0 1 -6 -9 -14z m1645 -18 c-13 -13 -26 -3 -16
12 3 6 11 8 17 5 6 -4 6 -10 -1 -17z m-5441 3 c0 -5 -4 -10 -10 -10 -5 0 -10
5 -10 10 0 6 5 10 10 10 6 0 10 -4 10 -10z m3790 -60 c0 -5 -2 -10 -4 -10 -3
0 -8 5 -11 10 -3 6 -1 10 4 10 6 0 11 -4 11 -10z m821 -27 c13 -16 12 -17 -3
-4 -10 7 -18 15 -18 17 0 8 8 3 21 -13z m39 -4 c0 -5 -4 -9 -10 -9 -5 0 -10 7
-10 16 0 8 5 12 10 9 6 -3 10 -10 10 -16z m518 -1 c-2 -18 -9 -22 -27 -20 -14
1 -27 -2 -30 -6 -12 -18 -51 -24 -57 -9 -10 28 27 57 74 57 39 0 43 -2 40 -22z
m-1358 -6 c0 -14 -39 -32 -56 -25 -15 6 -15 7 2 20 19 14 54 18 54 5z m-3680
-17 c0 -8 -4 -15 -10 -15 -5 0 -10 7 -10 15 0 8 5 15 10 15 6 0 10 -7 10 -15z
m6734 -30 c27 -27 9 -42 -62 -49 -133 -12 -186 -8 -206 16 l-19 22 -8 -22 c-6
-15 -17 -22 -34 -22 -20 0 -25 5 -25 25 0 14 1 26 3 27 1 0 67 4 147 8 80 3
155 7 167 8 12 1 28 -5 37 -13z m-454 -20 c7 -8 19 -15 26 -15 8 0 14 -4 14
-9 0 -12 -51 -21 -116 -21 -51 0 -54 2 -54 24 0 23 4 25 53 29 28 2 55 4 58 5
4 1 12 -5 19 -13z m-3592 -13 c2 -7 -7 -12 -22 -12 -27 0 -35 15 -13 23 17 7
30 3 35 -11z m1602 -4 c0 -16 -3 -19 -11 -11 -6 6 -8 16 -5 22 11 17 16 13 16
-11z m1786 7 c-3 -8 -4 -15 -2 -15 3 0 11 -3 19 -6 10 -3 15 1 14 12 -1 10 6
20 16 22 13 3 16 -2 15 -20 -2 -13 -10 -26 -18 -30 -8 -4 -68 -7 -132 -7 -97
-1 -118 2 -118 14 0 8 10 19 21 26 18 9 24 8 31 -5 11 -20 28 -21 28 -1 0 8 5
15 10 15 6 0 9 -3 9 -7 -1 -5 -1 -14 0 -22 1 -18 31 5 31 25 0 10 13 14 41 14
32 0 40 -3 35 -15z m-256 -11 c0 -9 10 -19 23 -22 20 -6 20 -7 -8 -13 -59 -13
-75 -11 -72 12 6 34 57 55 57 23z m-4036 -9 c4 -10 -1 -15 -14 -15 -11 0 -20
7 -20 15 0 8 6 15 14 15 8 0 16 -7 20 -15z m2066 0 c0 -8 -7 -15 -15 -15 -8 0
-15 7 -15 15 0 8 7 15 15 15 8 0 15 -7 15 -15z m1831 -6 c11 -11 27 -18 35
-15 8 3 14 1 14 -3 0 -16 -29 -20 -157 -21 -218 -2 -213 -2 -213 19 0 13 10
20 31 25 48 9 59 7 59 -10 0 -12 4 -14 13 -7 6 6 19 11 27 11 8 0 26 4 39 8
19 6 22 4 16 -7 -7 -11 -6 -12 6 -3 35 29 103 30 130 3z m-767 -35 c3 -9 -4
-16 -21 -20 -17 -5 -28 -3 -31 4 -2 7 -8 12 -14 12 -6 0 -8 -7 -4 -15 3 -8 1
-15 -4 -15 -6 0 -10 4 -10 9 0 5 -3 16 -6 24 -4 11 2 17 18 19 35 5 66 -2 72
-18z m36 17 c0 -6 -4 -13 -10 -16 -5 -3 -10 1 -10 9 0 9 5 16 10 16 6 0 10 -4
10 -9z m30 -18 c0 -20 -3 -24 -11 -16 -7 7 -9 19 -6 27 10 24 17 19 17 -11z
m140 8 c0 -19 -17 -38 -25 -29 -7 7 7 48 16 48 5 0 9 -9 9 -19z m1560 9 c0 -6
-35 -11 -82 -11 -100 -2 -203 -5 -442 -13 -106 -3 -173 -2 -161 3 11 5 97 10
190 11 94 1 206 6 250 10 124 11 245 11 245 0z m-4486 -15 c-5 -11 -11 -12
-25 -4 -25 13 -24 14 6 17 18 1 23 -2 19 -13z m3089 -1 c-3 -8 -12 -13 -20
-10 -8 3 -24 6 -36 7 -20 1 -20 2 3 9 42 14 60 12 53 -6z m-763 -18 c0 -19 -6
-24 -37 -30 -62 -10 -73 -8 -73 14 0 19 4 21 62 25 9 0 20 4 24 8 14 14 24 7
24 -17z m110 -1 c0 -23 -4 -25 -45 -25 -37 0 -45 3 -45 18 0 25 2 27 49 30 38
2 41 1 41 -23z m73 11 c24 -19 22 -23 -19 -28 -39 -5 -59 16 -33 33 19 12 31
11 52 -5z m105 -8 c3 -15 -4 -18 -32 -18 -30 0 -36 4 -36 21 0 17 5 20 32 17
22 -2 34 -9 36 -20z m-4963 2 c3 -5 -1 -10 -9 -10 -9 0 -16 5 -16 10 0 6 4 10
9 10 6 0 13 -4 16 -10z m4535 -7 c0 -10 -4 -14 -8 -8 -4 6 -11 13 -16 18 -5 4
-2 7 7 7 10 0 17 -8 17 -17z m1548 10 c-16 -2 -40 -2 -55 0 -16 2 -3 4 27 4
30 0 43 -2 28 -4z m-468 -23 c0 -6 -43 -9 -112 -8 l-113 2 95 6 c52 3 103 7
113 8 9 1 17 -2 17 -8z m145 5 c-24 -8 -125 -11 -125 -3 0 4 30 8 68 7 37 0
63 -2 57 -4z m-5745 -15 c0 -5 -2 -10 -4 -10 -3 0 -8 5 -11 10 -3 6 -1 10 4
10 6 0 11 -4 11 -10z m80 0 c0 -5 -4 -10 -10 -10 -5 0 -10 5 -10 10 0 6 5 10
10 10 6 0 10 -4 10 -10z m5163 -7 c-23 -2 -64 -2 -90 0 -26 2 -7 3 42 3 50 0
71 -1 48 -3z m-220 -10 c-24 -2 -62 -2 -85 0 -24 2 -5 4 42 4 47 0 66 -2 43
-4z m-430 -20 c-23 -2 -64 -2 -90 0 -26 2 -7 3 42 3 50 0 71 -1 48 -3z m-4543
-27 c0 -2 -7 -6 -15 -10 -8 -3 -15 -1 -15 4 0 6 7 10 15 10 8 0 15 -2 15 -4z"/>
<path d="M5345 5030 c3 -5 8 -10 11 -10 2 0 4 5 4 10 0 6 -5 10 -11 10 -5 0
-7 -4 -4 -10z"/>
<path d="M2260 5039 c0 -11 -4 -17 -10 -14 -5 3 -10 -1 -10 -10 0 -9 5 -13 10
-10 6 3 10 -1 10 -9 0 -9 5 -16 10 -16 6 0 10 18 10 40 0 22 -4 40 -10 40 -5
0 -10 -9 -10 -21z"/>
<path d="M2425 4720 c3 -5 11 -10 16 -10 6 0 7 5 4 10 -3 6 -11 10 -16 10 -6
0 -7 -4 -4 -10z"/>
<path d="M2377 4645 c-16 -12 -16 -13 0 -26 11 -9 14 -10 9 -1 -10 16 35 17
52 0 8 -8 12 -8 12 -1 0 10 -22 23 -36 22 -4 0 -10 4 -13 9 -4 7 -12 6 -24 -3z"/>
<path d="M1431 4547 c-15 -19 -4 -27 33 -26 30 1 30 1 6 9 l-25 8 25 2 c23 1
23 2 5 10 -28 12 -31 12 -44 -3z"/>
<path d="M1508 4326 c-4 -18 -1 -26 8 -26 16 0 18 18 5 38 -6 10 -10 7 -13
-12z"/>
<path d="M4173 4253 c15 -2 37 -2 50 0 12 2 0 4 -28 4 -27 0 -38 -2 -22 -4z"/>
<path d="M7270 4250 c0 -5 7 -7 15 -4 8 4 15 8 15 10 0 2 -7 4 -15 4 -8 0 -15
-4 -15 -10z"/>
<path d="M3819 4246 c-2 -2 -173 -9 -379 -15 -206 -6 -395 -14 -420 -16 -25
-2 -157 -7 -295 -10 -285 -6 -485 -15 -485 -22 0 -8 74 -93 82 -93 4 0 8 9 8
20 0 14 7 20 23 21 12 0 46 4 76 8 l54 8 -29 -23 -29 -23 44 5 c24 3 53 11 65
19 21 14 98 20 366 30 74 2 311 12 525 20 215 8 478 17 585 20 223 6 320 13
320 25 0 14 -470 0 -1907 -56 -113 -5 -153 -3 -153 5 0 8 18 11 53 10 28 -1
111 1 182 4 72 4 252 12 400 17 243 9 403 15 1025 36 102 4 187 8 189 10 2 2
-63 4 -146 4 -82 0 -152 -2 -154 -4z"/>
<path d="M4570 4243 c-87 -6 -85 -23 2 -23 73 0 106 11 72 24 -9 3 -16 5 -17
4 -1 -1 -27 -3 -57 -5z"/>
<path d="M7228 4243 c7 -3 16 -2 19 1 4 3 -2 6 -13 5 -11 0 -14 -3 -6 -6z"/>
<path d="M160 4180 c0 -5 5 -10 10 -10 6 0 10 5 10 10 0 6 -4 10 -10 10 -5 0
-10 -4 -10 -10z"/>
<path d="M7140 4178 c-224 -12 -199 -17 50 -11 124 3 233 5 243 5 9 0 15 3 12
7 -6 10 -107 10 -305 -1z"/>
<path d="M5458 4173 c12 -2 32 -2 45 0 12 2 2 4 -23 4 -25 0 -35 -2 -22 -4z"/>
<path d="M7383 4133 c9 -2 23 -2 30 0 6 3 -1 5 -18 5 -16 0 -22 -2 -12 -5z"/>
<path d="M7043 4123 c31 -2 83 -2 115 0 31 2 5 3 -58 3 -63 0 -89 -1 -57 -3z"/>
<path d="M6807 4113 c18 -2 50 -2 70 0 21 2 7 4 -32 4 -38 0 -55 -2 -38 -4z"/>
<path d="M5435 4100 c3 -5 17 -10 31 -10 14 0 22 4 19 10 -3 6 -17 10 -31 10
-14 0 -22 -4 -19 -10z"/>
<path d="M6638 4103 c23 -2 61 -2 85 0 23 2 4 4 -43 4 -47 0 -66 -2 -42 -4z"/>
<path d="M6508 4093 c6 -2 18 -2 25 0 6 3 1 5 -13 5 -14 0 -19 -2 -12 -5z"/>
<path d="M6148 4083 c12 -2 30 -2 40 0 9 3 -1 5 -23 4 -22 0 -30 -2 -17 -4z"/>
<path d="M5923 4073 c26 -2 68 -2 95 0 26 2 4 3 -48 3 -52 0 -74 -1 -47 -3z"/>
<path d="M80 4060 c0 -5 9 -10 21 -10 11 0 17 5 14 10 -3 6 -13 10 -21 10 -8
0 -14 -4 -14 -10z"/>
<path d="M5748 4063 c23 -2 59 -2 80 0 20 2 1 4 -43 4 -44 0 -61 -2 -37 -4z"/>
<path d="M2363 4053 c15 -2 39 -2 55 0 15 2 2 4 -28 4 -30 0 -43 -2 -27 -4z"/>
<path d="M5325 4050 c-27 -4 24 -5 115 -2 91 2 167 6 169 8 7 6 -228 2 -284
-6z"/>
<path d="M3850 4042 c8 -5 65 -5 125 -2 l110 7 -125 1 c-69 1 -118 -2 -110 -6z"/>
<path d="M3128 4013 c6 -2 18 -2 25 0 6 3 1 5 -13 5 -14 0 -19 -2 -12 -5z"/>
<path d="M2888 4003 c7 -3 16 -2 19 1 4 3 -2 6 -13 5 -11 0 -14 -3 -6 -6z"/>
<path d="M4018 4003 c12 -2 30 -2 40 0 9 3 -1 5 -23 4 -22 0 -30 -2 -17 -4z"/>
<path d="M4158 4003 c7 -3 16 -2 19 1 4 3 -2 6 -13 5 -11 0 -14 -3 -6 -6z"/>
<path d="M4298 4003 c6 -2 18 -2 25 0 6 3 1 5 -13 5 -14 0 -19 -2 -12 -5z"/>
<path d="M3818 3993 c17 -2 47 -2 65 0 17 2 3 4 -33 4 -36 0 -50 -2 -32 -4z"/>
<path d="M2376 3975 c4 -8 7 -15 9 -15 1 0 8 7 15 15 10 13 9 15 -8 15 -15 0
-20 -5 -16 -15z"/>
<path d="M2428 3983 c6 -2 18 -2 25 0 6 3 1 5 -13 5 -14 0 -19 -2 -12 -5z"/>
<path d="M2993 3963 c9 -2 23 -2 30 0 6 3 -1 5 -18 5 -16 0 -22 -2 -12 -5z"/>
<path d="M2758 3953 c6 -2 18 -2 25 0 6 3 1 5 -13 5 -14 0 -19 -2 -12 -5z"/>
<path d="M2823 3953 c9 -2 23 -2 30 0 6 3 -1 5 -18 5 -16 0 -22 -2 -12 -5z"/>
<path d="M5073 3951 c16 -6 17 -9 4 -19 -9 -7 -15 -31 -15 -59 -1 -25 -3 -47
-5 -49 -1 -2 -22 -6 -45 -10 -42 -7 -42 -6 -42 25 0 17 -3 31 -7 31 -15 0 -28
-15 -28 -30 0 -20 -25 -19 -38 2 -14 22 9 51 34 43 15 -5 18 -1 16 25 -2 25
-4 28 -13 15 -12 -17 -29 -21 -19 -5 8 13 -15 13 -35 0 -11 -7 -11 -10 -2 -10
9 0 10 -5 2 -19 -15 -30 -12 -56 10 -76 11 -10 17 -22 14 -26 -11 -18 -20 -8
-39 42 -24 60 -38 74 -60 61 -15 -8 -14 -12 9 -37 32 -35 28 -42 -14 -20 -20
10 -30 22 -26 31 5 12 1 12 -24 -1 -31 -16 -51 -39 -26 -29 9 3 16 1 16 -5 0
-6 6 -11 13 -11 13 0 28 -24 41 -63 4 -12 -9 -31 -42 -62 -26 -25 -51 -45 -55
-45 -4 0 -18 10 -30 21 l-22 22 38 -6 c45 -7 51 12 12 37 -14 10 -30 28 -35
42 -5 13 -13 24 -17 24 -5 -1 -28 -20 -53 -43 -25 -23 -41 -39 -36 -35 16 13
26 9 20 -7 -4 -10 0 -15 14 -15 20 0 76 -59 66 -69 -3 -3 -9 1 -13 8 -6 9 -11
10 -15 3 -8 -13 -95 11 -106 28 -8 12 -68 -64 -91 -113 -16 -35 -8 -41 47 -38
25 1 52 -4 61 -10 12 -10 16 -10 23 1 5 8 6 18 3 23 -3 5 -9 4 -13 -3 -5 -8
-13 -9 -26 -2 -11 6 -34 14 -51 19 -24 6 -30 12 -24 22 7 10 13 11 30 2 19
-11 21 -9 21 15 0 22 -2 25 -15 14 -22 -19 -18 4 6 31 14 16 22 20 25 12 3 -7
14 -23 25 -35 16 -20 20 -21 28 -8 8 12 81 23 81 13 0 -1 -20 -33 -43 -70 -44
-67 -72 -132 -62 -141 3 -3 0 -11 -5 -17 -17 -21 -21 -184 -6 -245 l14 -55 1
74 c1 93 23 178 67 262 38 72 127 179 150 179 8 0 14 5 14 10 0 15 83 65 164
99 123 51 240 58 420 25 15 -2 34 0 42 7 8 6 14 7 14 2 0 -5 21 -25 48 -43 26
-18 71 -56 100 -84 29 -28 50 -43 46 -33 -3 9 -2 17 4 17 6 0 19 3 29 7 15 6
16 4 6 -9 -7 -8 -10 -18 -6 -21 3 -4 -1 -9 -9 -12 -10 -4 -14 -14 -11 -26 4
-15 12 -18 37 -15 17 2 43 9 59 16 15 7 30 10 34 6 13 -13 -17 -29 -65 -34
l-50 -4 15 -44 c8 -24 19 -44 23 -44 4 0 11 -27 15 -61 5 -44 10 -58 18 -50 6
6 19 11 29 11 10 0 18 5 18 10 0 6 -11 10 -25 10 -16 0 -25 6 -25 16 0 8 5 12
10 9 6 -3 10 0 10 9 0 14 51 32 78 27 14 -2 16 25 2 34 -5 3 -10 2 -10 -4 0
-6 -16 -13 -36 -17 -19 -4 -38 -13 -41 -20 -3 -8 -9 -14 -14 -14 -16 0 -9 25
11 40 11 8 20 17 20 21 0 4 -9 9 -20 12 -30 8 -24 26 8 24 17 -1 26 3 25 11
-4 17 12 15 27 -3 10 -12 8 -16 -11 -23 -14 -6 -18 -11 -11 -16 11 -7 52 9 52
21 0 14 -54 123 -61 123 -4 0 -12 -6 -16 -14 -4 -8 -20 -18 -35 -21 -22 -6
-28 -4 -28 9 0 14 34 40 54 41 16 0 17 22 1 35 -8 7 -15 16 -15 21 0 17 -40
49 -61 49 -31 0 -59 -19 -59 -40 0 -22 -16 -35 -25 -21 -3 5 13 29 35 52 44
47 47 54 25 63 -9 3 -15 0 -15 -8 0 -17 -39 -52 -69 -61 -26 -8 -28 -11 29 56
26 32 28 38 15 49 -12 10 -16 8 -24 -11 -5 -13 -10 -18 -10 -11 -1 10 -6 10
-21 2 -22 -12 -25 -4 -11 33 5 13 6 30 1 37 -6 9 -16 1 -36 -29 -33 -51 -76
-76 -103 -62 -22 12 -34 38 -22 46 5 2 12 17 16 32 3 16 14 36 23 46 11 13 13
20 4 29 -19 19 -43 2 -36 -26 10 -40 -14 -39 -26 1 -14 44 -26 60 -37 49 -4
-4 -2 -11 6 -15 10 -7 10 -15 -3 -45 -17 -41 -42 -47 -56 -13 -8 21 -9 21 -21
-10 -16 -39 -39 -44 -39 -8 0 16 6 25 15 25 8 0 15 9 15 21 0 11 5 17 10 14 6
-3 10 1 10 9 0 31 -20 25 -51 -14 -32 -40 -33 -40 -44 -19 -7 11 -10 32 -7 45
4 20 0 24 -19 25 -22 0 -23 1 -4 9 16 7 11 9 -20 9 -27 0 -34 -3 -22 -8z m51
-36 c-4 -8 -12 -15 -20 -15 -20 0 -17 18 4 23 9 3 18 5 19 6 1 0 0 -6 -3 -14z
m-1 -50 c4 -17 -40 -17 -47 0 -5 13 0 16 19 13 14 -2 27 -7 28 -13z m217 -62
c0 -22 -19 -33 -21 -13 -2 14 -2 48 0 58 3 15 21 -24 21 -45z m-499 -13 c26
-15 24 -35 -6 -48 -15 -7 -25 -8 -25 -2 0 6 5 10 10 10 6 0 10 7 10 15 0 8 -4
15 -10 15 -5 0 -10 5 -10 10 0 13 6 13 31 0z m-193 -54 c12 -4 22 -12 22 -18
0 -5 -7 -7 -16 -4 -9 3 -29 6 -46 6 -31 0 -31 0 -13 20 10 11 21 16 24 12 3
-5 16 -12 29 -16z m1026 -71 c3 -8 1 -15 -4 -15 -5 0 -7 -6 -4 -14 3 -8 13
-12 26 -8 14 3 19 1 14 -6 -10 -17 -31 -15 -46 3 -9 11 -16 12 -26 4 -13 -11
-34 -5 -34 11 0 15 31 40 50 40 10 0 20 -7 24 -15z"/>
<path d="M2410 3935 c7 -8 17 -11 24 -7 6 4 40 10 76 13 l65 6 -89 1 c-77 2
-87 0 -76 -13z"/>
<path d="M5130 3671 c0 -5 8 -7 19 -4 25 6 36 -14 20 -35 -11 -14 -9 -13 8 2
19 16 20 20 8 32 -15 16 -55 19 -55 5z"/>
<path d="M5232 3658 c-16 -16 -15 -38 2 -38 8 0 14 10 14 25 0 29 0 29 -16 13z"/>
<path d="M5260 3615 c0 -8 2 -15 4 -15 2 0 6 7 10 15 3 8 1 15 -4 15 -6 0 -10
-7 -10 -15z"/>
<path d="M5070 3600 c-9 -6 -10 -10 -3 -10 6 0 15 5 18 10 8 12 4 12 -15 0z"/>
<path d="M5415 3580 c-4 -7 -7 -53 -6 -102 1 -53 -3 -95 -9 -103 -8 -9 -8 -15
0 -20 6 -3 10 -44 10 -96 0 -74 -3 -89 -16 -89 -14 0 -14 -2 1 -17 11 -11 15
-25 11 -45 -5 -26 -4 -28 14 -18 20 11 25 36 21 94 -2 23 1 28 14 23 9 -4 13
-3 10 3 -3 6 2 10 12 10 14 1 12 4 -7 13 -28 13 -33 27 -31 72 1 17 2 44 2 60
-1 65 9 94 32 97 17 2 23 11 25 38 3 32 2 33 -10 16 -16 -21 -55 -18 -49 5 13
46 -5 90 -24 59z"/>
<path d="M4837 3573 c-4 -3 -7 -53 -7 -110 0 -56 -3 -103 -7 -103 -5 0 -7
-103 -5 -229 l2 -229 -25 -6 c-34 -9 -32 -23 5 -31 35 -8 60 7 60 36 0 22 29
26 48 7 7 -7 12 -8 12 -2 0 6 -11 16 -24 22 -38 17 -62 60 -48 83 7 10 12 39
12 63 0 39 3 46 30 59 24 12 31 13 40 2 12 -15 50 -27 50 -16 0 4 -6 15 -14
26 -10 14 -21 17 -49 12 -29 -4 -39 -2 -46 11 -8 15 -4 252 4 261 2 2 36 -25
75 -60 39 -35 75 -65 80 -67 14 -5 40 52 47 103 5 40 8 45 32 45 24 0 27 -5
38 -62 19 -101 26 -101 126 -7 48 44 87 88 87 97 0 18 -19 19 -257 5 -81 -4
-103 -2 -103 8 0 10 -3 10 -12 1 -7 -7 -38 -12 -70 -12 l-59 0 7 50 c5 40 4
50 -8 50 -8 0 -18 -3 -21 -7z"/>
<path d="M4566 3555 c-3 -9 0 -15 9 -15 8 0 15 7 15 15 0 8 -4 15 -9 15 -5 0
-11 -7 -15 -15z"/>
<path d="M5865 3505 c28 -83 38 -144 40 -235 2 -58 6 -114 11 -124 5 -13 2
-23 -9 -31 -9 -6 -28 -45 -43 -86 -111 -300 -359 -512 -654 -559 -36 -5 -78
-10 -95 -10 -47 0 -10 18 55 26 81 10 194 49 290 101 125 68 262 207 318 323
23 47 44 99 47 115 5 24 2 21 -15 -14 -29 -63 -123 -210 -136 -215 -8 -3 -10
3 -7 17 4 16 -9 7 -50 -33 -35 -35 -52 -59 -46 -66 5 -7 0 -18 -14 -31 -37
-34 -44 -35 -40 -5 4 25 3 25 -10 10 -26 -33 -67 -15 -67 29 0 27 -12 29 -36
6 -9 -10 -27 -16 -39 -15 -12 2 -28 -4 -35 -13 -11 -13 -11 -19 3 -33 15 -15
17 -15 17 0 0 20 30 32 44 18 8 -8 4 -12 -12 -16 -12 -4 -22 -12 -22 -19 0
-10 5 -11 25 -2 18 9 25 20 25 41 l0 28 35 -31 c20 -17 41 -31 47 -31 17 0
-20 -37 -44 -43 -16 -5 -19 -2 -15 14 3 10 1 22 -4 25 -5 3 -9 0 -9 -6 0 -6
-16 -18 -36 -26 -28 -12 -33 -18 -24 -29 13 -15 8 -19 -42 -33 l-37 -10 -4 36
c-3 32 -5 34 -11 15 -16 -44 -69 -39 -64 6 2 22 8 26 31 24 37 -2 35 23 -3 29
-19 3 -31 0 -35 -10 -4 -11 -9 -12 -19 -3 -7 6 -21 9 -30 5 -19 -7 -19 -9 -6
-35 15 -28 -10 -25 -35 4 l-20 22 -3 -47 c-2 -27 -7 -48 -13 -48 -5 0 -8 -6
-6 -12 1 -10 -18 -13 -73 -13 -73 0 -97 9 -81 30 17 20 23 92 9 97 -9 4 -13
-4 -14 -24 -1 -30 -22 -78 -35 -78 -4 0 -7 6 -6 13 0 6 -1 38 -1 70 l-2 59
-42 -36 c-44 -38 -64 -46 -54 -21 6 17 -5 20 -20 5 -7 -7 -16 -5 -29 4 -17 12
-18 17 -7 40 7 16 20 26 32 26 12 0 18 5 15 10 -18 29 -65 -6 -65 -49 0 -22 9
-32 50 -54 58 -31 60 -32 60 -12 0 10 9 14 25 13 30 -3 32 -18 7 -42 -18 -15
-23 -14 -87 19 -76 40 -100 41 -33 1 96 -56 183 -85 305 -101 29 -4 55 -11 59
-16 12 -20 -108 -13 -215 12 -46 11 -86 18 -88 16 -2 -2 29 -18 69 -35 l73
-32 220 6 c230 5 270 12 321 51 17 12 38 23 46 23 26 0 140 80 211 149 158
152 226 313 227 535 0 122 -26 251 -62 303 -13 18 -18 21 -13 8z m-225 -749
c0 -2 -8 -10 -17 -17 -16 -13 -17 -12 -4 4 13 16 21 21 21 13z m-793 -128 c-3
-7 -5 -2 -5 12 0 14 2 19 5 13 2 -7 2 -19 0 -25z m279 -65 c20 -26 17 -53 -4
-53 -14 0 -19 8 -20 35 -2 39 4 43 24 18z m82 -34 c-24 -16 -38 -9 -38 16 0
25 0 25 26 9 19 -13 22 -19 12 -25z"/>
<path d="M4520 3470 c0 -5 -6 -7 -14 -4 -9 3 -20 -3 -28 -15 -7 -12 -17 -21
-22 -21 -6 0 -5 5 2 12 18 18 14 30 -10 26 -34 -5 -32 -24 4 -49 18 -12 30
-19 26 -14 -12 13 10 43 34 47 22 3 39 28 19 28 -6 0 -11 -4 -11 -10z"/>
<path d="M4753 3473 c-32 -6 -30 -33 2 -33 18 0 25 5 25 20 0 11 -1 19 -2 19
-2 -1 -13 -4 -25 -6z"/>
<path d="M9323 3413 c43 -2 110 -2 150 0 40 1 5 3 -78 3 -82 0 -115 -2 -72 -3z"/>
<path d="M4482 3385 c-11 -24 -10 -25 8 -15 11 6 20 17 20 25 0 23 -16 17 -28
-10z"/>
<path d="M8705 3398 c-143 -5 -276 -12 -295 -17 -25 -6 -8 -7 55 -5 50 2 218
9 375 15 157 6 287 13 289 15 5 5 -92 3 -424 -8z"/>
<path d="M2380 3388 c0 -9 -6 -19 -12 -21 -10 -4 -10 -8 1 -15 11 -8 7 -12
-20 -16 -33 -5 -835 -38 -1398 -56 -150 -5 -275 -11 -277 -13 -3 -2 7 -12 22
-22 20 -13 28 -14 34 -5 5 9 114 16 386 26 209 7 555 21 769 29 215 9 415 15
445 13 l55 -3 2 -53 c1 -30 4 -56 7 -59 13 -13 36 9 36 34 0 15 7 36 15 47 12
16 11 24 -5 65 -10 25 -24 45 -31 43 -7 -2 -16 3 -20 10 -7 10 -9 9 -9 -4z"/>
<path d="M8268 3373 c6 -2 18 -2 25 0 6 3 1 5 -13 5 -14 0 -19 -2 -12 -5z"/>
<path d="M4357 3341 c-10 -49 -10 -50 22 -46 17 2 44 0 62 -5 38 -11 35 -13
42 25 l6 30 -12 -26 c-11 -25 -14 -25 -47 -14 -34 12 -41 32 -17 47 6 4 8 10
4 14 -10 11 -37 -16 -38 -40 -1 -11 -5 -5 -8 14 l-7 35 -7 -34z"/>
<path d="M4443 3363 c-7 -3 -13 -14 -13 -26 0 -21 0 -21 16 1 17 25 16 32 -3
25z"/>
<path d="M7978 3363 c12 -2 32 -2 45 0 12 2 2 4 -23 4 -25 0 -35 -2 -22 -4z"/>
<path d="M2158 3353 c28 -2 76 -2 105 0 28 2 5 3 -53 3 -58 0 -81 -1 -52 -3z"/>
<path d="M1913 3343 c15 -2 37 -2 50 0 12 2 0 4 -28 4 -27 0 -38 -2 -22 -4z"/>
<path d="M8625 3344 c-11 -1 -170 -8 -353 -15 -183 -7 -329 -16 -324 -21 4 -4
134 -1 287 7 154 9 372 19 485 24 188 7 194 8 65 8 -77 0 -149 -1 -160 -3z"/>
<path d="M1633 3333 c9 -2 23 -2 30 0 6 3 -1 5 -18 5 -16 0 -22 -2 -12 -5z"/>
<path d="M888 3303 c6 -2 18 -2 25 0 6 3 1 5 -13 5 -14 0 -19 -2 -12 -5z"/>
<path d="M658 3293 c12 -2 32 -2 45 0 12 2 2 4 -23 4 -25 0 -35 -2 -22 -4z"/>
<path d="M5765 3260 c-3 -5 1 -10 9 -10 9 0 16 5 16 10 0 6 -4 10 -9 10 -6 0
-13 -4 -16 -10z"/>
<path d="M4913 3249 c-13 -5 -23 -10 -23 -11 0 -2 21 -4 47 -6 49 -3 51 -1 18
15 -12 7 -29 7 -42 2z"/>
<path d="M5701 3206 c-1 -42 1 -47 17 -41 35 15 52 17 52 7 0 -5 -13 -15 -30
-22 -16 -7 -30 -17 -30 -22 0 -5 -4 -6 -10 -3 -5 3 -10 -1 -10 -9 0 -12 9 -14
50 -9 49 6 50 5 50 -21 0 -19 -5 -26 -20 -26 -10 0 -24 -9 -30 -20 -6 -11 -7
-20 -1 -20 5 0 12 7 15 16 4 10 13 13 26 9 14 -4 20 -2 21 9 2 19 4 26 13 48
9 20 -3 46 -13 30 -4 -7 -12 -7 -20 -2 -11 6 -6 12 18 24 42 22 39 31 -10 33
-22 1 -47 7 -55 14 -11 9 -14 8 -15 -2 -1 -8 -5 2 -9 21 -7 34 -7 33 -9 -14z"/>
<path d="M4415 3220 c-3 -5 -1 -10 4 -10 6 0 11 5 11 10 0 6 -2 10 -4 10 -3 0
-8 -4 -11 -10z"/>
<path d="M2380 3160 c-13 -8 -12 -10 3 -10 9 0 17 5 17 10 0 12 -1 12 -20 0z"/>
<path d="M4430 3163 c-55 -7 -54 -18 0 -18 33 0 50 4 50 13 0 6 -3 11 -7 10
-5 0 -24 -3 -43 -5z"/>
<path d="M5005 3160 c-3 -6 1 -7 9 -4 11 4 16 0 16 -10 0 -9 6 -16 13 -16 21
0 28 12 16 27 -13 15 -45 17 -54 3z"/>
<path d="M5310 3138 c0 -17 3 -28 7 -25 9 10 10 57 1 57 -4 0 -8 -14 -8 -32z"/>
<path d="M5341 3153 c-7 -8 -10 -17 -7 -20 9 -9 29 13 25 25 -2 6 -10 3 -18
-5z"/>
<path d="M5837 3110 c-3 -11 -1 -20 4 -20 5 0 9 9 9 20 0 11 -2 20 -4 20 -2 0
-6 -9 -9 -20z"/>
<path d="M4352 3090 c0 -14 2 -19 5 -12 2 6 2 18 0 25 -3 6 -5 1 -5 -13z"/>
<path d="M4380 3080 c0 -5 7 -7 15 -4 8 4 15 8 15 10 0 2 -7 4 -15 4 -8 0 -15
-4 -15 -10z"/>
<path d="M5435 3048 c-27 -17 -78 -49 -113 -71 -34 -22 -65 -37 -69 -33 -3 3
-13 -4 -21 -15 -8 -12 -32 -29 -54 -39 l-39 -17 31 -13 c35 -15 35 -13 14 -45
-20 -31 -30 -31 -76 0 -42 29 -48 30 -48 12 0 -7 -13 -21 -30 -30 -16 -10 -30
-22 -30 -27 0 -20 22 -20 55 0 38 23 61 21 106 -11 26 -18 28 -18 47 -1 28 24
36 56 17 72 -8 7 -15 16 -15 20 0 5 30 25 68 46 37 20 76 48 88 62 24 29 44
23 44 -13 0 -18 -7 -26 -26 -31 -32 -8 -17 -27 17 -22 20 2 25 10 29 47 4 38
10 46 45 65 66 35 66 35 55 57 -14 26 -36 23 -95 -13z"/>
<path d="M5000 3056 c8 -7 33 -16 55 -19 l40 -6 -35 19 c-19 11 -44 19 -55 20
-17 0 -17 -2 -5 -14z"/>
<path d="M828 3053 c7 -3 16 -2 19 1 4 3 -2 6 -13 5 -11 0 -14 -3 -6 -6z"/>
<path d="M4361 3044 c0 -11 3 -14 6 -6 3 7 2 16 -1 19 -3 4 -6 -2 -5 -13z"/>
<path d="M4385 3049 c-4 -6 -5 -12 -2 -15 7 -7 37 7 37 17 0 13 -27 11 -35 -2z"/>
<path d="M5670 3050 c0 -6 40 -38 70 -55 13 -8 13 -7 0 10 -8 10 -14 26 -12
37 3 15 -2 18 -27 16 -17 -1 -31 -5 -31 -8z"/>
<path d="M4433 3031 c3 -12 -3 -27 -14 -37 -10 -9 -16 -20 -14 -25 3 -4 26 11
50 33 25 23 43 43 40 46 -3 3 -14 -3 -25 -13 -18 -17 -20 -17 -14 -2 4 12 1
17 -11 17 -12 0 -16 -6 -12 -19z"/>
<path d="M4755 3000 c-3 -5 -1 -10 4 -10 6 0 11 5 11 10 0 6 -2 10 -4 10 -3 0
-8 -4 -11 -10z"/>
<path d="M5654 2985 c-4 -8 -11 -12 -18 -8 -6 4 -5 -1 3 -10 13 -16 15 -16 26
-1 9 13 16 14 32 5 18 -9 20 -8 16 9 -6 24 -51 28 -59 5z"/>
<path d="M5748 2986 c-10 -7 -15 -16 -12 -19 3 -3 3 -14 0 -25 -8 -24 -42 -35
-68 -21 -11 6 -22 8 -25 5 -3 -3 6 -11 21 -17 33 -15 34 -37 1 -35 -14 0 -25
4 -25 9 0 4 -11 7 -25 7 -30 0 -33 -20 -5 -27 11 -3 20 -12 20 -19 0 -8 5 -14
10 -14 6 0 10 7 10 15 0 17 26 20 35 5 10 -17 37 11 32 32 -3 11 0 18 8 18 14
0 25 22 25 50 0 10 7 20 15 24 15 5 21 26 8 26 -5 0 -16 -7 -25 -14z"/>
<path d="M4463 2963 c-18 -9 -33 -24 -33 -32 0 -10 3 -12 8 -5 10 16 68 44 76
37 3 -4 6 -1 6 5 0 16 -18 14 -57 -5z"/>
<path d="M4960 2959 c0 -5 5 -7 10 -4 6 3 10 8 10 11 0 2 -4 4 -10 4 -5 0 -10
-5 -10 -11z"/>
<path d="M7230 2825 l-5 -130 -135 -6 c-74 -4 -145 -7 -157 -8 -13 0 -23 -5
-23 -11 0 -14 308 -10 323 4 9 8 10 49 7 146 l-6 135 -4 -130z"/>
<path d="M4937 2924 c-17 -18 -3 -41 38 -61 25 -12 47 -18 49 -14 3 4 -11 15
-30 24 -19 9 -38 26 -42 37 -4 12 -11 18 -15 14z"/>
<path d="M4465 2892 c-6 -4 -11 -19 -10 -33 0 -24 3 -26 24 -18 13 5 32 7 42
4 17 -6 18 -8 4 -36 -26 -50 0 -32 28 20 32 58 34 75 6 41 -14 -17 -19 -19
-15 -7 5 15 1 16 -37 10 -38 -6 -41 -5 -28 10 14 17 5 23 -14 9z"/>
<path d="M4562 2795 c-18 -25 -32 -53 -31 -63 0 -11 2 -12 6 -4 3 7 19 20 35
28 20 10 27 19 19 23 -8 5 -5 14 9 29 23 25 25 32 7 32 -7 0 -28 -20 -45 -45z"/>
<path d="M3373 2775 c0 -22 2 -30 4 -17 2 12 2 30 0 40 -3 9 -5 -1 -4 -23z"/>
<path d="M4611 2781 c-12 -16 -21 -34 -21 -40 0 -6 -6 -11 -14 -11 -16 0 -31
-18 -23 -26 3 -3 36 11 73 30 49 27 61 36 43 36 -14 0 -31 -6 -39 -12 -8 -8
-7 -3 3 14 19 31 21 38 8 38 -5 0 -19 -13 -30 -29z"/>
<path d="M5490 2793 c0 -9 -3 -13 -7 -10 -3 4 -12 2 -20 -4 -10 -9 -10 -15 -2
-25 16 -20 26 -17 32 7 5 17 9 19 25 10 17 -9 19 -7 14 14 -5 29 -42 36 -42 8z"/>
<path d="M2153 2715 c0 -33 2 -45 4 -27 2 18 2 45 0 60 -2 15 -4 0 -4 -33z"/>
<path d="M8308 2763 c6 -2 18 -2 25 0 6 3 1 5 -13 5 -14 0 -19 -2 -12 -5z"/>
<path d="M8551 2748 c-2 -23 -16 -26 -179 -33 -78 -4 -145 -12 -148 -17 -7
-12 317 0 329 12 5 4 7 18 4 31 -2 13 -5 16 -6 7z"/>
<path d="M4663 2703 c-41 -41 -52 -63 -35 -63 12 0 93 98 85 103 -5 3 -27 -15
-50 -40z"/>
<path d="M3360 2628 c0 -61 -3 -77 -17 -82 -9 -4 -71 -7 -137 -7 -67 0 -128
-4 -136 -9 -10 -7 38 -9 140 -8 l155 3 6 80 c3 44 1 84 -3 90 -4 5 -8 -25 -8
-67z"/>
<path d="M4775 2680 c-3 -5 -1 -10 4 -10 6 0 11 5 11 10 0 6 -2 10 -4 10 -3 0
-8 -4 -11 -10z"/>
<path d="M4987 2633 c-4 -3 -7 -17 -7 -29 0 -28 -16 -40 -24 -18 -4 9 -9 14
-13 11 -3 -4 -1 -13 6 -21 6 -8 10 -18 9 -22 -2 -5 1 -11 6 -14 5 -3 15 17 23
44 14 46 14 63 0 49z"/>
<path d="M2140 2536 c0 -14 -4 -27 -9 -30 -4 -3 -68 -10 -141 -16 -73 -5 -136
-13 -139 -16 -5 -6 290 4 296 10 8 7 10 76 2 76 -5 0 -9 -11 -9 -24z"/>
<path d="M9895 2549 c-4 -6 -34 -9 -69 -8 -35 1 -68 -1 -74 -5 -7 -4 -16 -5
-20 -2 -27 16 -72 15 -89 -3 -16 -16 -41 -19 -213 -26 -363 -14 -649 -13 -661
2 -15 17 -30 17 -23 -1 10 -26 10 -26 -571 -42 -254 -7 -531 -21 -470 -23 83
-4 232 -1 565 9 173 5 289 5 295 -1 5 -5 -47 -9 -135 -10 -80 -1 -167 -3 -195
-4 -66 -4 -714 -24 -985 -30 -118 -3 -248 -8 -288 -11 -82 -6 -123 7 -52 17
69 9 -343 8 -440 -1 -57 -5 -22 -6 108 -3 113 3 192 2 192 -4 0 -8 -1056 -47
-1575 -58 -115 -3 -228 -7 -250 -10 -22 -2 -195 -7 -385 -11 -190 -3 -361 -7
-380 -9 -87 -7 -651 -13 -615 -6 54 10 -165 18 -267 10 l-73 -6 60 -2 c33 -1
66 -5 74 -10 13 -8 -80 -14 -414 -26 -82 -3 -213 -7 -290 -10 -77 -3 -300 -9
-495 -15 -195 -5 -418 -12 -495 -15 -77 -3 -284 -8 -460 -11 -176 -4 -324 -10
-329 -15 -11 -10 56 -13 209 -11 193 4 842 21 985 27 80 3 305 10 500 15 195
6 458 15 583 21 144 6 233 6 240 0 15 -11 59 -17 72 -9 16 9 308 27 560 33
516 13 1397 40 2090 65 154 5 377 10 495 10 118 0 303 5 410 10 197 10 353 14
940 26 179 3 357 10 395 14 39 4 71 3 73 -1 2 -4 15 -4 29 2 20 7 28 6 39 -8
11 -14 15 -15 22 -5 6 9 46 14 138 17 232 8 588 25 637 30 26 3 57 10 70 16
15 6 -31 8 -146 6 -93 -3 -164 0 -160 4 5 5 146 10 313 12 168 2 254 2 193 0
l-113 -4 -16 -30 c-19 -38 -14 -45 17 -20 21 16 51 19 249 27 124 4 232 6 240
5 8 -2 79 0 158 4 l142 7 0 28 c0 33 -18 39 -113 39 -32 0 -63 4 -70 8 -21 13
-42 13 -52 -1 -9 -12 -17 -12 -50 0 -48 17 -52 17 -60 3z m248 -46 c-7 -2 -21
-2 -30 0 -10 3 -4 5 12 5 17 0 24 -2 18 -5z m65 0 c-10 -2 -26 -2 -35 0 -10 3
-2 5 17 5 19 0 27 -2 18 -5z m-1180 -38 c-6 -6 -268 -12 -263 -6 7 7 233 18
253 12 7 -2 12 -5 10 -6z m-283 -5 c4 -6 -15 -10 -52 -9 -48 1 -53 3 -28 9 44
11 73 11 80 0z m-1895 -60 c0 -5 -7 -10 -15 -10 -8 0 -15 5 -15 10 0 6 7 10
15 10 8 0 15 -4 15 -10z m-3333 -96 c-3 -3 -12 -4 -19 -1 -8 3 -5 6 6 6 11 1
17 -2 13 -5z"/>
<path d="M7270 2433 c0 -5 57 -7 127 -5 188 4 199 9 26 11 -84 0 -153 -2 -153
-6z"/>
<path d="M6980 2421 c0 -10 260 -5 269 5 2 2 -57 4 -132 4 -80 0 -137 -4 -137
-9z"/>
<path d="M6213 2403 c26 -2 68 -2 95 0 26 2 4 3 -48 3 -52 0 -74 -1 -47 -3z"/>
<path d="M6008 2393 c23 -2 61 -2 85 0 23 2 4 4 -43 4 -47 0 -66 -2 -42 -4z"/>
<path d="M5688 2383 c7 -3 16 -2 19 1 4 3 -2 6 -13 5 -11 0 -14 -3 -6 -6z"/>
<path d="M5763 2383 c9 -2 23 -2 30 0 6 3 -1 5 -18 5 -16 0 -22 -2 -12 -5z"/>
<path d="M5025 2369 c-87 -5 -86 -5 42 -7 72 -1 134 2 137 7 6 10 -32 10 -179
0z"/>
<path d="M5293 2368 c21 -7 32 -7 40 1 8 8 0 11 -28 10 -40 -1 -40 -1 -12 -11z"/>
<path d="M5418 2373 c12 -2 32 -2 45 0 12 2 2 4 -23 4 -25 0 -35 -2 -22 -4z"/>
<path d="M9788 2373 c7 -3 16 -2 19 1 4 3 -2 6 -13 5 -11 0 -14 -3 -6 -6z"/>
<path d="M9848 2373 c17 -2 47 -2 65 0 17 2 3 4 -33 4 -36 0 -50 -2 -32 -4z"/>
<path d="M4400 2350 l-95 -7 121 0 c67 -1 128 3 135 8 15 9 -4 9 -161 -1z"/>
<path d="M4628 2353 c7 -3 16 -2 19 1 4 3 -2 6 -13 5 -11 0 -14 -3 -6 -6z"/>
<path d="M4678 2353 c7 -3 16 -2 19 1 4 3 -2 6 -13 5 -11 0 -14 -3 -6 -6z"/>
<path d="M4258 2343 c7 -3 16 -2 19 1 4 3 -2 6 -13 5 -11 0 -14 -3 -6 -6z"/>
<path d="M3998 2333 c7 -3 16 -2 19 1 4 3 -2 6 -13 5 -11 0 -14 -3 -6 -6z"/>
<path d="M4078 2333 c28 -2 76 -2 105 0 28 2 5 3 -53 3 -58 0 -81 -1 -52 -3z"/>
<path d="M3620 2323 c0 -5 37 -7 82 -5 143 4 157 9 36 10 -65 1 -118 -1 -118
-5z"/>
<path d="M2993 2303 c15 -2 37 -2 50 0 12 2 0 4 -28 4 -27 0 -38 -2 -22 -4z"/>
<path d="M9875 2299 c-104 -3 -228 -7 -275 -9 -47 -1 -75 -5 -62 -8 26 -8 416
3 592 17 l115 8 -90 0 c-49 0 -175 -4 -280 -8z"/>
<path d="M2703 2293 c26 -2 67 -2 90 0 23 2 2 3 -48 3 -49 0 -68 -1 -42 -3z"/>
<path d="M2269 2286 c-2 -2 -141 -7 -309 -11 -168 -4 -309 -11 -314 -15 -5 -5
31 -7 80 -5 49 2 253 8 454 15 418 13 469 17 249 19 -86 0 -158 -1 -160 -3z"/>
<path d="M9268 2273 c17 -2 47 -2 65 0 17 2 3 4 -33 4 -36 0 -50 -2 -32 -4z"/>
<path d="M9428 2273 c18 -2 45 -2 60 0 15 2 0 4 -33 4 -33 0 -45 -2 -27 -4z"/>
<path d="M1030 2250 c-91 -3 -136 -7 -100 -9 107 -5 261 0 284 9 20 8 20 9 1
7 -11 -1 -94 -4 -185 -7z"/>
<path d="M1275 2249 c-5 -7 5 -8 32 -3 51 9 54 14 10 14 -20 0 -39 -5 -42 -11z"/>
<path d="M1413 2253 c26 -2 68 -2 95 0 26 2 4 3 -48 3 -52 0 -74 -1 -47 -3z"/>
<path d="M9783 2243 c9 -2 23 -2 30 0 6 3 -1 5 -18 5 -16 0 -22 -2 -12 -5z"/>
<path d="M169 2228 c-13 -3 -58 -7 -99 -9 -66 -2 -69 -3 -23 -6 67 -5 69 -23
3 -23 -38 0 -50 -4 -50 -15 0 -13 11 -15 72 -10 98 7 520 25 635 26 50 1 107
5 125 10 19 5 -105 7 -302 4 -381 -4 -410 9 -50 24 l225 9 -256 -1 c-141 -1
-267 -5 -280 -9z m4 -25 c-13 -2 -33 -2 -45 0 -13 2 -3 4 22 4 25 0 35 -2 23
-4z"/>
<path d="M9613 2233 c15 -2 37 -2 50 0 12 2 0 4 -28 4 -27 0 -38 -2 -22 -4z"/>
<path d="M3402 2184 c10 -9 58 -12 58 -3 0 5 -14 9 -32 9 -17 0 -29 -3 -26 -6z"/>
<path d="M5048 2153 c6 -2 18 -2 25 0 6 3 1 5 -13 5 -14 0 -19 -2 -12 -5z"/>
<path d="M3385 2110 c-14 -6 -2 -9 40 -9 42 0 54 3 40 9 -11 5 -29 9 -40 9
-11 0 -29 -4 -40 -9z"/>
<path d="M3528 2103 c6 -2 18 -2 25 0 6 3 1 5 -13 5 -14 0 -19 -2 -12 -5z"/>
<path d="M3410 2059 c0 -7 27 -9 88 -4 48 4 89 9 91 11 2 2 -37 4 -87 4 -60 0
-92 -4 -92 -11z"/>
<path d="M6755 2062 c-39 -3 -65 -22 -65 -49 0 -15 46 -18 55 -3 3 6 19 10 34
10 35 0 41 -17 41 -120 0 -54 -5 -82 -16 -99 -20 -28 -7 -41 43 -41 38 0 46
10 34 42 -5 12 -6 67 -3 121 5 94 5 97 28 97 14 0 33 -6 44 -12 27 -17 46 1
31 30 -16 31 -67 36 -226 24z"/>
<path d="M7413 2064 c-9 -4 -9 -13 -2 -30 11 -31 12 -154 0 -173 -15 -23 -43
-4 -116 79 -70 80 -94 95 -96 63 -1 -10 -3 -58 -5 -106 -1 -49 -8 -95 -15
-103 -16 -19 -8 -26 33 -27 28 -2 32 1 30 18 -7 39 -5 135 2 143 4 4 43 -30
87 -75 58 -61 86 -83 105 -83 l25 0 -3 147 c-3 152 -6 163 -45 147z"/>
<path d="M7534 2016 c-39 -38 -44 -49 -44 -88 0 -85 71 -152 159 -150 80 2 98
14 103 67 4 54 -5 64 -49 58 -30 -5 -31 -7 -20 -30 9 -21 8 -27 -8 -39 -18
-14 -44 -19 -75 -14 -46 6 -70 76 -46 133 27 66 98 88 143 45 27 -25 47 -14
41 23 -4 27 -30 37 -107 38 -51 1 -56 -1 -97 -43z"/>
<path d="M3058 2043 c7 -3 16 -2 19 1 4 3 -2 6 -13 5 -11 0 -14 -3 -6 -6z"/>
<path d="M7035 2027 c19 -29 23 -204 5 -237 -15 -28 -1 -40 48 -40 33 0 33 1
25 33 -4 17 -8 85 -8 150 l0 117 -43 0 c-42 0 -42 0 -27 -23z"/>
<path d="M2788 2033 c6 -2 18 -2 25 0 6 3 1 5 -13 5 -14 0 -19 -2 -12 -5z"/>
<path d="M6236 2033 c-2 -2 -20 -4 -40 -5 -37 -1 -43 -7 -26 -24 14 -14 15
-227 1 -232 -21 -7 -11 -32 15 -38 35 -9 162 5 203 22 24 10 38 11 45 4 5 -5
27 -10 47 -10 33 0 37 3 43 32 11 54 32 78 71 78 39 0 55 -20 55 -68 0 -24 5
-31 26 -36 50 -13 83 13 49 38 -8 6 -38 58 -67 116 -32 62 -59 105 -68 105 -9
0 -37 -46 -72 -117 -56 -115 -88 -153 -72 -85 18 69 7 109 -38 153 -24 22 -52
44 -63 49 -25 10 -104 23 -109 18z m137 -75 c50 -59 28 -136 -49 -169 -76 -34
-84 -25 -84 96 0 115 1 117 65 110 29 -4 47 -14 68 -37z"/>
<path d="M168 2013 c7 -3 16 -2 19 1 4 3 -2 6 -13 5 -11 0 -14 -3 -6 -6z"/>
<path d="M1718 2013 c6 -2 18 -2 25 0 6 3 1 5 -13 5 -14 0 -19 -2 -12 -5z"/>
<path d="M5965 2006 c-44 -19 -85 -77 -85 -121 0 -113 109 -185 213 -140 38
16 38 16 35 68 -2 40 -6 51 -18 48 -8 -1 -25 -4 -37 -5 -24 -1 -30 -11 -13
-21 29 -18 -17 -65 -64 -65 -38 0 -53 14 -62 58 -19 95 108 207 145 126 16
-36 45 -28 49 14 4 36 1 38 -78 46 -35 3 -66 0 -85 -8z"/>
<path d="M5413 2004 c-9 -4 -9 -12 -2 -32 13 -32 2 -211 -13 -229 -7 -9 -3
-16 15 -24 39 -18 61 -5 53 31 -3 17 -3 43 0 58 5 25 12 29 71 40 36 7 67 11
69 9 8 -8 -19 -73 -39 -95 -25 -27 -13 -45 28 -40 21 2 30 11 40 41 19 54 33
67 76 67 43 0 55 -19 44 -70 l-7 -30 56 0 c31 0 56 3 56 7 0 3 -8 15 -17 26
-23 25 -65 96 -102 174 -34 71 -46 73 -80 13 -12 -22 -26 -40 -30 -40 -4 0
-14 15 -22 33 -8 19 -28 39 -49 49 -33 16 -120 23 -147 12z m137 -44 c15 -27
5 -54 -24 -69 -38 -21 -61 -10 -60 27 3 51 11 62 43 62 20 0 34 -7 41 -20z"/>
<path d="M4755 1994 c-6 -2 -9 -42 -7 -100 2 -53 -1 -101 -6 -106 -18 -18 -52
8 -144 112 -27 29 -50 51 -52 49 -3 -3 -8 -47 -11 -99 -4 -52 -12 -105 -18
-118 -13 -28 4 -44 42 -40 24 3 24 5 22 85 -1 44 2 84 7 87 6 3 21 -9 35 -27
14 -17 49 -57 79 -89 45 -48 57 -55 80 -51 15 3 25 10 22 15 -4 5 -6 72 -5
149 1 127 0 139 -16 138 -10 0 -22 -2 -28 -5z"/>
<path d="M4170 1981 c-8 -6 -18 -7 -22 -5 -4 3 -8 -3 -8 -13 0 -10 -9 -29 -20
-43 -20 -24 -21 -25 -35 -6 -8 11 -15 30 -15 42 0 21 -4 23 -45 21 -25 -1 -45
-4 -45 -6 0 -2 11 -12 24 -22 13 -11 34 -40 46 -64 19 -38 21 -55 15 -103 -4
-31 -11 -63 -17 -69 -13 -16 37 -37 69 -28 20 5 22 8 12 26 -21 39 -1 118 47
187 24 35 44 69 44 77 0 17 -27 20 -50 6z"/>
<path d="M4891 1966 c-48 -36 -60 -56 -61 -101 0 -93 70 -155 177 -155 70 0
76 5 87 78 6 41 6 42 -23 42 -22 0 -31 -6 -41 -30 -17 -41 -33 -52 -76 -52
-46 0 -56 11 -61 65 -10 101 97 192 143 122 25 -39 46 -32 42 12 l-3 38 -75 3
c-67 2 -79 0 -109 -22z"/>
<path d="M3334 1966 c-25 -9 -30 -15 -24 -31 11 -27 0 -207 -13 -223 -15 -19
2 -30 48 -34 36 -3 40 -1 36 17 -6 27 -4 169 3 226 7 53 -2 61 -50 45z"/>
<path d="M3834 1949 c-10 -19 -39 -77 -64 -129 -26 -52 -54 -101 -63 -109 -24
-19 -12 -31 34 -31 29 0 39 4 39 16 0 30 42 92 65 96 51 10 89 -27 66 -64 -17
-27 -6 -38 38 -38 46 0 56 8 36 30 -9 9 -37 68 -64 130 -27 62 -54 117 -59
122 -7 7 -16 -1 -28 -23z"/>
<path d="M3501 1948 c-79 -39 -103 -148 -50 -235 17 -27 26 -32 77 -38 48 -5
136 5 146 17 8 8 13 97 6 108 -4 7 -17 8 -36 4 -16 -5 -35 -7 -41 -6 -7 2 -13
-2 -13 -8 0 -5 5 -10 10 -10 16 0 11 -26 -8 -43 -20 -18 -65 -24 -99 -13 -22
7 -32 26 -14 26 5 0 7 19 4 43 -9 94 108 180 147 106 6 -10 18 -19 26 -19 11
0 14 9 12 38 -3 36 -4 37 -43 38 -22 0 -49 4 -60 7 -12 4 -37 -2 -64 -15z"/>
<path d="M4302 1957 c-6 -7 -34 -60 -63 -118 -28 -57 -58 -112 -66 -121 -21
-23 -10 -35 29 -30 29 3 35 9 53 55 19 50 22 52 61 55 38 3 42 0 54 -28 10
-23 10 -33 1 -44 -15 -18 13 -36 58 -36 38 0 50 18 24 39 -11 9 -26 32 -33 51
-24 63 -90 190 -99 190 -5 0 -13 -6 -19 -13z"/>
<path d="M3128 1949 c-15 -8 -18 -25 -18 -113 0 -72 -4 -108 -14 -122 -24 -32
-2 -44 78 -44 79 0 96 9 96 52 0 31 -15 35 -44 13 -11 -8 -28 -15 -39 -15 -17
0 -18 7 -14 93 2 50 8 104 12 120 6 24 5 27 -16 27 -13 0 -32 -5 -41 -11z"/>
<path d="M2658 1927 c-15 -12 -39 -48 -53 -79 -13 -32 -29 -58 -35 -58 -5 0
-25 31 -45 69 -27 54 -39 69 -55 68 -13 -1 -20 -9 -20 -22 -2 -43 -19 -211
-26 -238 -6 -27 -5 -28 26 -25 l33 3 1 63 c3 106 32 99 67 -16 7 -23 17 -41
23 -39 6 2 21 25 34 51 16 34 27 45 34 38 7 -7 7 -20 -1 -43 -16 -47 -15 -49
32 -49 l42 0 -3 121 c-3 78 0 125 7 132 6 6 11 19 11 29 0 26 -39 23 -72 -5z"/>
<path d="M2880 1908 c-11 -12 -20 -26 -20 -31 0 -15 -80 -170 -98 -190 -20
-23 -4 -40 33 -35 23 2 31 11 42 42 18 53 40 76 73 76 37 0 52 -21 48 -67 l-3
-38 48 -3 c42 -3 47 -1 47 17 0 12 -6 21 -13 21 -8 0 -38 52 -67 115 -29 63
-57 115 -61 115 -5 0 -17 -10 -29 -22z"/>
<path d="M8208 1704 c-4 -3 0 -17 8 -32 10 -19 14 -65 14 -154 0 -111 -2 -128
-16 -128 -9 0 -76 61 -149 135 -73 74 -135 135 -138 135 -3 0 -7 -74 -9 -165
-3 -150 -5 -165 -23 -179 -19 -14 -19 -14 7 -26 15 -7 38 -10 52 -6 22 5 25 9
16 26 -12 22 -14 230 -2 230 4 0 61 -54 127 -120 109 -109 123 -120 156 -120
19 0 38 2 41 5 3 3 -1 23 -8 44 -14 42 -21 286 -9 334 7 26 5 27 -27 27 -19 0
-37 -3 -40 -6z"/>
<path d="M7215 1679 c-58 -14 -101 -47 -131 -103 -24 -43 -26 -56 -22 -122 4
-64 9 -80 35 -112 44 -55 93 -75 172 -70 72 4 126 25 126 48 0 17 -24 17 -99
1 -42 -9 -55 -8 -85 6 -56 28 -76 64 -76 136 0 48 6 71 24 100 42 69 148 100
191 57 11 -11 27 -20 36 -20 13 0 15 7 10 33 -3 17 -14 38 -23 45 -19 14 -99
14 -158 1z"/>
<path d="M7560 1538 c-64 -175 -84 -215 -110 -223 -11 -3 -20 -12 -20 -20 0
-16 41 -24 82 -16 29 6 32 10 33 46 1 22 11 59 23 83 21 39 26 42 62 42 36 0
41 -4 60 -40 21 -42 26 -80 10 -80 -5 0 -10 -9 -10 -20 0 -18 7 -20 70 -20 39
0 70 3 70 7 0 4 -10 17 -22 30 -13 13 -57 97 -98 185 -42 89 -81 163 -87 165
-5 2 -34 -60 -63 -139z"/>
<path d="M6017 1662 c-39 -3 -46 -6 -37 -16 12 -15 15 -147 5 -229 -8 -63 10
-117 49 -142 33 -22 130 -30 182 -16 72 19 78 33 86 205 3 83 8 162 10 176 3
23 1 25 -37 22 -22 -2 -41 -5 -43 -6 -1 -2 5 -19 13 -39 17 -42 21 -220 5
-261 -12 -32 -65 -66 -103 -66 -30 0 -67 16 -79 34 -18 27 -6 265 16 317 9 21
-5 25 -67 21z"/>
<path d="M6417 1663 c-36 -4 -37 -5 -22 -26 12 -17 15 -53 15 -168 0 -133 -2
-149 -21 -173 l-20 -26 23 -9 c29 -11 199 -2 216 11 6 6 12 21 12 34 0 25 -19
42 -29 26 -8 -13 -56 -32 -81 -32 -30 0 -42 64 -37 198 2 64 8 129 12 145 8
29 12 28 -68 20z"/>
<path d="M6818 1603 c-14 -32 -42 -101 -62 -153 -21 -52 -41 -105 -46 -118 -6
-12 -21 -28 -35 -34 -39 -17 -24 -33 31 -33 l49 0 5 45 c3 25 14 63 25 85 18
37 23 40 60 40 37 0 42 -3 64 -44 21 -38 23 -48 13 -74 -6 -16 -9 -34 -6 -38
7 -12 144 -11 144 0 0 17 -41 40 -59 33 -13 -5 -14 -3 -4 9 10 12 -2 45 -60
174 -40 87 -78 160 -83 162 -6 2 -22 -22 -36 -54z"/>
<path d="M5696 1642 c-3 -2 5 -13 16 -24 20 -20 21 -28 15 -177 -6 -127 -10
-158 -23 -168 -29 -21 -4 -33 72 -33 83 0 133 16 158 51 22 32 20 85 -5 120
-15 22 -19 38 -14 57 22 88 13 121 -44 159 -28 19 -46 23 -103 21 -37 -1 -70
-3 -72 -6z m142 -54 c26 -26 8 -88 -25 -88 -14 0 -18 55 -7 84 7 19 16 20 32
4z m12 -178 c26 -26 25 -53 -3 -86 -31 -35 -47 -24 -47 31 0 75 14 91 50 55z"/>
<path d="M4967 1634 c-3 -4 -53 -7 -111 -7 -99 -1 -126 -7 -91 -21 23 -8 22
-312 -1 -344 -8 -12 -12 -27 -9 -32 7 -11 185 -14 223 -4 17 5 22 14 22 38 0
46 -7 49 -49 21 -72 -50 -104 -29 -95 64 8 68 24 82 77 62 30 -12 42 1 35 36
-3 15 -12 17 -54 15 -60 -4 -64 1 -55 73 6 50 6 50 45 53 21 2 43 -1 49 -7 20
-20 47 -13 47 13 0 24 -22 51 -33 40z"/>
<path d="M5048 1617 c24 -27 20 -346 -5 -364 -28 -21 -6 -28 106 -31 l107 -4
12 27 c23 50 6 81 -28 50 -10 -9 -37 -19 -59 -22 l-41 -6 0 161 c0 102 4 163
11 167 5 4 9 14 7 23 -3 13 -16 17 -65 17 -59 0 -61 -1 -45 -18z"/>
<path d="M4685 1618 c-11 -6 -22 -12 -24 -14 -2 -2 -3 -64 -2 -139 2 -112 -1
-140 -15 -164 -34 -57 -113 -69 -161 -25 l-28 26 0 134 c1 91 5 138 13 146 34
34 -8 52 -53 22 -18 -11 -23 -23 -20 -38 3 -11 7 -82 9 -157 2 -74 8 -145 14
-156 22 -41 138 -58 205 -29 64 27 70 42 77 201 5 96 11 150 20 160 20 24 -7
48 -35 33z"/>
<path d="M3757 1595 c-21 -7 -40 -15 -41 -17 -2 -1 -23 -47 -46 -102 -49 -111
-52 -112 -90 -7 -11 31 -28 72 -37 91 -17 33 -21 35 -71 36 -54 2 -63 -6 -37
-32 17 -17 18 -55 6 -211 -5 -74 -12 -108 -24 -121 -28 -31 -22 -52 16 -52 17
0 37 4 44 8 7 4 14 52 19 120 4 62 10 115 14 117 4 3 13 -10 20 -28 7 -17 20
-52 30 -77 10 -25 23 -64 29 -87 19 -71 27 -62 88 96 43 113 56 106 51 -25
l-3 -109 29 -3 c15 -2 40 -1 53 3 24 6 24 7 8 31 -14 22 -16 47 -12 177 3 84
7 163 8 176 5 30 -6 34 -54 16z"/>
<path d="M3954 1600 c-12 -5 -25 -13 -28 -19 -9 -14 -32 -212 -35 -303 -1 -10
-11 -27 -23 -38 -19 -18 -20 -22 -8 -30 8 -5 39 -10 69 -10 47 0 52 2 45 18
-14 29 -4 324 12 349 17 27 0 45 -32 33z"/>
<path d="M4263 1593 c-16 -11 -26 -12 -42 -4 -30 17 -62 13 -104 -12 -56 -32
-93 -105 -84 -166 3 -23 1 -41 -3 -41 -24 0 22 -116 50 -125 10 -3 25 -14 35
-25 25 -28 98 -27 155 3 42 21 45 25 51 72 4 28 10 60 14 73 6 19 4 22 -16 22
-13 0 -36 -6 -51 -14 -23 -12 -27 -12 -32 0 -7 19 -26 18 -26 -1 0 -8 4 -15
10 -15 5 0 18 -10 29 -21 16 -17 18 -26 9 -44 -23 -50 -100 -65 -149 -29 -18
13 -27 24 -21 24 9 0 11 17 6 64 -4 35 -4 76 0 90 11 43 73 105 114 112 31 6
38 3 58 -22 30 -37 50 -22 40 30 -8 43 -15 48 -43 29z"/>
<path d="M2993 1580 c-22 -9 -23 -14 -23 -127 0 -127 -6 -163 -24 -163 -14 0
-141 135 -186 198 -16 23 -37 42 -45 42 -8 0 -15 6 -15 13 -1 8 -4 7 -9 -3 -5
-8 -12 -82 -15 -165 -5 -108 -11 -154 -22 -166 -20 -22 -17 -37 9 -41 58 -9
63 -3 59 78 -5 94 5 164 23 164 17 0 127 -119 167 -182 30 -45 34 -48 76 -48
39 0 43 2 36 18 -12 23 -4 334 8 349 11 13 4 43 -9 42 -4 0 -18 -4 -30 -9z"/>
<path d="M2048 1530 c-51 -52 -32 -125 45 -174 64 -41 74 -64 51 -113 -11 -21
-27 -40 -37 -41 -27 -5 -63 6 -81 24 -15 14 -16 13 -16 -15 0 -26 5 -31 38
-40 55 -16 93 -13 129 9 36 22 49 55 39 102 -7 34 -41 78 -61 78 -6 0 -26 13
-43 28 -38 34 -43 81 -12 112 23 23 70 27 70 6 0 -20 19 -31 32 -18 7 7 7 20
1 38 -9 26 -14 28 -68 30 -52 2 -61 -1 -87 -26z"/>
<path d="M2379 1493 c-17 -37 -39 -86 -49 -108 -10 -22 -30 -68 -46 -103 -15
-35 -35 -67 -46 -73 -37 -20 -21 -39 32 -39 46 0 50 2 50 24 0 28 35 109 56
131 8 8 29 15 45 15 25 0 33 -6 45 -35 17 -42 18 -69 2 -95 -18 -29 3 -40 75
-40 43 0 57 4 57 14 0 8 -10 16 -22 18 -11 2 -22 10 -23 18 -6 36 -124 335
-134 338 -6 2 -25 -27 -42 -65z"/>
<path d="M5430 1312 c-20 -16 -21 -23 -13 -48 8 -24 6 -34 -10 -58 l-21 -29
27 7 c52 13 75 25 96 52 27 34 27 59 -1 78 -29 21 -51 20 -78 -2z"/>
<path d="M9800 891 l-45 -6 48 -8 c41 -6 271 6 317 17 26 6 -273 3 -320 -3z"/>
<path d="M10203 893 c9 -2 23 -2 30 0 6 3 -1 5 -18 5 -16 0 -22 -2 -12 -5z"/>
<path d="M7790 840 c0 -12 47 -12 75 0 15 6 8 9 -27 9 -27 1 -48 -3 -48 -9z"/>
<path d="M8228 843 c6 -2 18 -2 25 0 6 3 1 5 -13 5 -14 0 -19 -2 -12 -5z"/>
<path d="M9705 829 c-278 -16 -330 -18 -586 -20 -264 -3 -414 -15 -234 -19 50
-1 95 -1 100 0 6 1 201 4 435 7 292 4 422 2 415 -5 -10 -10 -436 -24 -1110
-37 -159 -3 -366 -7 -460 -10 -93 -3 -253 -7 -355 -10 -102 -3 -329 -7 -505
-10 -176 -3 -457 -10 -625 -15 -168 -5 -476 -12 -685 -15 -1040 -14 -1711 -28
-2290 -45 -187 -6 -376 -11 -420 -11 -44 0 -154 -2 -245 -5 -91 -2 -295 -6
-455 -8 -159 -2 -643 -9 -1075 -15 -432 -5 -812 -12 -844 -15 -63 -5 -76 -14
-76 -58 0 -15 -4 -30 -10 -33 -6 -4 -7 11 -4 39 l7 46 -265 0 c-146 0 -299 -3
-341 -6 l-77 -7 0 -221 0 -221 128 1 c362 4 563 5 826 4 158 0 291 2 295 4 3
2 170 7 371 10 201 4 392 9 425 11 33 2 416 9 850 15 435 5 932 15 1105 20
173 5 376 10 450 10 174 0 618 8 1135 20 226 5 610 12 855 15 245 3 659 10
920 15 261 5 484 8 495 7 11 -1 121 1 245 5 124 4 412 10 640 13 228 3 491 8
584 12 l169 6 -6 -39 -6 -39 13 35 13 35 143 3 c82 1 148 -2 153 -7 5 -5 6
-22 2 -38 l-7 -28 -14 28 c-21 39 -26 33 -8 -9 13 -30 13 -42 3 -66 l-12 -29
-24 36 c-34 50 -40 43 -8 -10 36 -63 27 -76 -18 -26 -20 23 -40 41 -44 41 -4
0 5 -12 19 -28 14 -15 33 -40 43 -57 9 -17 -12 1 -49 40 -36 39 -66 67 -66 63
0 -5 25 -38 55 -75 30 -38 55 -74 55 -81 0 -15 -3 -13 -70 31 -31 21 -40 24
-27 10 16 -18 16 -21 2 -27 -9 -3 -13 -2 -10 4 3 5 0 7 -9 4 -8 -3 -28 2 -45
11 -58 29 -31 6 35 -31 36 -20 63 -38 61 -41 -3 -2 -29 3 -58 11 -71 22 -85
19 -25 -4 43 -17 78 -19 340 -20 l291 0 0 60 c1 33 6 65 13 72 9 9 12 95 12
336 l0 324 -92 -2 c-51 -2 -113 -2 -138 0 -42 2 -43 3 -15 10 17 4 78 8 138 9
80 1 107 4 107 14 0 15 -314 18 -535 6z m453 -539 c3 -7 9 -4 18 7 11 15 13
15 14 2 0 -8 -9 -25 -21 -38 -17 -18 -23 -20 -36 -10 -12 10 -16 10 -23 -1 -7
-11 -11 -8 -19 13 -6 15 -13 27 -16 27 -4 0 -3 -5 0 -10 3 -6 0 -13 -8 -16 -9
-3 -18 -17 -22 -31 -4 -16 -11 -23 -21 -19 -11 4 -13 -1 -9 -22 3 -15 2 -21
-1 -14 -3 6 -10 10 -15 7 -5 -4 -6 2 -2 12 3 10 2 14 -2 10 -14 -12 -36 74
-24 89 13 16 182 11 187 -6z m-278 -16 c6 -14 10 -42 9 -62 l-1 -37 -18 50
c-10 28 -19 56 -19 63 -2 22 19 13 29 -14z m38 -20 l2 -39 -15 34 c-18 41 -19
54 -2 49 6 -3 13 -22 15 -44z m-59 -49 c0 -13 -5 -8 -14 15 -18 46 -17 74 0
35 8 -16 14 -39 14 -50z m-3 -123 c-5 -4 -46 113 -46 130 0 8 3 18 7 22 4 4
15 -28 25 -71 9 -43 15 -79 14 -81z m-37 36 c29 -86 26 -102 -8 -43 -21 35
-28 58 -24 78 3 15 7 27 8 27 2 0 13 -28 24 -62z m-39 -68 c14 -25 8 -25 -15
0 -10 11 -13 20 -7 20 6 0 16 -9 22 -20z m-20 -20 c0 -5 -2 -10 -4 -10 -3 0
-8 5 -11 10 -3 6 -1 10 4 10 6 0 11 -4 11 -10z"/>
<path d="M7123 823 c9 -2 25 -2 35 0 9 3 1 5 -18 5 -19 0 -27 -2 -17 -5z"/>
<path d="M7193 823 c9 -2 23 -2 30 0 6 3 -1 5 -18 5 -16 0 -22 -2 -12 -5z"/>
<path d="M8584 791 c5 -8 76 -4 85 5 2 2 -17 4 -43 4 -26 0 -45 -4 -42 -9z"/>
<path d="M8768 793 c7 -3 16 -2 19 1 4 3 -2 6 -13 5 -11 0 -14 -3 -6 -6z"/>
<path d="M8268 783 c12 -2 30 -2 40 0 9 3 -1 5 -23 4 -22 0 -30 -2 -17 -4z"/>
<path d="M8357 783 c18 -2 50 -2 70 0 21 2 7 4 -32 4 -38 0 -55 -2 -38 -4z"/>
<path d="M7800 769 c25 -5 64 -5 90 0 40 8 34 9 -45 9 -79 0 -84 -1 -45 -9z"/>
<path d="M8023 773 c15 -2 37 -2 50 0 12 2 0 4 -28 4 -27 0 -38 -2 -22 -4z"/>
<path d="M7040 760 c-96 -3 -164 -7 -150 -9 32 -4 343 -1 348 3 9 9 -38 11
-198 6z"/>
<path d="M7423 763 c9 -2 25 -2 35 0 9 3 1 5 -18 5 -19 0 -27 -2 -17 -5z"/>
<path d="M3300 750 c-35 -7 -29 -15 15 -22 29 -5 25 -33 -5 -34 -14 0 -34 -5
-45 -12 -19 -11 -18 -12 10 -13 81 -4 163 0 185 9 22 10 20 11 -22 11 -40 1
-48 4 -48 20 0 22 19 31 62 31 17 0 29 2 26 5 -8 9 -141 13 -178 5z m77 -52
c-3 -8 -6 -5 -6 6 -1 11 2 17 5 13 3 -3 4 -12 1 -19z"/>
<path d="M3628 753 c7 -3 16 -2 19 1 4 3 -2 6 -13 5 -11 0 -14 -3 -6 -6z"/>
<path d="M6488 743 c7 -3 16 -2 19 1 4 3 -2 6 -13 5 -11 0 -14 -3 -6 -6z"/>
<path d="M5014 723 c7 -8 297 -5 305 3 2 2 -67 4 -154 4 -87 0 -155 -3 -151
-7z"/>
<path d="M5428 723 c7 -3 16 -2 19 1 4 3 -2 6 -13 5 -11 0 -14 -3 -6 -6z"/>
<path d="M4155 700 c-16 -7 -13 -9 17 -9 20 -1 40 4 43 9 7 12 -32 12 -60 0z"/>
<path d="M4288 703 c7 -3 16 -2 19 1 4 3 -2 6 -13 5 -11 0 -14 -3 -6 -6z"/>
<path d="M4438 703 c6 -2 18 -2 25 0 6 3 1 5 -13 5 -14 0 -19 -2 -12 -5z"/>
<path d="M4538 703 c7 -3 16 -2 19 1 4 3 -2 6 -13 5 -11 0 -14 -3 -6 -6z"/>
<path d="M3968 693 c18 -2 45 -2 60 0 15 2 0 4 -33 4 -33 0 -45 -2 -27 -4z"/>
<path d="M4073 693 c9 -2 23 -2 30 0 6 3 -1 5 -18 5 -16 0 -22 -2 -12 -5z"/>
<path d="M88 683 c12 -2 30 -2 40 0 9 3 -1 5 -23 4 -22 0 -30 -2 -17 -4z"/>
<path d="M3668 683 c12 -2 32 -2 45 0 12 2 2 4 -23 4 -25 0 -35 -2 -22 -4z"/>
<path d="M2378 663 c12 -2 32 -2 45 0 12 2 2 4 -23 4 -25 0 -35 -2 -22 -4z"/>
<path d="M2598 663 c18 -2 45 -2 60 0 15 2 0 4 -33 4 -33 0 -45 -2 -27 -4z"/>
<path d="M880 640 c-18 -6 -9 -8 35 -8 44 0 53 2 35 8 -14 4 -29 8 -35 8 -5 0
-21 -4 -35 -8z"/>
<path d="M768 633 c7 -3 16 -2 19 1 4 3 -2 6 -13 5 -11 0 -14 -3 -6 -6z"/>
<path d="M90 620 c0 -12 37 -12 65 0 15 7 10 9 -22 9 -24 1 -43 -3 -43 -9z"/>
<path d="M9461 179 c-7 -22 -10 -43 -7 -46 2 -3 10 14 16 37 15 55 7 63 -9 9z"/>
</g>
</svg>
