<svg xmlns="http://www.w3.org/2000/svg" xmlns:xlink="http://www.w3.org/1999/xlink" width="500" zoomAndPan="magnify" viewBox="0 0 375 374.999991" height="500" preserveAspectRatio="xMidYMid meet" version="1.0"><defs><clipPath id="ec85ab02e6"><path d="M 280 271 L 375 271 L 375 367.5 L 280 367.5 Z M 280 271 " clip-rule="nonzero"/></clipPath><clipPath id="8f42cfbce3"><path d="M 0.75 98 L 375 98 L 375 367.5 L 0.75 367.5 Z M 0.75 98 " clip-rule="nonzero"/></clipPath><clipPath id="2a7f90f90c"><path d="M 0.75 20 L 375 20 L 375 106 L 0.75 106 Z M 0.75 20 " clip-rule="nonzero"/></clipPath></defs><rect x="-37.5" width="450" fill="#ffffff" y="-37.499999" height="449.999989" fill-opacity="1"/><rect x="-37.5" width="450" fill="#ffffff" y="-37.499999" height="449.999989" fill-opacity="1"/><path fill="#114f89" d="M 78.226562 161.1875 L 61.625 161.1875 C 59.820312 161.1875 58.359375 159.726562 58.359375 157.921875 C 58.359375 156.117188 59.820312 154.65625 61.625 154.65625 L 78.226562 154.65625 C 80.03125 154.65625 81.492188 156.117188 81.492188 157.921875 C 81.492188 159.726562 80.03125 161.1875 78.226562 161.1875 Z M 78.226562 161.1875 " fill-opacity="1" fill-rule="nonzero"/><path fill="#114f89" d="M 83.480469 179.644531 L 61.625 179.644531 C 59.820312 179.644531 58.359375 178.183594 58.359375 176.378906 L 58.359375 139.464844 C 58.359375 137.664062 59.820312 136.199219 61.625 136.199219 L 83.480469 136.199219 C 85.285156 136.199219 86.746094 137.664062 86.746094 139.464844 C 86.746094 141.269531 85.285156 142.734375 83.480469 142.734375 L 64.890625 142.734375 L 64.890625 173.113281 L 83.480469 173.113281 C 85.285156 173.113281 86.746094 174.574219 86.746094 176.378906 C 86.746094 178.183594 85.285156 179.644531 83.480469 179.644531 Z M 83.480469 179.644531 " fill-opacity="1" fill-rule="nonzero"/><path fill="#114f89" d="M 167.570312 161.1875 L 150.96875 161.1875 C 149.164062 161.1875 147.699219 159.726562 147.699219 157.921875 C 147.699219 156.117188 149.164062 154.65625 150.96875 154.65625 L 167.570312 154.65625 C 169.375 154.65625 170.835938 156.117188 170.835938 157.921875 C 170.835938 159.726562 169.375 161.1875 167.570312 161.1875 Z M 167.570312 161.1875 " fill-opacity="1" fill-rule="nonzero"/><path fill="#114f89" d="M 172.824219 179.644531 L 150.96875 179.644531 C 149.164062 179.644531 147.699219 178.183594 147.699219 176.378906 L 147.699219 139.464844 C 147.699219 137.664062 149.164062 136.199219 150.96875 136.199219 L 172.824219 136.199219 C 174.628906 136.199219 176.089844 137.664062 176.089844 139.464844 C 176.089844 141.269531 174.628906 142.734375 172.824219 142.734375 L 154.234375 142.734375 L 154.234375 173.113281 L 172.824219 173.113281 C 174.628906 173.113281 176.089844 174.574219 176.089844 176.378906 C 176.089844 178.183594 174.628906 179.644531 172.824219 179.644531 Z M 172.824219 179.644531 " fill-opacity="1" fill-rule="nonzero"/><path fill="#114f89" d="M 222.285156 179.644531 C 220.480469 179.644531 219.019531 178.183594 219.019531 176.378906 L 219.019531 139.464844 C 219.019531 137.664062 220.480469 136.199219 222.285156 136.199219 C 224.089844 136.199219 225.550781 137.664062 225.550781 139.464844 L 225.550781 176.378906 C 225.550781 178.183594 224.089844 179.644531 222.285156 179.644531 Z M 222.285156 179.644531 " fill-opacity="1" fill-rule="nonzero"/><path fill="#114f89" d="M 222.285156 179.644531 C 221.28125 179.644531 220.289062 179.183594 219.648438 178.308594 L 198.519531 149.457031 L 198.519531 176.378906 C 198.519531 178.183594 197.058594 179.644531 195.253906 179.644531 C 193.449219 179.644531 191.988281 178.183594 191.988281 176.378906 L 191.988281 139.464844 C 191.988281 138.054688 192.894531 136.800781 194.238281 136.363281 C 195.578125 135.921875 197.054688 136.398438 197.890625 137.539062 L 224.917969 174.449219 C 225.984375 175.902344 225.667969 177.949219 224.214844 179.011719 C 223.632812 179.441406 222.957031 179.644531 222.285156 179.644531 Z M 222.285156 179.644531 " fill-opacity="1" fill-rule="nonzero"/><path fill="#114f89" d="M 308.382812 179.644531 L 303.539062 179.644531 C 296.652344 179.644531 291.046875 174.039062 291.046875 167.152344 C 291.046875 165.347656 292.507812 163.882812 294.3125 163.882812 C 296.117188 163.882812 297.578125 165.347656 297.578125 167.152344 C 297.578125 170.4375 300.253906 173.113281 303.539062 173.113281 L 308.382812 173.113281 C 311.667969 173.113281 314.34375 170.4375 314.34375 167.152344 C 314.34375 163.863281 311.667969 161.1875 308.382812 161.1875 L 303.539062 161.1875 C 296.652344 161.1875 291.046875 155.585938 291.046875 148.695312 C 291.046875 141.804688 296.648438 136.199219 303.539062 136.199219 L 308.382812 136.199219 C 315.269531 136.199219 320.875 141.804688 320.875 148.695312 C 320.875 150.5 319.414062 151.960938 317.609375 151.960938 C 315.804688 151.960938 314.34375 150.5 314.34375 148.695312 C 314.34375 145.40625 311.667969 142.734375 308.382812 142.734375 L 303.539062 142.734375 C 300.253906 142.734375 297.578125 145.40625 297.578125 148.695312 C 297.578125 151.980469 300.253906 154.65625 303.539062 154.65625 L 308.382812 154.65625 C 315.269531 154.65625 320.875 160.261719 320.875 167.152344 C 320.875 174.039062 315.273438 179.644531 308.382812 179.644531 Z M 308.382812 179.644531 " fill-opacity="1" fill-rule="nonzero"/><path fill="#114f89" d="M 259.832031 179.644531 C 258.027344 179.644531 256.566406 178.183594 256.566406 176.378906 L 256.566406 139.464844 C 256.566406 137.664062 258.027344 136.199219 259.832031 136.199219 C 261.636719 136.199219 263.097656 137.664062 263.097656 139.464844 L 263.097656 176.378906 C 263.097656 178.183594 261.636719 179.644531 259.832031 179.644531 Z M 259.832031 179.644531 " fill-opacity="1" fill-rule="nonzero"/><path fill="#114f89" d="M 275.21875 142.734375 L 244.445312 142.734375 C 242.640625 142.734375 241.179688 141.269531 241.179688 139.464844 C 241.179688 137.664062 242.640625 136.199219 244.445312 136.199219 L 275.21875 136.199219 C 277.023438 136.199219 278.484375 137.664062 278.484375 139.464844 C 278.484375 141.269531 277.023438 142.734375 275.21875 142.734375 Z M 275.21875 142.734375 " fill-opacity="1" fill-rule="nonzero"/><path fill="#114f89" d="M 117.457031 179.644531 C 116.085938 179.644531 114.859375 178.789062 114.390625 177.5 L 100.875 140.589844 C 100.253906 138.894531 101.125 137.019531 102.816406 136.398438 C 104.511719 135.777344 106.386719 136.648438 107.007812 138.34375 L 117.457031 166.878906 L 127.902344 138.34375 C 128.523438 136.648438 130.398438 135.777344 132.09375 136.398438 C 133.789062 137.019531 134.660156 138.894531 134.039062 140.589844 L 120.523438 177.5 C 120.050781 178.789062 118.828125 179.644531 117.457031 179.644531 Z M 117.457031 179.644531 " fill-opacity="1" fill-rule="nonzero"/><g clip-path="url(#ec85ab02e6)"><path fill="#114f89" d="M 283.5 367.613281 C 283.074219 367.613281 282.644531 367.53125 282.234375 367.359375 C 281.023438 366.851562 280.230469 365.664062 280.230469 364.347656 L 280.230469 307.734375 C 280.230469 287.507812 296.6875 271.050781 316.914062 271.050781 L 375.128906 271.050781 C 376.453125 271.050781 377.648438 271.855469 378.152344 273.082031 C 378.652344 274.308594 378.363281 275.71875 377.417969 276.648438 L 285.789062 366.675781 C 285.164062 367.289062 284.339844 367.613281 283.496094 367.613281 Z M 316.914062 277.585938 C 300.289062 277.585938 286.765625 291.109375 286.765625 307.734375 L 286.765625 356.558594 L 367.144531 277.585938 Z M 316.914062 277.585938 " fill-opacity="1" fill-rule="nonzero"/></g><g clip-path="url(#8f42cfbce3)"><path fill="#114f89" d="M 283.5 367.613281 L 37.519531 367.613281 C 17.292969 367.613281 0.839844 351.15625 0.839844 330.929688 L 0.839844 101.910156 C 0.839844 100.109375 2.300781 98.644531 4.105469 98.644531 L 375.128906 98.644531 C 376.933594 98.644531 378.394531 100.109375 378.394531 101.910156 L 378.394531 274.320312 C 378.394531 276.121094 376.933594 277.585938 375.128906 277.585938 L 316.914062 277.585938 C 300.289062 277.585938 286.765625 291.109375 286.765625 307.734375 L 286.765625 364.347656 C 286.765625 366.152344 285.304688 367.613281 283.5 367.613281 Z M 7.371094 105.179688 L 7.371094 330.929688 C 7.371094 347.554688 20.898438 361.082031 37.523438 361.082031 L 280.234375 361.082031 L 280.234375 307.734375 C 280.234375 287.507812 296.6875 271.050781 316.914062 271.050781 L 371.863281 271.050781 L 371.863281 105.179688 Z M 7.371094 105.179688 " fill-opacity="1" fill-rule="nonzero"/></g><path fill="#114f89" d="M 60.828125 46.921875 L 54.523438 46.921875 C 48.488281 46.921875 43.578125 42.011719 43.578125 35.976562 L 43.578125 10.960938 C 43.578125 4.925781 48.488281 0.015625 54.523438 0.015625 L 60.828125 0.015625 C 66.863281 0.015625 71.773438 4.925781 71.773438 10.960938 L 71.773438 35.976562 C 71.773438 42.011719 66.863281 46.921875 60.828125 46.921875 Z M 54.523438 6.550781 C 52.089844 6.550781 50.109375 8.53125 50.109375 10.960938 L 50.109375 35.976562 C 50.109375 38.40625 52.089844 40.386719 54.523438 40.386719 L 60.828125 40.386719 C 63.261719 40.386719 65.242188 38.40625 65.242188 35.976562 L 65.242188 10.960938 C 65.242188 8.53125 63.261719 6.550781 60.828125 6.550781 Z M 54.523438 6.550781 " fill-opacity="1" fill-rule="nonzero"/><path fill="#114f89" d="M 126.796875 46.921875 L 120.492188 46.921875 C 114.460938 46.921875 109.550781 42.011719 109.550781 35.976562 L 109.550781 10.960938 C 109.550781 4.925781 114.457031 0.015625 120.492188 0.015625 L 126.796875 0.015625 C 132.832031 0.015625 137.742188 4.925781 137.742188 10.960938 L 137.742188 35.976562 C 137.742188 42.011719 132.832031 46.921875 126.796875 46.921875 Z M 120.492188 6.550781 C 118.0625 6.550781 116.082031 8.53125 116.082031 10.960938 L 116.082031 35.976562 C 116.082031 38.40625 118.0625 40.386719 120.492188 40.386719 L 126.796875 40.386719 C 129.230469 40.386719 131.210938 38.40625 131.210938 35.976562 L 131.210938 10.960938 C 131.210938 8.53125 129.230469 6.550781 126.796875 6.550781 Z M 120.492188 6.550781 " fill-opacity="1" fill-rule="nonzero"/><path fill="#114f89" d="M 192.769531 46.921875 L 186.464844 46.921875 C 180.429688 46.921875 175.519531 42.011719 175.519531 35.976562 L 175.519531 10.960938 C 175.519531 4.925781 180.429688 0.015625 186.464844 0.015625 L 192.769531 0.015625 C 198.804688 0.015625 203.714844 4.925781 203.714844 10.960938 L 203.714844 35.976562 C 203.714844 42.011719 198.804688 46.921875 192.769531 46.921875 Z M 186.464844 6.550781 C 184.03125 6.550781 182.050781 8.53125 182.050781 10.960938 L 182.050781 35.976562 C 182.050781 38.40625 184.03125 40.386719 186.464844 40.386719 L 192.769531 40.386719 C 195.203125 40.386719 197.183594 38.40625 197.183594 35.976562 L 197.183594 10.960938 C 197.183594 8.53125 195.203125 6.550781 192.769531 6.550781 Z M 186.464844 6.550781 " fill-opacity="1" fill-rule="nonzero"/><path fill="#114f89" d="M 258.742188 46.921875 L 252.4375 46.921875 C 246.402344 46.921875 241.492188 42.011719 241.492188 35.976562 L 241.492188 10.960938 C 241.492188 4.925781 246.402344 0.015625 252.4375 0.015625 L 258.742188 0.015625 C 264.777344 0.015625 269.683594 4.925781 269.683594 10.960938 L 269.683594 35.976562 C 269.683594 42.011719 264.777344 46.921875 258.742188 46.921875 Z M 252.4375 6.550781 C 250.003906 6.550781 248.023438 8.53125 248.023438 10.960938 L 248.023438 35.976562 C 248.023438 38.40625 250.003906 40.386719 252.4375 40.386719 L 258.742188 40.386719 C 261.171875 40.386719 263.152344 38.40625 263.152344 35.976562 L 263.152344 10.960938 C 263.152344 8.53125 261.171875 6.550781 258.742188 6.550781 Z M 252.4375 6.550781 " fill-opacity="1" fill-rule="nonzero"/><path fill="#114f89" d="M 324.710938 46.921875 L 318.40625 46.921875 C 312.371094 46.921875 307.460938 42.011719 307.460938 35.976562 L 307.460938 10.960938 C 307.460938 4.925781 312.371094 0.015625 318.40625 0.015625 L 324.710938 0.015625 C 330.746094 0.015625 335.65625 4.925781 335.65625 10.960938 L 335.65625 35.976562 C 335.65625 42.011719 330.746094 46.921875 324.710938 46.921875 Z M 318.40625 6.550781 C 315.972656 6.550781 313.996094 8.53125 313.996094 10.960938 L 313.996094 35.976562 C 313.996094 38.40625 315.972656 40.386719 318.40625 40.386719 L 324.710938 40.386719 C 327.144531 40.386719 329.125 38.40625 329.125 35.976562 L 329.125 10.960938 C 329.125 8.53125 327.144531 6.550781 324.710938 6.550781 Z M 318.40625 6.550781 " fill-opacity="1" fill-rule="nonzero"/><g clip-path="url(#2a7f90f90c)"><path fill="#114f89" d="M 375.128906 105.179688 L 4.105469 105.179688 C 2.300781 105.179688 0.839844 103.714844 0.839844 101.910156 L 0.839844 57.304688 C 0.839844 37.078125 17.292969 20.621094 37.523438 20.621094 L 46.84375 20.621094 C 48.648438 20.621094 50.109375 22.082031 50.109375 23.886719 L 50.109375 35.976562 C 50.109375 38.40625 52.089844 40.386719 54.523438 40.386719 L 60.828125 40.386719 C 63.261719 40.386719 65.242188 38.40625 65.242188 35.976562 L 65.242188 23.886719 C 65.242188 22.082031 66.703125 20.621094 68.507812 20.621094 L 112.816406 20.621094 C 114.621094 20.621094 116.082031 22.082031 116.082031 23.886719 L 116.082031 35.976562 C 116.082031 38.40625 118.0625 40.386719 120.496094 40.386719 L 126.800781 40.386719 C 129.230469 40.386719 131.210938 38.40625 131.210938 35.976562 L 131.210938 23.886719 C 131.210938 22.082031 132.671875 20.621094 134.476562 20.621094 L 178.785156 20.621094 C 180.589844 20.621094 182.054688 22.082031 182.054688 23.886719 L 182.054688 35.976562 C 182.054688 38.40625 184.03125 40.386719 186.464844 40.386719 L 192.769531 40.386719 C 195.203125 40.386719 197.183594 38.40625 197.183594 35.976562 L 197.183594 23.886719 C 197.183594 22.082031 198.644531 20.621094 200.449219 20.621094 L 244.757812 20.621094 C 246.5625 20.621094 248.023438 22.082031 248.023438 23.886719 L 248.023438 35.976562 C 248.023438 38.40625 250.003906 40.386719 252.4375 40.386719 L 258.742188 40.386719 C 261.175781 40.386719 263.152344 38.40625 263.152344 35.976562 L 263.152344 23.886719 C 263.152344 22.082031 264.617188 20.621094 266.417969 20.621094 L 310.730469 20.621094 C 312.53125 20.621094 313.996094 22.082031 313.996094 23.886719 L 313.996094 35.976562 C 313.996094 38.40625 315.972656 40.386719 318.40625 40.386719 L 324.710938 40.386719 C 327.144531 40.386719 329.125 38.40625 329.125 35.976562 L 329.125 23.886719 C 329.125 22.082031 330.585938 20.621094 332.390625 20.621094 L 341.714844 20.621094 C 361.941406 20.621094 378.394531 37.078125 378.394531 57.304688 L 378.394531 101.910156 C 378.394531 103.714844 376.933594 105.175781 375.128906 105.175781 Z M 7.371094 98.644531 L 371.863281 98.644531 L 371.863281 57.304688 C 371.863281 40.679688 358.335938 27.152344 341.710938 27.152344 L 335.65625 27.152344 L 335.65625 35.976562 C 335.65625 42.011719 330.746094 46.921875 324.710938 46.921875 L 318.40625 46.921875 C 312.371094 46.921875 307.460938 42.011719 307.460938 35.976562 L 307.460938 27.152344 L 269.683594 27.152344 L 269.683594 35.976562 C 269.683594 42.011719 264.777344 46.921875 258.742188 46.921875 L 252.4375 46.921875 C 246.402344 46.921875 241.492188 42.011719 241.492188 35.976562 L 241.492188 27.152344 L 203.714844 27.152344 L 203.714844 35.976562 C 203.714844 42.011719 198.804688 46.921875 192.769531 46.921875 L 186.464844 46.921875 C 180.429688 46.921875 175.519531 42.011719 175.519531 35.976562 L 175.519531 27.152344 L 137.742188 27.152344 L 137.742188 35.976562 C 137.742188 42.011719 132.832031 46.921875 126.796875 46.921875 L 120.492188 46.921875 C 114.457031 46.921875 109.546875 42.011719 109.546875 35.976562 L 109.546875 27.152344 L 71.773438 27.152344 L 71.773438 35.976562 C 71.773438 42.011719 66.863281 46.921875 60.828125 46.921875 L 54.523438 46.921875 C 48.488281 46.921875 43.578125 42.011719 43.578125 35.976562 L 43.578125 27.152344 L 37.519531 27.152344 C 20.894531 27.152344 7.371094 40.679688 7.371094 57.304688 Z M 7.371094 98.644531 " fill-opacity="1" fill-rule="nonzero"/></g><path fill="#114f89" d="M 98.050781 254.996094 L 63.601562 254.996094 C 61.796875 254.996094 60.335938 253.535156 60.335938 251.730469 L 60.335938 217.277344 C 60.335938 215.476562 61.796875 214.011719 63.601562 214.011719 L 98.050781 214.011719 C 99.855469 214.011719 101.320312 215.476562 101.320312 217.277344 L 101.320312 251.730469 C 101.320312 253.535156 99.855469 254.996094 98.050781 254.996094 Z M 66.867188 248.464844 L 94.785156 248.464844 L 94.785156 220.546875 L 66.867188 220.546875 Z M 66.867188 248.464844 " fill-opacity="1" fill-rule="nonzero"/><path fill="#114f89" d="M 170.578125 254.996094 L 136.128906 254.996094 C 134.324219 254.996094 132.859375 253.535156 132.859375 251.730469 L 132.859375 217.277344 C 132.859375 215.476562 134.324219 214.011719 136.128906 214.011719 L 170.578125 214.011719 C 172.382812 214.011719 173.84375 215.476562 173.84375 217.277344 L 173.84375 251.730469 C 173.84375 253.535156 172.382812 254.996094 170.578125 254.996094 Z M 139.394531 248.464844 L 167.3125 248.464844 L 167.3125 220.546875 L 139.394531 220.546875 Z M 139.394531 248.464844 " fill-opacity="1" fill-rule="nonzero"/><path fill="#114f89" d="M 243.105469 254.996094 L 208.65625 254.996094 C 206.851562 254.996094 205.386719 253.535156 205.386719 251.730469 L 205.386719 217.277344 C 205.386719 215.476562 206.851562 214.011719 208.65625 214.011719 L 243.105469 214.011719 C 244.910156 214.011719 246.371094 215.476562 246.371094 217.277344 L 246.371094 251.730469 C 246.371094 253.535156 244.910156 254.996094 243.105469 254.996094 Z M 211.921875 248.464844 L 239.839844 248.464844 L 239.839844 220.546875 L 211.921875 220.546875 Z M 211.921875 248.464844 " fill-opacity="1" fill-rule="nonzero"/><path fill="#114f89" d="M 315.632812 254.996094 L 281.183594 254.996094 C 279.378906 254.996094 277.914062 253.535156 277.914062 251.730469 L 277.914062 217.277344 C 277.914062 215.476562 279.378906 214.011719 281.183594 214.011719 L 315.632812 214.011719 C 317.4375 214.011719 318.898438 215.476562 318.898438 217.277344 L 318.898438 251.730469 C 318.898438 253.535156 317.4375 254.996094 315.632812 254.996094 Z M 284.449219 248.464844 L 312.367188 248.464844 L 312.367188 220.546875 L 284.449219 220.546875 Z M 284.449219 248.464844 " fill-opacity="1" fill-rule="nonzero"/><path fill="#114f89" d="M 98.050781 322.597656 L 63.601562 322.597656 C 61.796875 322.597656 60.335938 321.136719 60.335938 319.332031 L 60.335938 284.878906 C 60.335938 283.078125 61.796875 281.613281 63.601562 281.613281 L 98.050781 281.613281 C 99.855469 281.613281 101.320312 283.078125 101.320312 284.878906 L 101.320312 319.332031 C 101.320312 321.136719 99.855469 322.597656 98.050781 322.597656 Z M 66.867188 316.066406 L 94.785156 316.066406 L 94.785156 288.144531 L 66.867188 288.144531 Z M 66.867188 316.066406 " fill-opacity="1" fill-rule="nonzero"/><path fill="#114f89" d="M 170.578125 322.597656 L 136.128906 322.597656 C 134.324219 322.597656 132.859375 321.136719 132.859375 319.332031 L 132.859375 284.878906 C 132.859375 283.078125 134.324219 281.613281 136.128906 281.613281 L 170.578125 281.613281 C 172.382812 281.613281 173.84375 283.078125 173.84375 284.878906 L 173.84375 319.332031 C 173.84375 321.136719 172.382812 322.597656 170.578125 322.597656 Z M 139.394531 316.066406 L 167.3125 316.066406 L 167.3125 288.144531 L 139.394531 288.144531 Z M 139.394531 316.066406 " fill-opacity="1" fill-rule="nonzero"/><path fill="#114f89" d="M 238.90625 323.304688 C 238.386719 323.304688 237.867188 323.179688 237.386719 322.929688 L 225.878906 316.878906 L 214.375 322.929688 C 213.273438 323.507812 211.941406 323.410156 210.933594 322.679688 C 209.925781 321.949219 209.421875 320.710938 209.632812 319.484375 L 211.832031 306.671875 L 202.523438 297.597656 C 201.632812 296.730469 201.3125 295.429688 201.695312 294.25 C 202.078125 293.066406 203.101562 292.203125 204.332031 292.023438 L 217.199219 290.15625 L 222.953125 278.496094 C 223.5 277.382812 224.636719 276.675781 225.878906 276.675781 C 227.125 276.675781 228.257812 277.382812 228.808594 278.496094 L 234.5625 290.15625 L 247.429688 292.023438 C 248.660156 292.203125 249.679688 293.066406 250.066406 294.25 C 250.449219 295.429688 250.128906 296.730469 249.238281 297.597656 L 239.929688 306.671875 L 242.128906 319.484375 C 242.335938 320.710938 241.832031 321.949219 240.828125 322.679688 C 240.257812 323.09375 239.585938 323.304688 238.90625 323.304688 Z M 225.878906 309.921875 C 226.402344 309.921875 226.925781 310.046875 227.402344 310.296875 L 234.570312 314.066406 L 233.199219 306.082031 C 233.019531 305.023438 233.371094 303.941406 234.140625 303.191406 L 239.941406 297.539062 L 231.925781 296.375 C 230.859375 296.21875 229.941406 295.550781 229.464844 294.585938 L 225.878906 287.324219 L 222.296875 294.585938 C 221.820312 295.550781 220.902344 296.21875 219.835938 296.375 L 211.820312 297.539062 L 217.621094 303.191406 C 218.390625 303.941406 218.742188 305.023438 218.558594 306.082031 L 217.191406 314.066406 L 224.359375 310.296875 C 224.835938 310.046875 225.359375 309.921875 225.878906 309.921875 Z M 225.878906 309.921875 " fill-opacity="1" fill-rule="nonzero"/></svg>