<svg xmlns="http://www.w3.org/2000/svg" xmlns:xlink="http://www.w3.org/1999/xlink" width="500" zoomAndPan="magnify" viewBox="0 0 375 374.999991" height="500" preserveAspectRatio="xMidYMid meet" version="1.2"><defs><clipPath id="a13f188ce0"><path d="M 136.289062 84.03125 L 235.289062 84.03125 L 235.289062 234 L 136.289062 234 Z M 136.289062 84.03125 "/></clipPath><clipPath id="121479e753"><path d="M 293.429688 78.765625 L 358.046875 78.765625 L 358.046875 131.160156 L 293.429688 131.160156 Z M 293.429688 78.765625 "/></clipPath><clipPath id="26ecad3dd5"><path d="M 240.449219 78.765625 L 358 78.765625 L 358 180.007812 L 240.449219 180.007812 Z M 240.449219 78.765625 "/></clipPath><clipPath id="eec8e88877"><rect x="0" width="346" y="0" height="45"/></clipPath><clipPath id="305ef4ff5a"><path d="M 13.246094 78.757812 L 130.996094 78.757812 L 130.996094 180.007812 L 13.246094 180.007812 Z M 13.246094 78.757812 "/></clipPath><clipPath id="2706a2e522"><path d="M 0.246094 0.765625 L 64.859375 0.765625 L 64.859375 53.160156 L 0.246094 53.160156 Z M 0.246094 0.765625 "/></clipPath><clipPath id="b47c4aaa97"><path d="M 0.246094 0.765625 L 117.84375 0.765625 L 117.84375 102.007812 L 0.246094 102.007812 Z M 0.246094 0.765625 "/></clipPath><clipPath id="9bbbb82b88"><rect x="0" width="118" y="0" height="103"/></clipPath></defs><g id="16e655427a"><rect x="0" width="375" y="0" height="374.999991" style="fill:#ffffff;fill-opacity:1;stroke:none;"/><rect x="0" width="375" y="0" height="374.999991" style="fill:#ffffff;fill-opacity:1;stroke:none;"/><g clip-rule="nonzero" clip-path="url(#a13f188ce0)"><path style=" stroke:none;fill-rule:nonzero;fill:#46b07d;fill-opacity:1;" d="M 185.644531 84.898438 C 158.371094 84.898438 136.257812 107.011719 136.257812 134.296875 C 136.257812 161.570312 185.644531 233.0625 185.644531 233.0625 C 185.644531 233.0625 235.035156 161.570312 235.035156 134.296875 C 235.035156 107.011719 212.917969 84.898438 185.644531 84.898438 Z M 185.644531 157.679688 C 171.289062 157.679688 159.652344 146.054688 159.652344 131.683594 C 159.652344 117.339844 171.289062 105.699219 185.644531 105.699219 C 200 105.699219 211.628906 117.339844 211.628906 131.683594 C 211.628906 146.054688 200 157.679688 185.644531 157.679688 Z M 185.644531 157.679688 "/></g><path style=" stroke:none;fill-rule:nonzero;fill:#123c63;fill-opacity:1;" d="M 249.605469 177.167969 C 249.605469 177.167969 249.734375 176.980469 249.980469 176.628906 C 250.042969 176.542969 250.109375 176.445312 250.1875 176.335938 C 250.273438 176.234375 250.367188 176.121094 250.464844 176.003906 C 250.570312 175.878906 250.679688 175.75 250.796875 175.609375 C 250.910156 175.464844 251.054688 175.339844 251.195312 175.191406 C 251.339844 175.046875 251.492188 174.894531 251.652344 174.734375 C 251.816406 174.578125 252.003906 174.429688 252.191406 174.269531 C 252.382812 174.109375 252.570312 173.929688 252.792969 173.777344 C 253.011719 173.621094 253.242188 173.460938 253.476562 173.292969 C 253.597656 173.214844 253.714844 173.121094 253.84375 173.046875 C 253.972656 172.972656 254.101562 172.898438 254.234375 172.820312 C 254.503906 172.667969 254.777344 172.503906 255.066406 172.347656 C 255.359375 172.207031 255.664062 172.070312 255.980469 171.929688 C 256.136719 171.859375 256.292969 171.78125 256.457031 171.714844 C 256.621094 171.65625 256.789062 171.59375 256.957031 171.535156 C 257.292969 171.410156 257.644531 171.285156 258 171.171875 C 258.363281 171.078125 258.730469 170.980469 259.105469 170.882812 C 259.296875 170.835938 259.484375 170.78125 259.679688 170.742188 C 259.871094 170.707031 260.066406 170.675781 260.265625 170.640625 C 260.660156 170.578125 261.0625 170.511719 261.46875 170.445312 C 263.105469 170.28125 264.851562 170.195312 266.621094 170.355469 C 267.066406 170.390625 267.515625 170.421875 267.964844 170.464844 C 268.410156 170.53125 268.859375 170.601562 269.308594 170.667969 C 269.535156 170.703125 269.761719 170.738281 269.988281 170.773438 C 270.214844 170.808594 270.445312 170.835938 270.667969 170.890625 C 271.113281 170.992188 271.5625 171.09375 272.015625 171.195312 C 272.242188 171.25 272.46875 171.300781 272.695312 171.351562 C 272.921875 171.402344 273.148438 171.457031 273.371094 171.523438 C 273.816406 171.652344 274.261719 171.78125 274.707031 171.917969 C 275.140625 172.046875 275.578125 172.179688 276.011719 172.308594 L 277.304688 172.71875 C 277.523438 172.792969 277.71875 172.84375 277.925781 172.902344 L 278.539062 173.078125 C 278.941406 173.199219 279.363281 173.304688 279.78125 173.414062 C 280.199219 173.523438 280.613281 173.628906 281.03125 173.722656 C 281.449219 173.816406 281.863281 173.925781 282.285156 174.003906 C 283.117188 174.175781 283.949219 174.320312 284.769531 174.460938 C 285.183594 174.519531 285.59375 174.582031 286 174.636719 C 286.410156 174.6875 286.816406 174.734375 287.21875 174.785156 C 288.832031 174.953125 290.398438 175.039062 291.890625 175.039062 C 292.265625 175.046875 292.632812 175.03125 292.996094 175.03125 C 293.359375 175.023438 293.714844 175 294.070312 174.992188 C 294.421875 174.976562 294.765625 174.949219 295.105469 174.929688 C 295.445312 174.902344 295.78125 174.875 296.109375 174.84375 C 297.414062 174.722656 298.613281 174.535156 299.675781 174.332031 C 300.734375 174.132812 301.65625 173.90625 302.414062 173.699219 C 303.925781 173.28125 304.777344 172.929688 304.777344 172.929688 C 304.777344 172.929688 304.734375 172.96875 304.652344 173.042969 C 304.566406 173.113281 304.441406 173.222656 304.269531 173.355469 C 303.929688 173.621094 303.417969 173.996094 302.722656 174.414062 C 302.035156 174.835938 301.164062 175.304688 300.125 175.765625 C 299.089844 176.226562 297.882812 176.675781 296.53125 177.058594 C 296.195312 177.152344 295.847656 177.246094 295.492188 177.332031 C 295.136719 177.410156 294.773438 177.5 294.402344 177.578125 C 293.660156 177.730469 292.882812 177.855469 292.082031 177.964844 C 290.480469 178.167969 288.769531 178.265625 287.003906 178.226562 C 286.5625 178.210938 286.117188 178.203125 285.671875 178.179688 C 285.222656 178.144531 284.773438 178.109375 284.320312 178.074219 C 283.871094 178.023438 283.414062 177.972656 282.957031 177.921875 C 282.503906 177.863281 282.050781 177.78125 281.59375 177.710938 C 281.132812 177.648438 280.679688 177.546875 280.222656 177.460938 C 279.996094 177.414062 279.761719 177.378906 279.535156 177.324219 L 278.855469 177.164062 C 278.398438 177.054688 277.945312 176.953125 277.484375 176.816406 L 276.796875 176.621094 C 276.566406 176.554688 276.324219 176.496094 276.117188 176.421875 C 275.261719 176.148438 274.40625 175.875 273.554688 175.601562 C 273.144531 175.46875 272.734375 175.335938 272.324219 175.199219 C 272.121094 175.125 271.914062 175.070312 271.707031 175.015625 C 271.5 174.960938 271.296875 174.90625 271.089844 174.851562 C 270.679688 174.738281 270.269531 174.628906 269.863281 174.515625 C 269.660156 174.453125 269.457031 174.417969 269.25 174.371094 C 269.046875 174.324219 268.84375 174.28125 268.644531 174.238281 C 268.238281 174.148438 267.832031 174.058594 267.433594 173.96875 C 267.03125 173.910156 266.632812 173.839844 266.238281 173.773438 C 266.039062 173.742188 265.84375 173.707031 265.644531 173.675781 C 265.546875 173.660156 265.449219 173.640625 265.351562 173.628906 L 265.058594 173.601562 C 264.667969 173.566406 264.28125 173.523438 263.898438 173.476562 C 263.707031 173.460938 263.515625 173.425781 263.328125 173.425781 C 263.136719 173.417969 262.949219 173.410156 262.761719 173.402344 C 262.386719 173.390625 262.015625 173.375 261.652344 173.355469 C 261.289062 173.367188 260.925781 173.375 260.574219 173.386719 C 260.394531 173.390625 260.21875 173.394531 260.042969 173.398438 C 259.871094 173.414062 259.699219 173.429688 259.527344 173.445312 C 259.1875 173.476562 258.847656 173.507812 258.519531 173.535156 C 258.191406 173.589844 257.871094 173.644531 257.554688 173.695312 C 257.398438 173.722656 257.242188 173.746094 257.085938 173.769531 C 256.933594 173.800781 256.785156 173.84375 256.636719 173.878906 C 256.339844 173.953125 256.046875 174.027344 255.757812 174.089844 C 255.476562 174.171875 255.207031 174.265625 254.941406 174.347656 C 254.808594 174.390625 254.675781 174.433594 254.546875 174.476562 C 254.417969 174.515625 254.296875 174.574219 254.171875 174.617188 C 253.925781 174.71875 253.6875 174.8125 253.457031 174.90625 C 253.339844 174.949219 253.234375 175.003906 253.125 175.058594 C 253.015625 175.109375 252.910156 175.160156 252.804688 175.210938 C 252.597656 175.3125 252.390625 175.398438 252.207031 175.503906 C 252.019531 175.609375 251.84375 175.707031 251.675781 175.804688 C 251.328125 175.988281 251.046875 176.183594 250.789062 176.347656 C 250.660156 176.429688 250.539062 176.503906 250.429688 176.574219 C 250.324219 176.652344 250.226562 176.722656 250.140625 176.789062 C 249.789062 177.035156 249.605469 177.167969 249.605469 177.167969 "/><path style=" stroke:none;fill-rule:nonzero;fill:#123c63;fill-opacity:1;" d="M 304.820312 172.902344 C 304.25 172.9375 303.679688 172.957031 303.109375 172.980469 C 302.539062 173 301.972656 173.039062 301.398438 173.019531 C 300.824219 173.015625 300.25 172.996094 299.675781 172.980469 C 299.386719 172.972656 299.097656 172.96875 298.808594 172.949219 L 297.949219 172.886719 C 297.375 172.84375 296.804688 172.792969 296.230469 172.746094 C 295.65625 172.675781 295.085938 172.605469 294.515625 172.527344 L 293.65625 172.410156 L 292.800781 172.261719 C 292.234375 172.160156 291.664062 172.058594 291.09375 171.945312 L 289.398438 171.5625 C 289.117188 171.5 288.835938 171.425781 288.554688 171.347656 L 287.714844 171.117188 C 287.433594 171.042969 287.152344 170.96875 286.875 170.886719 L 286.042969 170.621094 L 285.207031 170.355469 L 283.558594 169.769531 C 283.285156 169.667969 283.011719 169.550781 282.742188 169.445312 C 282.46875 169.332031 282.195312 169.230469 281.925781 169.109375 L 281.117188 168.757812 C 280.847656 168.640625 280.582031 168.511719 280.3125 168.386719 C 280.042969 168.257812 279.777344 168.132812 279.511719 167.992188 C 279.246094 167.851562 278.980469 167.71875 278.714844 167.566406 C 278.582031 167.492188 278.453125 167.425781 278.316406 167.34375 C 278.175781 167.261719 278.054688 167.195312 277.886719 167.085938 L 269.039062 161.46875 L 279.375 163.824219 C 280.328125 164.042969 281.285156 164.257812 282.234375 164.488281 L 285.105469 165.066406 C 286.066406 165.226562 287.023438 165.414062 287.984375 165.558594 L 289.429688 165.757812 L 290.152344 165.863281 C 290.390625 165.894531 290.632812 165.917969 290.875 165.945312 L 292.320312 166.101562 L 292.683594 166.144531 L 293.046875 166.167969 L 293.769531 166.21875 C 294.253906 166.253906 294.738281 166.304688 295.21875 166.328125 L 296.671875 166.390625 C 296.914062 166.398438 297.15625 166.417969 297.394531 166.414062 C 297.636719 166.414062 297.878906 166.417969 298.121094 166.421875 C 298.605469 166.421875 299.089844 166.441406 299.570312 166.433594 C 300.535156 166.40625 301.503906 166.390625 302.46875 166.324219 C 303.433594 166.289062 304.390625 166.171875 305.355469 166.082031 L 306.792969 165.902344 C 307.273438 165.839844 307.746094 165.746094 308.226562 165.671875 C 308.707031 165.605469 309.175781 165.5 309.652344 165.410156 C 309.890625 165.359375 310.128906 165.316406 310.363281 165.265625 L 311.070312 165.097656 L 311.78125 164.933594 L 313.1875 164.558594 L 313.882812 164.34375 L 314.582031 164.136719 L 315.273438 163.902344 C 315.738281 163.75 316.191406 163.574219 316.648438 163.40625 C 317.5625 163.058594 318.464844 162.675781 319.355469 162.257812 C 320.25 161.84375 321.117188 161.378906 321.976562 160.882812 C 322.195312 160.761719 322.402344 160.628906 322.617188 160.503906 C 322.832031 160.375 323.039062 160.238281 323.25 160.105469 C 323.664062 159.828125 324.074219 159.542969 324.472656 159.230469 C 324.179688 159.644531 323.839844 160.023438 323.496094 160.398438 C 323.148438 160.765625 322.792969 161.132812 322.414062 161.472656 C 322.042969 161.820312 321.652344 162.152344 321.253906 162.472656 L 320.652344 162.949219 C 320.449219 163.105469 320.242188 163.253906 320.035156 163.40625 C 319.828125 163.558594 319.617188 163.703125 319.402344 163.84375 C 319.191406 163.988281 318.980469 164.136719 318.765625 164.273438 L 317.78125 164.882812 L 317.445312 165.070312 L 316.773438 165.453125 C 316.550781 165.578125 316.316406 165.6875 316.089844 165.808594 L 315.402344 166.160156 L 314.699219 166.488281 L 313.996094 166.804688 L 313.277344 167.097656 L 312.5625 167.390625 L 311.832031 167.65625 L 311.101562 167.914062 C 310.855469 167.996094 310.609375 168.070312 310.363281 168.148438 C 309.867188 168.296875 309.375 168.460938 308.875 168.589844 C 308.375 168.714844 307.875 168.855469 307.371094 168.96875 L 305.855469 169.296875 C 305.347656 169.398438 304.835938 169.472656 304.324219 169.558594 C 303.816406 169.652344 303.300781 169.710938 302.789062 169.773438 C 301.761719 169.925781 300.734375 169.980469 299.703125 170.0625 C 299.1875 170.09375 298.671875 170.105469 298.152344 170.125 C 297.636719 170.148438 297.121094 170.160156 296.605469 170.148438 L 295.058594 170.128906 C 294.542969 170.117188 294.03125 170.078125 293.515625 170.058594 L 292.742188 170.011719 L 292.359375 169.988281 L 291.972656 169.949219 L 290.4375 169.796875 C 289.414062 169.710938 288.402344 169.53125 287.382812 169.386719 C 287.128906 169.351562 286.878906 169.308594 286.625 169.257812 L 285.871094 169.121094 L 284.359375 168.839844 L 281.367188 168.144531 C 280.382812 167.882812 279.398438 167.605469 278.417969 167.328125 L 279.902344 164.066406 C 279.972656 164.113281 280.09375 164.191406 280.195312 164.257812 C 280.296875 164.328125 280.417969 164.398438 280.527344 164.464844 C 280.746094 164.605469 280.980469 164.738281 281.210938 164.875 C 281.441406 165.011719 281.679688 165.140625 281.914062 165.273438 C 282.152344 165.40625 282.382812 165.539062 282.628906 165.664062 L 283.351562 166.042969 C 283.59375 166.171875 283.84375 166.285156 284.089844 166.40625 L 284.828125 166.765625 L 285.578125 167.105469 L 286.328125 167.449219 L 287.851562 168.089844 C 288.109375 168.199219 288.367188 168.292969 288.625 168.394531 L 289.398438 168.699219 C 289.65625 168.800781 289.914062 168.898438 290.175781 168.984375 L 291.746094 169.546875 C 292.273438 169.726562 292.808594 169.882812 293.335938 170.058594 L 294.132812 170.320312 L 294.9375 170.550781 L 296.550781 171.019531 C 297.09375 171.15625 297.640625 171.289062 298.183594 171.433594 L 299 171.648438 C 299.273438 171.714844 299.546875 171.769531 299.820312 171.832031 C 300.367188 171.957031 300.917969 172.078125 301.46875 172.210938 L 301.886719 172.304688 L 302.304688 172.386719 L 303.144531 172.554688 C 303.703125 172.667969 304.261719 172.777344 304.820312 172.902344 "/><path style=" stroke:none;fill-rule:nonzero;fill:#123c63;fill-opacity:1;" d="M 324.472656 159.230469 C 323.828125 159.355469 323.179688 159.464844 322.535156 159.578125 C 322.214844 159.632812 321.890625 159.691406 321.566406 159.742188 L 321.082031 159.816406 L 320.59375 159.878906 L 318.628906 160.105469 C 318.300781 160.136719 317.96875 160.179688 317.644531 160.199219 L 316.65625 160.269531 L 314.683594 160.390625 C 314.023438 160.414062 313.363281 160.421875 312.703125 160.4375 C 312.375 160.441406 312.042969 160.453125 311.710938 160.453125 L 310.722656 160.433594 C 310.058594 160.417969 309.398438 160.417969 308.734375 160.386719 L 306.753906 160.269531 C 306.421875 160.253906 306.089844 160.21875 305.761719 160.191406 L 304.769531 160.097656 C 304.109375 160.039062 303.449219 159.953125 302.789062 159.867188 L 301.800781 159.742188 L 300.816406 159.585938 L 299.828125 159.421875 L 298.84375 159.238281 C 298.1875 159.117188 297.535156 158.976562 296.882812 158.828125 C 296.554688 158.757812 296.230469 158.671875 295.902344 158.59375 C 295.574219 158.511719 295.25 158.429688 294.921875 158.339844 C 294.597656 158.25 294.269531 158.164062 293.941406 158.0625 C 293.777344 158.015625 293.617188 157.96875 293.445312 157.914062 C 293.273438 157.859375 293.121094 157.8125 292.921875 157.742188 L 279.753906 153.085938 L 293.769531 154.136719 L 296.75 154.359375 L 299.730469 154.515625 C 300.722656 154.550781 301.714844 154.558594 302.707031 154.589844 C 303.695312 154.59375 304.6875 154.589844 305.675781 154.585938 L 307.160156 154.53125 C 307.652344 154.515625 308.148438 154.515625 308.640625 154.476562 C 309.625 154.414062 310.613281 154.371094 311.59375 154.265625 C 312.085938 154.222656 312.578125 154.183594 313.066406 154.136719 L 314.53125 153.953125 C 314.777344 153.921875 315.023438 153.898438 315.265625 153.859375 L 315.996094 153.75 C 316.480469 153.671875 316.96875 153.609375 317.453125 153.519531 C 318.417969 153.335938 319.386719 153.164062 320.34375 152.9375 L 321.066406 152.78125 L 321.777344 152.59375 L 322.492188 152.410156 L 322.851562 152.320312 L 323.203125 152.214844 C 323.675781 152.074219 324.148438 151.945312 324.617188 151.796875 C 325.082031 151.640625 325.546875 151.480469 326.019531 151.332031 L 327.402344 150.820312 L 328.769531 150.261719 L 330.121094 149.652344 C 330.554688 149.425781 331.011719 149.222656 331.445312 148.988281 C 331.878906 148.753906 332.320312 148.523438 332.746094 148.269531 C 332.957031 148.144531 333.179688 148.027344 333.386719 147.894531 L 334.019531 147.496094 C 334.855469 146.957031 335.671875 146.382812 336.457031 145.753906 C 337.238281 145.128906 337.996094 144.460938 338.671875 143.695312 C 338.449219 144.15625 338.171875 144.59375 337.882812 145.015625 C 337.589844 145.441406 337.28125 145.855469 336.949219 146.253906 C 336.292969 147.054688 335.566406 147.800781 334.804688 148.511719 C 334.039062 149.214844 333.234375 149.878906 332.390625 150.496094 C 332.183594 150.65625 331.96875 150.800781 331.753906 150.953125 L 331.109375 151.394531 C 330.667969 151.675781 330.226562 151.953125 329.777344 152.230469 C 329.324219 152.488281 328.871094 152.75 328.414062 153 L 327.011719 153.714844 C 326.539062 153.9375 326.0625 154.152344 325.585938 154.367188 C 325.105469 154.574219 324.617188 154.765625 324.132812 154.964844 C 323.648438 155.171875 323.152344 155.328125 322.660156 155.507812 L 321.917969 155.765625 L 321.167969 155.996094 L 320.417969 156.230469 C 320.171875 156.308594 319.917969 156.382812 319.667969 156.445312 L 318.148438 156.839844 C 317.640625 156.964844 317.128906 157.066406 316.617188 157.179688 L 315.851562 157.347656 C 315.597656 157.398438 315.339844 157.4375 315.082031 157.480469 L 313.539062 157.746094 C 313.023438 157.820312 312.507812 157.886719 311.992188 157.957031 C 310.957031 158.105469 309.921875 158.171875 308.886719 158.269531 C 307.847656 158.363281 306.808594 158.394531 305.773438 158.445312 C 304.734375 158.460938 303.699219 158.472656 302.660156 158.476562 C 301.625 158.449219 300.589844 158.421875 299.554688 158.375 C 298.523438 158.308594 297.492188 158.257812 296.464844 158.167969 L 293.382812 157.851562 L 294.230469 154.246094 L 294.632812 154.390625 C 294.769531 154.445312 294.921875 154.492188 295.066406 154.542969 C 295.355469 154.644531 295.65625 154.738281 295.953125 154.835938 C 296.25 154.933594 296.550781 155.023438 296.855469 155.113281 C 297.15625 155.203125 297.457031 155.296875 297.761719 155.375 C 298.375 155.542969 298.980469 155.722656 299.601562 155.871094 L 300.523438 156.109375 L 301.453125 156.324219 L 302.386719 156.542969 L 303.320312 156.738281 C 303.945312 156.871094 304.570312 157.007812 305.203125 157.117188 C 305.832031 157.226562 306.457031 157.367188 307.089844 157.464844 L 308.992188 157.777344 C 309.625 157.882812 310.261719 157.957031 310.898438 158.050781 L 311.855469 158.183594 C 312.175781 158.226562 312.496094 158.261719 312.816406 158.296875 C 313.457031 158.375 314.097656 158.441406 314.742188 158.523438 L 316.671875 158.703125 L 317.640625 158.796875 C 317.964844 158.832031 318.285156 158.839844 318.609375 158.867188 L 320.550781 159.003906 L 321.035156 159.042969 L 321.527344 159.066406 C 321.855469 159.078125 322.183594 159.097656 322.507812 159.117188 C 323.164062 159.152344 323.816406 159.183594 324.472656 159.230469 "/><path style=" stroke:none;fill-rule:nonzero;fill:#123c63;fill-opacity:1;" d="M 338.671875 143.695312 C 338.304688 143.875 337.9375 144.058594 337.566406 144.234375 C 337.199219 144.410156 336.808594 144.554688 336.429688 144.71875 C 336.046875 144.886719 335.652344 145.015625 335.261719 145.152344 L 334.675781 145.355469 C 334.476562 145.417969 334.277344 145.472656 334.082031 145.535156 L 333.484375 145.707031 C 333.285156 145.765625 333.085938 145.824219 332.882812 145.871094 L 331.671875 146.167969 C 330.863281 146.332031 330.046875 146.507812 329.226562 146.636719 C 328.40625 146.78125 327.585938 146.875 326.761719 146.984375 C 325.9375 147.074219 325.109375 147.152344 324.28125 147.210938 C 323.453125 147.28125 322.625 147.3125 321.796875 147.34375 C 320.964844 147.367188 320.136719 147.390625 319.308594 147.390625 C 318.894531 147.398438 318.480469 147.390625 318.066406 147.382812 C 317.652344 147.375 317.234375 147.375 316.820312 147.355469 L 315.578125 147.316406 L 314.339844 147.257812 C 313.511719 147.207031 312.683594 147.15625 311.859375 147.085938 C 311.035156 147.023438 310.210938 146.949219 309.386719 146.859375 C 308.566406 146.773438 307.742188 146.675781 306.921875 146.574219 C 306.101562 146.46875 305.28125 146.359375 304.460938 146.230469 C 303.640625 146.105469 302.824219 145.972656 302.007812 145.828125 L 300.777344 145.609375 C 300.363281 145.53125 299.96875 145.453125 299.535156 145.355469 L 282.828125 141.722656 L 300.003906 141.667969 L 301.851562 141.660156 L 302.773438 141.65625 C 303.082031 141.65625 303.390625 141.660156 303.695312 141.640625 C 304.308594 141.617188 304.921875 141.589844 305.535156 141.574219 L 306.457031 141.542969 C 306.765625 141.527344 307.070312 141.5 307.375 141.480469 L 309.210938 141.351562 C 309.363281 141.339844 309.515625 141.332031 309.667969 141.316406 L 310.125 141.265625 L 311.039062 141.167969 L 311.949219 141.074219 C 312.253906 141.042969 312.5625 141.015625 312.863281 140.96875 L 314.675781 140.707031 C 315.285156 140.632812 315.882812 140.507812 316.484375 140.402344 L 317.386719 140.242188 C 317.6875 140.191406 317.988281 140.144531 318.285156 140.074219 L 320.070312 139.679688 L 320.519531 139.582031 L 320.960938 139.464844 L 321.84375 139.238281 C 322.433594 139.085938 323.027344 138.945312 323.609375 138.757812 C 324.191406 138.582031 324.777344 138.414062 325.355469 138.230469 C 325.929688 138.027344 326.507812 137.832031 327.085938 137.636719 C 327.375 137.546875 327.660156 137.433594 327.941406 137.324219 L 328.796875 136.996094 C 329.078125 136.886719 329.367188 136.785156 329.644531 136.664062 L 330.484375 136.300781 L 331.328125 135.945312 C 331.605469 135.824219 331.878906 135.6875 332.152344 135.558594 C 333.265625 135.050781 334.339844 134.480469 335.414062 133.902344 L 336.210938 133.453125 C 336.476562 133.300781 336.746094 133.15625 337.003906 132.992188 L 337.785156 132.507812 C 338.042969 132.347656 338.308594 132.195312 338.5625 132.019531 L 339.324219 131.511719 C 339.582031 131.34375 339.839844 131.175781 340.082031 130.992188 L 340.828125 130.457031 L 341.203125 130.1875 L 341.570312 129.910156 C 342.058594 129.535156 342.550781 129.167969 343.019531 128.769531 L 343.730469 128.183594 L 344.429688 127.574219 L 344.777344 127.269531 L 345.117188 126.957031 L 345.796875 126.324219 L 346.460938 125.675781 L 346.789062 125.351562 L 347.109375 125.015625 C 347.980469 124.128906 348.804688 123.199219 349.59375 122.230469 C 349.988281 121.746094 350.378906 121.257812 350.75 120.753906 C 351.121094 120.246094 351.484375 119.734375 351.832031 119.207031 C 351.605469 119.796875 351.339844 120.371094 351.0625 120.941406 C 350.78125 121.511719 350.492188 122.078125 350.171875 122.628906 C 349.542969 123.734375 348.84375 124.804688 348.089844 125.835938 L 347.808594 126.226562 L 346.929688 127.363281 L 346.3125 128.101562 L 346.003906 128.472656 L 345.683594 128.828125 L 345.039062 129.546875 C 344.820312 129.78125 344.59375 130.011719 344.371094 130.242188 C 343.929688 130.707031 343.460938 131.148438 342.992188 131.59375 C 342.0625 132.480469 341.070312 133.308594 340.0625 134.113281 C 339.558594 134.519531 339.03125 134.890625 338.511719 135.277344 C 338.253906 135.476562 337.984375 135.648438 337.71875 135.832031 L 336.914062 136.375 C 335.835938 137.085938 334.726562 137.757812 333.585938 138.375 C 333.304688 138.53125 333.023438 138.695312 332.734375 138.839844 L 331.871094 139.277344 L 330.996094 139.710938 C 330.707031 139.855469 330.410156 139.976562 330.113281 140.113281 L 329.226562 140.507812 C 328.929688 140.640625 328.636719 140.773438 328.332031 140.886719 C 327.730469 141.128906 327.128906 141.363281 326.523438 141.597656 C 325.914062 141.816406 325.300781 142.015625 324.6875 142.226562 C 324.078125 142.449219 323.457031 142.625 322.835938 142.808594 L 321.90625 143.078125 L 321.4375 143.210938 L 320.96875 143.328125 L 319.082031 143.785156 C 318.769531 143.867188 318.453125 143.921875 318.136719 143.988281 L 317.1875 144.179688 C 316.554688 144.304688 315.917969 144.433594 315.28125 144.519531 L 313.367188 144.808594 C 313.050781 144.859375 312.730469 144.890625 312.410156 144.925781 L 311.449219 145.035156 L 310.007812 145.1875 C 309.847656 145.203125 309.6875 145.207031 309.527344 145.21875 L 307.601562 145.34375 C 307.28125 145.359375 306.960938 145.386719 306.640625 145.398438 L 305.675781 145.425781 C 305.035156 145.441406 304.394531 145.453125 303.75 145.464844 C 303.429688 145.476562 303.109375 145.46875 302.789062 145.460938 L 301.828125 145.441406 L 299.90625 145.40625 L 300.378906 141.714844 L 301.527344 141.976562 L 302.703125 142.234375 C 303.488281 142.402344 304.273438 142.5625 305.066406 142.710938 L 307.441406 143.152344 C 308.234375 143.292969 309.027344 143.429688 309.824219 143.554688 C 310.621094 143.679688 311.417969 143.808594 312.214844 143.921875 C 313.011719 144.039062 313.8125 144.144531 314.609375 144.246094 L 315.808594 144.394531 L 317.011719 144.527344 C 317.410156 144.574219 317.8125 144.609375 318.214844 144.648438 C 318.613281 144.691406 319.015625 144.726562 319.417969 144.757812 C 320.21875 144.832031 321.023438 144.886719 321.824219 144.941406 L 323.03125 145.003906 C 323.433594 145.03125 323.835938 145.046875 324.238281 145.058594 C 324.640625 145.066406 325.042969 145.089844 325.445312 145.089844 L 326.65625 145.105469 C 327.457031 145.101562 328.265625 145.105469 329.070312 145.066406 C 329.878906 145.050781 330.679688 144.988281 331.484375 144.9375 L 332.691406 144.824219 C 333.09375 144.789062 333.492188 144.722656 333.894531 144.675781 C 334.09375 144.648438 334.296875 144.625 334.496094 144.597656 L 335.09375 144.492188 C 335.492188 144.421875 335.898438 144.367188 336.292969 144.273438 C 336.683594 144.1875 337.085938 144.117188 337.484375 144.007812 C 337.878906 143.898438 338.277344 143.796875 338.671875 143.695312 "/><g clip-rule="nonzero" clip-path="url(#121479e753)"><path style=" stroke:none;fill-rule:nonzero;fill:#123c63;fill-opacity:1;" d="M 352.136719 118.566406 C 351.277344 119.113281 350.421875 119.664062 349.546875 120.1875 L 348.222656 120.960938 L 347.558594 121.34375 L 346.882812 121.710938 L 345.53125 122.433594 C 345.082031 122.679688 344.617188 122.894531 344.160156 123.125 C 343.703125 123.351562 343.246094 123.585938 342.78125 123.800781 L 341.378906 124.441406 C 341.148438 124.546875 340.914062 124.65625 340.679688 124.757812 L 338.546875 125.648438 L 337.109375 126.207031 L 336.390625 126.480469 L 335.660156 126.738281 L 334.203125 127.25 L 332.730469 127.722656 C 332.242188 127.882812 331.746094 128.023438 331.25 128.164062 C 330.753906 128.304688 330.261719 128.460938 329.761719 128.585938 L 328.261719 128.980469 L 326.753906 129.332031 C 326.25 129.453125 325.742188 129.550781 325.238281 129.660156 L 324.476562 129.816406 L 323.714844 129.957031 C 322.695312 130.152344 321.671875 130.304688 320.648438 130.457031 L 319.101562 130.65625 L 317.554688 130.828125 L 316 130.957031 C 315.484375 130.988281 314.964844 131.027344 314.441406 131.050781 C 313.402344 131.101562 312.359375 131.136719 311.316406 131.136719 C 310.269531 131.136719 309.222656 131.113281 308.171875 131.050781 C 307.644531 131.019531 307.117188 130.980469 306.589844 130.933594 C 306.320312 130.90625 306.058594 130.886719 305.789062 130.851562 L 305.382812 130.800781 L 305.171875 130.773438 L 304.941406 130.738281 L 293.441406 128.992188 L 305.011719 127.085938 L 307.421875 126.691406 L 309.816406 126.238281 L 312.199219 125.722656 C 312.984375 125.523438 313.78125 125.355469 314.5625 125.152344 C 316.132812 124.742188 317.691406 124.308594 319.226562 123.808594 L 320.382812 123.4375 L 321.523438 123.035156 C 322.289062 122.78125 323.039062 122.480469 323.792969 122.195312 C 324.171875 122.054688 324.539062 121.890625 324.910156 121.738281 C 325.28125 121.582031 325.65625 121.433594 326.023438 121.273438 C 326.753906 120.933594 327.5 120.628906 328.21875 120.269531 L 329.304688 119.742188 L 330.371094 119.1875 C 330.730469 119.007812 331.082031 118.808594 331.429688 118.613281 C 331.777344 118.417969 332.132812 118.226562 332.476562 118.023438 C 333.867188 117.214844 335.21875 116.351562 336.535156 115.4375 C 337.839844 114.507812 339.109375 113.53125 340.335938 112.5 C 341.5625 111.46875 342.722656 110.359375 343.847656 109.21875 C 344.972656 108.070312 346.03125 106.859375 347.039062 105.605469 C 348.042969 104.351562 348.980469 103.039062 349.863281 101.683594 C 350.746094 100.332031 351.558594 98.929688 352.308594 97.492188 C 353.0625 96.058594 353.738281 94.578125 354.359375 93.066406 C 354.667969 92.3125 354.957031 91.550781 355.230469 90.777344 C 355.507812 90.007812 355.765625 89.230469 356 88.449219 C 356.480469 86.878906 356.890625 85.285156 357.226562 83.671875 C 357.558594 82.054688 357.832031 80.421875 357.960938 78.765625 C 358.039062 79.59375 358.050781 80.429688 358.042969 81.265625 C 358.03125 82.097656 358 82.9375 357.933594 83.769531 C 357.808594 85.441406 357.578125 87.105469 357.265625 88.757812 C 356.957031 90.414062 356.546875 92.050781 356.0625 93.667969 C 355.578125 95.289062 354.996094 96.882812 354.339844 98.445312 C 353.679688 100.011719 352.929688 101.539062 352.105469 103.03125 C 351.28125 104.523438 350.367188 105.96875 349.386719 107.367188 C 348.402344 108.765625 347.328125 110.101562 346.199219 111.390625 C 345.066406 112.675781 343.867188 113.902344 342.601562 115.0625 C 341.335938 116.21875 340.015625 117.320312 338.644531 118.347656 C 337.265625 119.363281 335.851562 120.335938 334.390625 121.226562 C 334.023438 121.453125 333.652344 121.660156 333.28125 121.878906 C 332.914062 122.09375 332.542969 122.3125 332.164062 122.511719 L 331.035156 123.121094 L 329.890625 123.699219 C 329.132812 124.09375 328.351562 124.4375 327.578125 124.796875 C 327.1875 124.972656 326.792969 125.132812 326.398438 125.300781 C 326.003906 125.464844 325.617188 125.640625 325.21875 125.789062 C 324.421875 126.097656 323.632812 126.417969 322.828125 126.691406 L 321.621094 127.121094 L 320.410156 127.511719 C 318.789062 128.03125 317.148438 128.476562 315.503906 128.894531 C 315.09375 129.003906 314.679688 129.089844 314.265625 129.1875 L 313.027344 129.46875 L 310.535156 129.964844 L 308.039062 130.390625 L 305.527344 130.75 L 305.597656 127.097656 L 305.914062 127.152344 L 306.261719 127.203125 C 306.492188 127.238281 306.734375 127.269531 306.972656 127.300781 C 307.453125 127.355469 307.941406 127.40625 308.425781 127.449219 C 309.402344 127.53125 310.386719 127.582031 311.371094 127.613281 C 312.359375 127.65625 313.347656 127.660156 314.339844 127.652344 C 314.835938 127.648438 315.328125 127.632812 315.824219 127.621094 L 317.3125 127.558594 L 318.800781 127.472656 L 320.289062 127.355469 C 321.28125 127.261719 322.273438 127.15625 323.261719 127.03125 L 324.003906 126.941406 L 324.746094 126.835938 C 325.238281 126.761719 325.734375 126.699219 326.226562 126.609375 L 327.703125 126.363281 L 329.179688 126.085938 C 329.671875 126 330.160156 125.882812 330.648438 125.78125 C 331.140625 125.679688 331.632812 125.578125 332.117188 125.457031 L 333.582031 125.113281 L 335.039062 124.734375 L 335.769531 124.546875 L 336.492188 124.335938 L 337.945312 123.925781 L 339.386719 123.476562 L 340.109375 123.25 L 340.824219 123.011719 L 342.261719 122.53125 C 342.738281 122.367188 343.207031 122.1875 343.683594 122.015625 C 344.160156 121.839844 344.640625 121.679688 345.109375 121.492188 L 346.523438 120.941406 L 347.234375 120.664062 L 347.933594 120.371094 L 349.339844 119.789062 C 350.277344 119.394531 351.199219 118.964844 352.136719 118.566406 "/></g><g clip-rule="nonzero" clip-path="url(#26ecad3dd5)"><path style=" stroke:none;fill-rule:nonzero;fill:#123c63;fill-opacity:1;" d="M 357.960938 78.765625 C 357.960938 78.765625 357.894531 78.925781 357.757812 79.234375 C 357.621094 79.542969 357.429688 80.003906 357.15625 80.597656 C 357.011719 80.890625 356.851562 81.222656 356.671875 81.582031 C 356.496094 81.945312 356.304688 82.34375 356.074219 82.757812 C 355.847656 83.175781 355.613281 83.636719 355.34375 84.109375 C 355.0625 84.582031 354.765625 85.082031 354.449219 85.609375 C 353.160156 87.707031 351.402344 90.152344 349.082031 92.726562 C 347.914062 94.003906 346.597656 95.300781 345.136719 96.597656 C 344.769531 96.917969 344.394531 97.238281 344.015625 97.566406 C 343.625 97.878906 343.230469 98.195312 342.828125 98.515625 C 342.019531 99.144531 341.179688 99.773438 340.296875 100.386719 C 338.539062 101.613281 336.628906 102.777344 334.597656 103.886719 C 332.566406 104.992188 330.402344 106.007812 328.136719 106.957031 C 323.605469 108.84375 318.652344 110.359375 313.480469 111.5625 C 310.894531 112.171875 308.246094 112.683594 305.566406 113.144531 C 304.226562 113.375 302.878906 113.59375 301.523438 113.796875 C 300.167969 114 298.804688 114.179688 297.4375 114.363281 C 294.703125 114.710938 291.957031 115.054688 289.210938 115.359375 C 286.46875 115.671875 283.730469 115.988281 281.035156 116.367188 C 278.34375 116.742188 275.683594 117.175781 273.214844 117.828125 C 272.902344 117.90625 272.605469 118 272.304688 118.085938 L 272.078125 118.152344 C 272.078125 118.152344 271.992188 118.179688 272.070312 118.15625 L 271.882812 118.214844 L 271.394531 118.378906 L 270.410156 118.703125 C 270.25 118.757812 270.078125 118.808594 269.925781 118.863281 L 269.476562 119.03125 L 268.128906 119.523438 L 267.679688 119.707031 L 266.777344 120.078125 L 266.328125 120.261719 L 265.886719 120.464844 C 264.710938 120.992188 263.554688 121.554688 262.445312 122.175781 C 262.167969 122.328125 261.890625 122.480469 261.613281 122.636719 C 261.332031 122.785156 261.070312 122.960938 260.800781 123.121094 C 260.53125 123.285156 260.261719 123.449219 259.996094 123.613281 C 259.734375 123.789062 259.472656 123.960938 259.214844 124.136719 C 257.144531 125.539062 255.242188 127.113281 253.574219 128.855469 C 251.902344 130.59375 250.445312 132.484375 249.238281 134.480469 C 248.023438 136.472656 247.039062 138.558594 246.277344 140.679688 C 245.507812 142.800781 244.941406 144.941406 244.550781 147.058594 C 244.148438 149.175781 243.921875 151.257812 243.792969 153.277344 C 243.664062 155.296875 243.667969 157.246094 243.726562 159.101562 C 243.785156 160.960938 243.933594 162.726562 244.109375 164.386719 C 244.46875 167.707031 244.992188 170.59375 245.496094 172.957031 C 246.007812 175.320312 246.480469 177.171875 246.84375 178.421875 C 247.027344 179.046875 247.167969 179.527344 247.265625 179.847656 C 247.371094 180.167969 247.421875 180.335938 247.421875 180.335938 C 247.421875 180.335938 247.34375 180.179688 247.1875 179.878906 C 247.035156 179.578125 246.808594 179.132812 246.535156 178.535156 C 245.992188 177.34375 245.210938 175.585938 244.386719 173.273438 C 243.554688 170.964844 242.664062 168.113281 241.917969 164.75 C 241.179688 161.390625 240.582031 157.519531 240.460938 153.222656 C 240.410156 151.074219 240.492188 148.824219 240.742188 146.496094 C 240.800781 145.910156 240.890625 145.328125 240.96875 144.734375 C 241.074219 144.148438 241.164062 143.550781 241.285156 142.953125 C 241.410156 142.359375 241.527344 141.753906 241.683594 141.15625 C 241.757812 140.855469 241.824219 140.550781 241.910156 140.25 C 241.992188 139.949219 242.078125 139.644531 242.164062 139.34375 L 242.292969 138.886719 L 242.441406 138.433594 C 242.539062 138.132812 242.640625 137.828125 242.738281 137.523438 C 242.851562 137.222656 242.964844 136.921875 243.074219 136.617188 C 243.1875 136.316406 243.300781 136.007812 243.429688 135.710938 C 243.554688 135.410156 243.683594 135.109375 243.8125 134.808594 C 243.933594 134.503906 244.085938 134.210938 244.222656 133.910156 C 244.367188 133.613281 244.5 133.308594 244.652344 133.011719 C 244.808594 132.71875 244.964844 132.421875 245.117188 132.125 C 245.269531 131.828125 245.441406 131.539062 245.609375 131.246094 C 245.78125 130.953125 245.949219 130.660156 246.121094 130.367188 C 246.304688 130.085938 246.492188 129.800781 246.675781 129.511719 L 246.957031 129.085938 C 247.050781 128.941406 247.15625 128.804688 247.253906 128.664062 C 247.453125 128.386719 247.65625 128.105469 247.855469 127.824219 C 248.054688 127.546875 248.277344 127.28125 248.488281 127.007812 C 248.707031 126.738281 248.914062 126.457031 249.144531 126.195312 C 249.371094 125.929688 249.597656 125.667969 249.828125 125.402344 C 251.667969 123.292969 253.816406 121.414062 256.132812 119.738281 C 256.421875 119.53125 256.714844 119.320312 257.007812 119.113281 C 257.304688 118.917969 257.605469 118.71875 257.90625 118.523438 C 258.207031 118.332031 258.5 118.121094 258.8125 117.941406 C 259.121094 117.761719 259.429688 117.574219 259.738281 117.390625 C 260.980469 116.667969 262.265625 116.011719 263.570312 115.394531 L 264.058594 115.164062 L 265.546875 114.519531 L 266.046875 114.304688 L 266.5625 114.105469 L 267.59375 113.703125 L 268.113281 113.503906 C 268.28125 113.441406 268.4375 113.390625 268.605469 113.332031 L 270.070312 112.828125 L 270.195312 112.785156 L 270.371094 112.730469 L 270.640625 112.648438 C 271.003906 112.539062 271.363281 112.425781 271.722656 112.332031 C 273.164062 111.941406 274.589844 111.632812 276.007812 111.367188 C 277.425781 111.105469 278.835938 110.878906 280.242188 110.683594 C 285.855469 109.929688 291.375 109.4375 296.769531 108.839844 C 298.117188 108.6875 299.453125 108.527344 300.78125 108.363281 C 302.113281 108.207031 303.429688 108.03125 304.738281 107.851562 C 307.355469 107.480469 309.921875 107.0625 312.429688 106.59375 C 317.441406 105.632812 322.21875 104.449219 326.609375 102.929688 C 331.003906 101.421875 335.011719 99.613281 338.519531 97.589844 C 340.277344 96.582031 341.910156 95.523438 343.410156 94.4375 C 344.914062 93.359375 346.273438 92.242188 347.53125 91.15625 C 350.007812 88.949219 351.988281 86.804688 353.515625 84.945312 C 355.042969 83.078125 356.132812 81.515625 356.867188 80.441406 C 357.582031 79.347656 357.960938 78.765625 357.960938 78.765625 "/></g><g transform="matrix(1,0,0,1,13,246)"><g clip-path="url(#eec8e88877)"><g style="fill:#123c63;fill-opacity:1;"><g transform="translate(2.019796, 34.645389)"><path style="stroke:none" d="M 50.890625 0 L 38.015625 0 L 35.15625 -4.96875 L 16.046875 -4.96875 L 13.203125 0 L 0.3125 0 L 19.703125 -30.28125 L 31.515625 -30.28125 Z M 30.875 -12.453125 L 25.609375 -21.640625 L 20.34375 -12.453125 Z M 30.875 -12.453125 "/></g></g><g style="fill:#123c63;fill-opacity:1;"><g transform="translate(53.227037, 34.645389)"><path style="stroke:none" d="M 44.75 0 L 32.734375 0 C 32.179688 -0.757812 31.796875 -1.734375 31.578125 -2.921875 C 31.378906 -3.828125 31.082031 -4.71875 30.6875 -5.59375 C 30.289062 -6.476562 29.609375 -7.210938 28.640625 -7.796875 C 27.679688 -8.378906 26.25 -8.695312 24.34375 -8.75 L 16.09375 -8.75 L 16.09375 0 L 3.375 0 L 3.375 -30.296875 L 24.046875 -30.296875 C 28.992188 -30.296875 32.984375 -29.925781 36.015625 -29.1875 C 39.046875 -28.457031 41.257812 -27.296875 42.65625 -25.703125 C 44.050781 -24.117188 44.75 -22.054688 44.75 -19.515625 C 44.75 -17.390625 44.265625 -15.597656 43.296875 -14.140625 C 42.335938 -12.691406 40.816406 -11.546875 38.734375 -10.703125 C 40.742188 -9.878906 42.046875 -8.882812 42.640625 -7.71875 C 43.242188 -6.550781 43.613281 -5.273438 43.75 -3.890625 C 43.894531 -2.648438 44.226562 -1.351562 44.75 0 Z M 16.09375 -16.21875 L 23.359375 -16.234375 C 25.378906 -16.234375 26.972656 -16.320312 28.140625 -16.5 C 29.316406 -16.6875 30.179688 -16.9375 30.734375 -17.25 C 31.296875 -17.570312 31.648438 -17.925781 31.796875 -18.3125 C 31.953125 -18.707031 32.03125 -19.109375 32.03125 -19.515625 C 32.03125 -19.921875 31.953125 -20.320312 31.796875 -20.71875 C 31.648438 -21.113281 31.296875 -21.46875 30.734375 -21.78125 C 30.179688 -22.101562 29.316406 -22.351562 28.140625 -22.53125 C 26.972656 -22.71875 25.378906 -22.8125 23.359375 -22.8125 L 16.09375 -22.8125 Z M 16.09375 -16.21875 "/></g></g><g style="fill:#123c63;fill-opacity:1;"><g transform="translate(99.661976, 34.645389)"><path style="stroke:none" d="M 22.90625 0.65625 C 15.414062 0.65625 9.90625 -0.882812 6.375 -3.96875 C 3.25 -6.6875 1.6875 -10.40625 1.6875 -15.125 C 1.6875 -19.832031 3.25 -23.554688 6.375 -26.296875 C 9.90625 -29.359375 15.414062 -30.890625 22.90625 -30.890625 C 27.300781 -30.890625 30.9375 -30.382812 33.8125 -29.375 C 36.6875 -28.375 38.914062 -27 40.5 -25.25 C 42.09375 -23.507812 43.148438 -21.515625 43.671875 -19.265625 L 30.296875 -19.265625 C 28.960938 -21.609375 26.5 -22.78125 22.90625 -22.78125 C 19.84375 -22.78125 17.585938 -21.894531 16.140625 -20.125 C 14.984375 -18.71875 14.40625 -17.050781 14.40625 -15.125 C 14.40625 -13.195312 14.984375 -11.523438 16.140625 -10.109375 C 17.585938 -8.335938 19.84375 -7.453125 22.90625 -7.453125 C 26.5 -7.453125 28.960938 -8.632812 30.296875 -11 L 43.671875 -11 C 43.148438 -8.738281 42.09375 -6.734375 40.5 -4.984375 C 38.914062 -3.234375 36.6875 -1.851562 33.8125 -0.84375 C 30.9375 0.15625 27.300781 0.65625 22.90625 0.65625 Z M 22.90625 0.65625 "/></g></g><g style="fill:#123c63;fill-opacity:1;"><g transform="translate(145.019964, 34.645389)"><path style="stroke:none" d="M 22.90625 0.65625 C 15.414062 0.65625 9.90625 -0.882812 6.375 -3.96875 C 3.25 -6.695312 1.6875 -10.414062 1.6875 -15.125 C 1.6875 -19.832031 3.25 -23.554688 6.375 -26.296875 C 9.90625 -29.378906 15.414062 -30.921875 22.90625 -30.921875 C 27.175781 -30.921875 30.722656 -30.441406 33.546875 -29.484375 C 36.378906 -28.523438 38.601562 -27.21875 40.21875 -25.5625 C 41.832031 -23.90625 42.9375 -22 43.53125 -19.84375 L 29.921875 -19.84375 C 28.503906 -21.800781 26.164062 -22.78125 22.90625 -22.78125 C 19.84375 -22.78125 17.585938 -21.898438 16.140625 -20.140625 C 14.984375 -18.722656 14.40625 -17.050781 14.40625 -15.125 C 14.40625 -13.195312 14.984375 -11.523438 16.140625 -10.109375 C 17.585938 -8.347656 19.84375 -7.46875 22.90625 -7.46875 C 25.382812 -7.46875 27.25 -7.679688 28.5 -8.109375 C 29.75 -8.546875 30.660156 -9.109375 31.234375 -9.796875 L 26.265625 -9.796875 L 26.265625 -15.125 L 43.53125 -15.125 L 43.53125 0.015625 L 38.25 0.015625 L 37.171875 -2.921875 C 33.804688 -0.535156 29.050781 0.65625 22.90625 0.65625 Z M 22.90625 0.65625 "/></g></g><g style="fill:#123c63;fill-opacity:1;"><g transform="translate(191.074809, 34.645389)"><path style="stroke:none" d="M 21.3125 0.65625 C 13.914062 0.65625 8.710938 -0.878906 5.703125 -3.953125 C 3.171875 -6.523438 1.90625 -10.25 1.90625 -15.125 L 1.90625 -30.28125 L 14.609375 -30.28125 L 14.609375 -15.125 C 14.609375 -13.007812 14.96875 -11.335938 15.6875 -10.109375 C 16.71875 -8.347656 18.59375 -7.46875 21.3125 -7.46875 C 24.050781 -7.46875 25.929688 -8.347656 26.953125 -10.109375 C 27.671875 -11.378906 28.03125 -13.050781 28.03125 -15.125 L 28.03125 -30.28125 L 40.734375 -30.28125 L 40.734375 -14.953125 C 40.734375 -10.191406 39.472656 -6.523438 36.953125 -3.953125 C 33.929688 -0.878906 28.71875 0.65625 21.3125 0.65625 Z M 21.3125 0.65625 "/></g></g><g style="fill:#123c63;fill-opacity:1;"><g transform="translate(233.708799, 34.645389)"><path style="stroke:none" d="M 16.09375 0 L 3.375 0 L 3.375 -30.296875 L 16.09375 -30.296875 Z M 16.09375 0 "/></g></g><g style="fill:#123c63;fill-opacity:1;"><g transform="translate(253.178103, 34.645389)"><path style="stroke:none" d="M 23.65625 0 L 3.375 0 L 3.375 -30.296875 L 23.65625 -30.296875 C 31.945312 -30.296875 37.910156 -29.132812 41.546875 -26.8125 C 44.472656 -24.945312 46.140625 -22.398438 46.546875 -19.171875 C 46.722656 -17.773438 46.8125 -16.429688 46.8125 -15.140625 C 46.8125 -13.859375 46.722656 -12.515625 46.546875 -11.109375 C 46.378906 -9.710938 45.914062 -8.351562 45.15625 -7.03125 C 44.394531 -5.71875 43.1875 -4.535156 41.53125 -3.484375 C 39.875 -2.429688 37.601562 -1.585938 34.71875 -0.953125 C 31.84375 -0.316406 28.15625 0 23.65625 0 Z M 22.453125 -7.5 C 28.910156 -7.5 32.5625 -9.128906 33.40625 -12.390625 C 33.632812 -13.304688 33.75 -14.222656 33.75 -15.140625 C 33.75 -16.066406 33.628906 -16.984375 33.390625 -17.890625 C 33.160156 -18.804688 32.671875 -19.632812 31.921875 -20.375 C 31.171875 -21.113281 30.039062 -21.703125 28.53125 -22.140625 C 27.019531 -22.585938 24.992188 -22.8125 22.453125 -22.8125 L 16.09375 -22.8125 L 16.09375 -7.5 Z M 22.453125 -7.5 "/></g></g><g style="fill:#123c63;fill-opacity:1;"><g transform="translate(301.682447, 34.645389)"><path style="stroke:none" d="M 39.875 0 L 3.375 0 L 3.375 -30.296875 L 38.203125 -30.296875 L 38.203125 -22.8125 L 16.09375 -22.8125 L 16.09375 -18.0625 L 34.78125 -18.0625 L 34.78125 -12.234375 L 16.09375 -12.234375 L 16.09375 -7.5 L 39.875 -7.5 Z M 39.875 0 "/></g></g></g></g><g clip-rule="nonzero" clip-path="url(#305ef4ff5a)"><g transform="matrix(1,0,0,1,13,78)"><g clip-path="url(#9bbbb82b88)"><path style=" stroke:none;fill-rule:nonzero;fill:#123c63;fill-opacity:1;" d="M 108.6875 99.167969 C 108.6875 99.167969 108.554688 98.980469 108.3125 98.628906 C 108.25 98.542969 108.179688 98.445312 108.101562 98.335938 C 108.015625 98.234375 107.925781 98.121094 107.824219 98.003906 C 107.722656 97.878906 107.613281 97.75 107.496094 97.609375 C 107.378906 97.464844 107.238281 97.339844 107.09375 97.191406 C 106.949219 97.046875 106.796875 96.894531 106.636719 96.734375 C 106.472656 96.578125 106.289062 96.429688 106.101562 96.269531 C 105.910156 96.109375 105.71875 95.929688 105.496094 95.777344 C 105.277344 95.621094 105.050781 95.460938 104.8125 95.292969 C 104.695312 95.214844 104.578125 95.121094 104.449219 95.046875 C 104.320312 94.972656 104.1875 94.898438 104.054688 94.820312 C 103.785156 94.667969 103.511719 94.503906 103.222656 94.347656 C 102.929688 94.207031 102.625 94.070312 102.3125 93.929688 C 102.15625 93.859375 101.996094 93.78125 101.832031 93.714844 C 101.667969 93.65625 101.503906 93.59375 101.332031 93.535156 C 100.996094 93.410156 100.648438 93.285156 100.289062 93.171875 C 99.929688 93.078125 99.558594 92.980469 99.183594 92.882812 C 98.996094 92.835938 98.804688 92.78125 98.613281 92.742188 C 98.417969 92.707031 98.222656 92.675781 98.027344 92.640625 C 97.628906 92.578125 97.226562 92.511719 96.820312 92.445312 C 95.1875 92.28125 93.441406 92.195312 91.667969 92.355469 C 91.222656 92.390625 90.777344 92.421875 90.324219 92.464844 C 89.878906 92.53125 89.429688 92.601562 88.980469 92.667969 C 88.753906 92.703125 88.53125 92.738281 88.300781 92.773438 C 88.074219 92.808594 87.84375 92.835938 87.621094 92.890625 C 87.175781 92.992188 86.726562 93.09375 86.273438 93.195312 C 86.050781 93.25 85.824219 93.300781 85.597656 93.351562 C 85.371094 93.402344 85.140625 93.457031 84.921875 93.523438 C 84.476562 93.652344 84.027344 93.78125 83.582031 93.917969 C 83.148438 94.046875 82.714844 94.179688 82.277344 94.308594 L 80.988281 94.71875 C 80.769531 94.792969 80.570312 94.84375 80.367188 94.902344 L 79.753906 95.078125 C 79.351562 95.199219 78.929688 95.304688 78.511719 95.414062 C 78.09375 95.523438 77.675781 95.628906 77.257812 95.722656 C 76.839844 95.816406 76.425781 95.925781 76.007812 96.003906 C 75.171875 96.175781 74.34375 96.320312 73.519531 96.460938 C 73.105469 96.519531 72.695312 96.582031 72.289062 96.636719 C 71.878906 96.6875 71.476562 96.734375 71.074219 96.785156 C 69.460938 96.953125 67.890625 97.039062 66.398438 97.039062 C 66.027344 97.046875 65.660156 97.03125 65.292969 97.03125 C 64.929688 97.023438 64.574219 97 64.222656 96.992188 C 63.871094 96.976562 63.523438 96.949219 63.183594 96.929688 C 62.84375 96.902344 62.511719 96.875 62.183594 96.84375 C 60.875 96.722656 59.675781 96.535156 58.617188 96.332031 C 57.558594 96.132812 56.636719 95.90625 55.878906 95.699219 C 54.363281 95.28125 53.511719 94.929688 53.511719 94.929688 C 53.511719 94.929688 53.554688 94.96875 53.640625 95.042969 C 53.722656 95.113281 53.847656 95.222656 54.019531 95.355469 C 54.359375 95.621094 54.875 95.996094 55.566406 96.414062 C 56.257812 96.835938 57.125 97.304688 58.164062 97.765625 C 59.199219 98.226562 60.40625 98.675781 61.757812 99.058594 C 62.097656 99.152344 62.441406 99.246094 62.796875 99.332031 C 63.152344 99.410156 63.515625 99.5 63.886719 99.578125 C 64.632812 99.730469 65.40625 99.855469 66.207031 99.964844 C 67.8125 100.167969 69.519531 100.265625 71.285156 100.226562 C 71.726562 100.210938 72.171875 100.203125 72.621094 100.179688 C 73.066406 100.144531 73.515625 100.109375 73.96875 100.074219 C 74.421875 100.023438 74.875 99.972656 75.332031 99.921875 C 75.785156 99.863281 76.242188 99.78125 76.699219 99.710938 C 77.15625 99.648438 77.609375 99.546875 78.066406 99.460938 C 78.296875 99.414062 78.527344 99.378906 78.753906 99.324219 L 79.4375 99.164062 C 79.890625 99.054688 80.347656 98.953125 80.808594 98.816406 L 81.496094 98.621094 C 81.722656 98.554688 81.964844 98.496094 82.171875 98.421875 C 83.027344 98.148438 83.882812 97.875 84.734375 97.601562 C 85.148438 97.46875 85.558594 97.335938 85.96875 97.199219 C 86.171875 97.125 86.378906 97.070312 86.582031 97.015625 C 86.789062 96.960938 86.996094 96.90625 87.199219 96.851562 C 87.613281 96.738281 88.019531 96.628906 88.429688 96.515625 C 88.628906 96.453125 88.835938 96.417969 89.039062 96.371094 C 89.242188 96.324219 89.445312 96.28125 89.648438 96.238281 C 90.054688 96.148438 90.457031 96.058594 90.855469 95.96875 C 91.257812 95.910156 91.65625 95.839844 92.054688 95.773438 C 92.25 95.742188 92.449219 95.707031 92.644531 95.675781 C 92.742188 95.660156 92.84375 95.640625 92.941406 95.628906 L 93.230469 95.601562 C 93.621094 95.566406 94.007812 95.523438 94.390625 95.476562 C 94.582031 95.460938 94.777344 95.425781 94.964844 95.425781 C 95.152344 95.417969 95.339844 95.410156 95.527344 95.402344 C 95.902344 95.390625 96.273438 95.375 96.640625 95.355469 C 97.003906 95.367188 97.363281 95.375 97.714844 95.386719 C 97.894531 95.390625 98.070312 95.394531 98.246094 95.398438 C 98.417969 95.414062 98.589844 95.429688 98.761719 95.445312 C 99.105469 95.476562 99.441406 95.507812 99.773438 95.535156 C 100.097656 95.589844 100.417969 95.644531 100.734375 95.695312 C 100.890625 95.722656 101.050781 95.746094 101.203125 95.769531 C 101.359375 95.800781 101.507812 95.84375 101.65625 95.878906 C 101.953125 95.953125 102.242188 96.027344 102.53125 96.089844 C 102.8125 96.171875 103.082031 96.265625 103.351562 96.347656 C 103.484375 96.390625 103.613281 96.433594 103.742188 96.476562 C 103.875 96.515625 103.996094 96.574219 104.117188 96.617188 C 104.363281 96.71875 104.601562 96.8125 104.832031 96.90625 C 104.953125 96.949219 105.058594 97.003906 105.164062 97.058594 C 105.273438 97.109375 105.378906 97.160156 105.484375 97.210938 C 105.691406 97.3125 105.898438 97.398438 106.085938 97.503906 C 106.269531 97.609375 106.449219 97.707031 106.617188 97.804688 C 106.964844 97.988281 107.246094 98.183594 107.503906 98.347656 C 107.632812 98.429688 107.75 98.503906 107.859375 98.574219 C 107.96875 98.652344 108.0625 98.722656 108.148438 98.789062 C 108.5 99.035156 108.6875 99.167969 108.6875 99.167969 "/><path style=" stroke:none;fill-rule:nonzero;fill:#123c63;fill-opacity:1;" d="M 53.46875 94.902344 C 54.042969 94.9375 54.609375 94.957031 55.179688 94.980469 C 55.753906 95 56.320312 95.039062 56.890625 95.019531 C 57.464844 95.015625 58.039062 94.996094 58.617188 94.980469 C 58.90625 94.972656 59.195312 94.96875 59.480469 94.949219 L 60.339844 94.886719 C 60.914062 94.84375 61.488281 94.792969 62.0625 94.746094 C 62.632812 94.675781 63.203125 94.605469 63.777344 94.527344 L 64.636719 94.410156 L 65.488281 94.261719 C 66.058594 94.160156 66.628906 94.058594 67.195312 93.945312 L 68.890625 93.5625 C 69.175781 93.5 69.457031 93.425781 69.734375 93.347656 L 70.574219 93.117188 C 70.855469 93.042969 71.136719 92.96875 71.417969 92.886719 L 73.082031 92.355469 L 73.90625 92.0625 L 74.734375 91.769531 C 75.007812 91.667969 75.277344 91.550781 75.550781 91.445312 C 75.820312 91.332031 76.09375 91.230469 76.363281 91.109375 L 77.171875 90.757812 C 77.445312 90.640625 77.710938 90.511719 77.976562 90.386719 C 78.246094 90.257812 78.515625 90.132812 78.777344 89.992188 C 79.042969 89.851562 79.308594 89.71875 79.574219 89.566406 C 79.707031 89.492188 79.839844 89.425781 79.976562 89.34375 C 80.117188 89.261719 80.238281 89.195312 80.40625 89.085938 L 89.253906 83.46875 L 78.917969 85.824219 C 77.960938 86.042969 77.007812 86.257812 76.058594 86.488281 L 73.1875 87.066406 C 72.226562 87.226562 71.269531 87.414062 70.304688 87.558594 L 68.859375 87.757812 L 68.140625 87.863281 C 67.898438 87.894531 67.65625 87.917969 67.417969 87.945312 L 65.96875 88.101562 L 65.605469 88.144531 L 65.246094 88.167969 L 64.519531 88.21875 C 64.035156 88.253906 63.554688 88.304688 63.070312 88.328125 L 61.621094 88.390625 C 61.378906 88.398438 61.136719 88.417969 60.894531 88.414062 C 60.652344 88.414062 60.410156 88.417969 60.167969 88.421875 C 59.6875 88.421875 59.203125 88.441406 58.71875 88.433594 C 57.753906 88.40625 56.785156 88.390625 55.824219 88.324219 C 54.855469 88.289062 53.898438 88.171875 52.9375 88.082031 L 51.496094 87.902344 C 51.015625 87.839844 50.542969 87.746094 50.066406 87.671875 C 49.585938 87.605469 49.113281 87.5 48.636719 87.410156 C 48.402344 87.359375 48.164062 87.316406 47.925781 87.265625 L 47.21875 87.097656 L 46.511719 86.933594 L 45.105469 86.558594 L 44.40625 86.34375 L 43.707031 86.136719 L 43.015625 85.902344 C 42.550781 85.75 42.097656 85.574219 41.640625 85.40625 C 40.726562 85.058594 39.824219 84.675781 38.933594 84.257812 C 38.042969 83.84375 37.171875 83.378906 36.3125 82.882812 C 36.097656 82.761719 35.886719 82.628906 35.671875 82.503906 C 35.460938 82.375 35.253906 82.238281 35.042969 82.105469 C 34.625 81.828125 34.214844 81.542969 33.820312 81.230469 C 34.113281 81.644531 34.449219 82.023438 34.792969 82.398438 C 35.140625 82.765625 35.5 83.132812 35.878906 83.472656 C 36.25 83.820312 36.640625 84.152344 37.035156 84.472656 L 37.636719 84.949219 C 37.839844 85.105469 38.050781 85.253906 38.257812 85.40625 C 38.460938 85.558594 38.671875 85.703125 38.886719 85.84375 C 39.097656 85.988281 39.308594 86.136719 39.527344 86.273438 L 40.179688 86.679688 L 40.507812 86.882812 L 40.84375 87.070312 L 41.515625 87.453125 C 41.742188 87.578125 41.972656 87.6875 42.199219 87.808594 L 42.890625 88.160156 L 43.589844 88.488281 L 44.296875 88.804688 L 45.011719 89.097656 L 45.730469 89.390625 L 46.457031 89.65625 L 47.1875 89.914062 C 47.433594 89.996094 47.679688 90.070312 47.929688 90.148438 C 48.421875 90.296875 48.914062 90.460938 49.414062 90.589844 C 49.914062 90.714844 50.414062 90.855469 50.917969 90.96875 L 52.4375 91.296875 C 52.945312 91.398438 53.457031 91.472656 53.964844 91.558594 C 54.476562 91.652344 54.988281 91.710938 55.5 91.773438 C 56.527344 91.925781 57.558594 91.980469 58.589844 92.0625 C 59.105469 92.09375 59.621094 92.105469 60.136719 92.125 C 60.652344 92.148438 61.167969 92.160156 61.683594 92.148438 L 63.230469 92.128906 C 63.746094 92.117188 64.261719 92.078125 64.777344 92.058594 L 65.546875 92.011719 L 65.933594 91.988281 L 66.316406 91.949219 L 67.851562 91.796875 C 68.878906 91.710938 69.890625 91.53125 70.90625 91.386719 C 71.160156 91.351562 71.414062 91.308594 71.664062 91.257812 L 72.421875 91.121094 L 73.933594 90.839844 L 76.921875 90.144531 C 77.910156 89.882812 78.890625 89.605469 79.875 89.328125 L 78.386719 86.066406 C 78.320312 86.113281 78.195312 86.191406 78.09375 86.257812 C 77.992188 86.328125 77.875 86.398438 77.765625 86.464844 C 77.542969 86.605469 77.308594 86.738281 77.078125 86.875 C 76.847656 87.011719 76.613281 87.140625 76.375 87.273438 C 76.140625 87.40625 75.90625 87.539062 75.664062 87.664062 L 74.9375 88.042969 C 74.695312 88.171875 74.445312 88.285156 74.203125 88.40625 L 73.464844 88.765625 L 72.714844 89.105469 L 71.960938 89.449219 L 70.4375 90.089844 C 70.183594 90.199219 69.921875 90.292969 69.664062 90.394531 L 68.890625 90.699219 C 68.636719 90.800781 68.375 90.898438 68.113281 90.984375 L 66.542969 91.546875 C 66.019531 91.726562 65.484375 91.882812 64.953125 92.058594 L 64.15625 92.320312 L 63.351562 92.550781 L 61.738281 93.019531 C 61.195312 93.15625 60.652344 93.289062 60.109375 93.433594 L 59.289062 93.648438 C 59.015625 93.714844 58.742188 93.769531 58.46875 93.832031 C 57.921875 93.957031 57.371094 94.078125 56.820312 94.210938 L 56.40625 94.304688 L 55.984375 94.386719 L 55.148438 94.554688 C 54.589844 94.667969 54.027344 94.777344 53.46875 94.902344 "/><path style=" stroke:none;fill-rule:nonzero;fill:#123c63;fill-opacity:1;" d="M 33.820312 81.230469 C 34.464844 81.355469 35.109375 81.464844 35.753906 81.578125 C 36.078125 81.632812 36.402344 81.691406 36.722656 81.742188 L 37.207031 81.816406 L 37.699219 81.878906 L 39.664062 82.105469 C 39.988281 82.136719 40.320312 82.179688 40.648438 82.199219 L 41.632812 82.269531 L 43.609375 82.390625 C 44.265625 82.414062 44.925781 82.421875 45.585938 82.4375 C 45.917969 82.441406 46.25 82.453125 46.578125 82.453125 L 47.570312 82.433594 C 48.230469 82.417969 48.894531 82.417969 49.554688 82.386719 L 51.539062 82.269531 C 51.871094 82.253906 52.199219 82.21875 52.53125 82.191406 L 53.519531 82.097656 C 54.183594 82.039062 54.839844 81.953125 55.5 81.867188 L 56.488281 81.742188 L 57.476562 81.585938 L 58.460938 81.421875 L 59.445312 81.238281 C 60.101562 81.117188 60.757812 80.976562 61.410156 80.828125 C 61.738281 80.757812 62.0625 80.671875 62.386719 80.59375 C 62.714844 80.511719 63.039062 80.429688 63.367188 80.339844 C 63.695312 80.25 64.019531 80.164062 64.347656 80.0625 C 64.515625 80.015625 64.675781 79.96875 64.84375 79.914062 C 65.015625 79.859375 65.167969 79.8125 65.367188 79.742188 L 78.535156 75.085938 L 64.519531 76.136719 L 61.539062 76.359375 L 58.5625 76.515625 C 57.570312 76.550781 56.578125 76.558594 55.585938 76.589844 C 54.59375 76.59375 53.605469 76.589844 52.613281 76.585938 L 51.132812 76.53125 C 50.636719 76.515625 50.140625 76.515625 49.648438 76.476562 C 48.664062 76.414062 47.675781 76.371094 46.699219 76.265625 C 46.207031 76.222656 45.714844 76.183594 45.222656 76.136719 L 43.757812 75.953125 C 43.515625 75.921875 43.269531 75.898438 43.023438 75.859375 L 42.296875 75.75 C 41.8125 75.671875 41.320312 75.609375 40.835938 75.519531 C 39.871094 75.335938 38.902344 75.164062 37.945312 74.9375 L 37.226562 74.78125 L 36.511719 74.59375 L 35.800781 74.410156 L 35.441406 74.320312 L 35.085938 74.214844 C 34.617188 74.074219 34.140625 73.945312 33.671875 73.796875 C 33.207031 73.640625 32.742188 73.480469 32.273438 73.332031 L 30.886719 72.820312 L 29.519531 72.261719 L 28.171875 71.652344 C 27.734375 71.425781 27.28125 71.222656 26.84375 70.988281 C 26.410156 70.753906 25.96875 70.523438 25.546875 70.269531 C 25.332031 70.144531 25.113281 70.027344 24.902344 69.894531 L 24.273438 69.496094 C 23.433594 68.957031 22.617188 68.382812 21.835938 67.753906 C 21.054688 67.128906 20.292969 66.460938 19.617188 65.695312 C 19.839844 66.15625 20.117188 66.59375 20.410156 67.015625 C 20.699219 67.441406 21.011719 67.855469 21.339844 68.253906 C 22 69.054688 22.722656 69.800781 23.484375 70.511719 C 24.25 71.214844 25.058594 71.878906 25.898438 72.496094 C 26.105469 72.65625 26.320312 72.800781 26.535156 72.953125 L 27.183594 73.394531 C 27.621094 73.675781 28.066406 73.953125 28.511719 74.230469 C 28.964844 74.488281 29.417969 74.75 29.878906 75 L 31.277344 75.714844 C 31.75 75.9375 32.226562 76.152344 32.707031 76.367188 C 33.183594 76.574219 33.671875 76.765625 34.15625 76.964844 C 34.640625 77.171875 35.136719 77.328125 35.628906 77.507812 L 36.371094 77.765625 L 37.121094 77.996094 L 37.871094 78.230469 C 38.121094 78.308594 38.371094 78.382812 38.625 78.445312 L 40.144531 78.839844 C 40.652344 78.964844 41.160156 79.066406 41.671875 79.179688 L 42.4375 79.347656 C 42.695312 79.398438 42.953125 79.4375 43.207031 79.480469 L 44.75 79.746094 C 45.265625 79.820312 45.78125 79.886719 46.300781 79.957031 C 47.332031 80.105469 48.371094 80.171875 49.40625 80.269531 C 50.441406 80.363281 51.480469 80.394531 52.519531 80.445312 C 53.554688 80.460938 54.59375 80.472656 55.628906 80.476562 C 56.664062 80.449219 57.699219 80.421875 58.734375 80.375 C 59.765625 80.308594 60.796875 80.257812 61.828125 80.167969 L 64.90625 79.851562 L 64.058594 76.246094 L 63.660156 76.390625 C 63.519531 76.445312 63.371094 76.492188 63.226562 76.542969 C 62.9375 76.644531 62.636719 76.738281 62.339844 76.835938 C 62.042969 76.933594 61.738281 77.023438 61.4375 77.113281 C 61.132812 77.203125 60.835938 77.296875 60.527344 77.375 C 59.917969 77.542969 59.308594 77.722656 58.691406 77.871094 L 57.765625 78.109375 L 56.835938 78.324219 L 55.90625 78.542969 L 54.96875 78.738281 C 54.34375 78.871094 53.71875 79.007812 53.089844 79.117188 C 52.457031 79.226562 51.832031 79.367188 51.199219 79.464844 L 49.300781 79.777344 C 48.664062 79.882812 48.027344 79.957031 47.390625 80.050781 L 46.433594 80.183594 C 46.113281 80.226562 45.792969 80.261719 45.472656 80.296875 C 44.832031 80.375 44.191406 80.441406 43.550781 80.523438 L 41.617188 80.703125 L 40.652344 80.796875 C 40.328125 80.832031 40.007812 80.839844 39.683594 80.867188 L 37.742188 81.003906 L 37.253906 81.042969 L 36.761719 81.066406 C 36.4375 81.078125 36.109375 81.097656 35.78125 81.117188 C 35.128906 81.152344 34.472656 81.183594 33.820312 81.230469 "/><path style=" stroke:none;fill-rule:nonzero;fill:#123c63;fill-opacity:1;" d="M 19.617188 65.695312 C 19.984375 65.875 20.351562 66.058594 20.722656 66.234375 C 21.09375 66.410156 21.480469 66.554688 21.863281 66.71875 C 22.246094 66.886719 22.636719 67.015625 23.027344 67.152344 L 23.617188 67.355469 C 23.8125 67.417969 24.011719 67.472656 24.210938 67.535156 L 24.808594 67.707031 C 25.007812 67.765625 25.207031 67.824219 25.40625 67.871094 L 26.617188 68.167969 C 27.429688 68.332031 28.242188 68.507812 29.0625 68.636719 C 29.882812 68.78125 30.707031 68.875 31.53125 68.984375 C 32.355469 69.074219 33.183594 69.152344 34.007812 69.210938 C 34.839844 69.28125 35.664062 69.3125 36.496094 69.34375 C 37.324219 69.367188 38.152344 69.390625 38.984375 69.390625 C 39.398438 69.398438 39.8125 69.390625 40.226562 69.382812 C 40.640625 69.375 41.054688 69.375 41.46875 69.355469 L 42.710938 69.316406 L 43.953125 69.257812 C 44.777344 69.207031 45.605469 69.15625 46.429688 69.085938 C 47.257812 69.023438 48.078125 68.949219 48.902344 68.859375 C 49.726562 68.773438 50.546875 68.675781 51.371094 68.574219 C 52.191406 68.46875 53.011719 68.359375 53.828125 68.230469 C 54.648438 68.105469 55.464844 67.972656 56.285156 67.828125 L 57.511719 67.609375 C 57.925781 67.53125 58.324219 67.453125 58.757812 67.355469 L 75.464844 63.722656 L 58.285156 63.667969 L 56.4375 63.660156 L 55.515625 63.65625 C 55.210938 63.65625 54.902344 63.660156 54.59375 63.640625 C 53.980469 63.617188 53.367188 63.589844 52.753906 63.574219 L 51.832031 63.542969 C 51.527344 63.527344 51.222656 63.5 50.914062 63.480469 L 49.082031 63.351562 C 48.929688 63.339844 48.773438 63.332031 48.621094 63.316406 L 48.167969 63.265625 L 47.253906 63.167969 L 46.339844 63.074219 C 46.035156 63.042969 45.730469 63.015625 45.429688 62.96875 L 43.613281 62.707031 C 43.007812 62.632812 42.410156 62.507812 41.808594 62.402344 L 40.90625 62.242188 C 40.605469 62.191406 40.300781 62.144531 40.007812 62.074219 L 38.21875 61.679688 L 37.773438 61.582031 L 37.332031 61.464844 L 36.445312 61.238281 C 35.855469 61.085938 35.261719 60.945312 34.683594 60.757812 C 34.101562 60.582031 33.515625 60.414062 32.933594 60.230469 C 32.359375 60.027344 31.78125 59.832031 31.207031 59.636719 C 30.914062 59.546875 30.632812 59.433594 30.347656 59.324219 L 29.496094 58.996094 C 29.210938 58.886719 28.921875 58.785156 28.644531 58.664062 L 27.808594 58.300781 L 26.964844 57.945312 C 26.683594 57.824219 26.414062 57.6875 26.136719 57.558594 C 25.027344 57.050781 23.949219 56.480469 22.875 55.902344 L 22.078125 55.453125 C 21.8125 55.300781 21.542969 55.15625 21.285156 54.992188 L 20.507812 54.507812 C 20.25 54.347656 19.980469 54.195312 19.730469 54.019531 L 18.964844 53.511719 C 18.710938 53.34375 18.453125 53.175781 18.207031 52.992188 L 17.460938 52.457031 L 17.085938 52.1875 L 16.71875 51.910156 C 16.234375 51.535156 15.742188 51.167969 15.273438 50.769531 L 14.558594 50.183594 L 13.863281 49.574219 L 13.511719 49.269531 L 13.175781 48.957031 L 12.496094 48.324219 L 11.5 47.351562 L 11.179688 47.015625 C 10.308594 46.128906 9.488281 45.199219 8.695312 44.230469 C 8.300781 43.746094 7.914062 43.257812 7.539062 42.753906 C 7.171875 42.246094 6.804688 41.734375 6.460938 41.207031 C 6.683594 41.796875 6.949219 42.371094 7.226562 42.941406 C 7.507812 43.511719 7.800781 44.078125 8.121094 44.628906 C 8.75 45.734375 9.445312 46.804688 10.199219 47.835938 L 10.480469 48.226562 L 10.773438 48.605469 L 11.363281 49.363281 L 11.976562 50.101562 L 12.289062 50.472656 L 12.609375 50.828125 L 13.25 51.546875 C 13.46875 51.78125 13.695312 52.011719 13.917969 52.242188 C 14.363281 52.707031 14.832031 53.148438 15.296875 53.59375 C 16.230469 54.480469 17.222656 55.308594 18.230469 56.113281 C 18.730469 56.519531 19.257812 56.890625 19.777344 57.277344 C 20.035156 57.476562 20.304688 57.648438 20.574219 57.832031 L 21.375 58.375 C 22.457031 59.085938 23.566406 59.757812 24.703125 60.375 C 24.988281 60.53125 25.265625 60.695312 25.554688 60.839844 L 26.421875 61.277344 L 27.292969 61.710938 C 27.582031 61.855469 27.882812 61.976562 28.175781 62.113281 L 29.0625 62.507812 C 29.359375 62.640625 29.65625 62.773438 29.957031 62.886719 C 30.558594 63.128906 31.160156 63.363281 31.765625 63.597656 C 32.375 63.816406 32.988281 64.015625 33.601562 64.226562 C 34.210938 64.449219 34.832031 64.625 35.453125 64.808594 L 36.386719 65.078125 L 36.851562 65.210938 L 37.324219 65.328125 L 39.207031 65.785156 C 39.519531 65.867188 39.839844 65.921875 40.15625 65.988281 L 41.105469 66.179688 C 41.738281 66.304688 42.371094 66.433594 43.007812 66.519531 L 44.921875 66.808594 C 45.242188 66.859375 45.5625 66.890625 45.882812 66.925781 L 46.84375 67.035156 L 47.800781 67.136719 L 48.28125 67.1875 C 48.441406 67.203125 48.605469 67.207031 48.761719 67.21875 L 50.6875 67.34375 C 51.011719 67.359375 51.332031 67.386719 51.652344 67.398438 L 52.613281 67.425781 C 53.257812 67.441406 53.898438 67.453125 54.539062 67.464844 C 54.859375 67.476562 55.179688 67.46875 55.5 67.460938 L 56.464844 67.441406 L 58.382812 67.40625 L 57.914062 63.714844 L 56.765625 63.976562 L 55.589844 64.234375 C 54.804688 64.402344 54.015625 64.5625 53.226562 64.710938 L 50.847656 65.152344 C 50.054688 65.292969 49.261719 65.429688 48.464844 65.554688 C 47.667969 65.679688 46.875 65.808594 46.074219 65.921875 C 45.277344 66.039062 44.480469 66.144531 43.679688 66.246094 L 42.480469 66.394531 L 41.28125 66.527344 C 40.878906 66.574219 40.476562 66.609375 40.078125 66.648438 C 39.675781 66.691406 39.273438 66.726562 38.875 66.757812 C 38.070312 66.832031 37.269531 66.886719 36.464844 66.941406 L 35.257812 67.003906 C 34.855469 67.03125 34.453125 67.046875 34.050781 67.058594 C 33.648438 67.066406 33.246094 67.089844 32.84375 67.089844 L 31.636719 67.105469 C 30.832031 67.101562 30.023438 67.105469 29.21875 67.066406 C 28.414062 67.050781 27.609375 66.988281 26.804688 66.9375 L 25.601562 66.824219 C 25.195312 66.789062 24.800781 66.722656 24.398438 66.675781 C 24.195312 66.648438 23.996094 66.625 23.792969 66.597656 L 23.195312 66.492188 C 22.796875 66.421875 22.390625 66.367188 22 66.273438 C 21.605469 66.1875 21.203125 66.117188 20.808594 66.007812 C 20.414062 65.898438 20.015625 65.796875 19.617188 65.695312 "/><g clip-rule="nonzero" clip-path="url(#2706a2e522)"><path style=" stroke:none;fill-rule:nonzero;fill:#123c63;fill-opacity:1;" d="M 6.152344 40.566406 C 7.011719 41.113281 7.871094 41.664062 8.742188 42.1875 L 10.066406 42.960938 L 10.730469 43.34375 L 11.40625 43.710938 L 12.757812 44.433594 C 13.210938 44.679688 13.671875 44.894531 14.128906 45.125 C 14.589844 45.351562 15.046875 45.585938 15.511719 45.800781 L 16.910156 46.441406 C 17.144531 46.546875 17.375 46.65625 17.613281 46.757812 L 18.320312 47.054688 L 19.742188 47.648438 L 21.179688 48.207031 L 21.902344 48.480469 L 22.628906 48.738281 L 24.085938 49.25 L 25.558594 49.722656 C 26.046875 49.882812 26.542969 50.023438 27.039062 50.164062 C 27.535156 50.304688 28.027344 50.460938 28.527344 50.585938 L 30.027344 50.980469 L 31.535156 51.332031 C 32.039062 51.453125 32.546875 51.550781 33.054688 51.660156 L 33.8125 51.816406 L 34.578125 51.957031 C 35.59375 52.152344 36.617188 52.304688 37.644531 52.457031 L 39.1875 52.65625 L 40.734375 52.828125 L 42.289062 52.957031 C 42.808594 52.988281 43.328125 53.027344 43.847656 53.050781 C 44.886719 53.101562 45.929688 53.136719 46.976562 53.136719 C 48.019531 53.136719 49.066406 53.113281 50.117188 53.050781 C 50.644531 53.019531 51.171875 52.980469 51.703125 52.933594 C 51.96875 52.90625 52.230469 52.886719 52.503906 52.851562 L 52.910156 52.800781 L 53.117188 52.773438 L 53.347656 52.738281 L 64.851562 50.992188 L 53.277344 49.085938 L 50.867188 48.691406 L 48.472656 48.238281 L 46.089844 47.722656 C 45.304688 47.523438 44.511719 47.355469 43.726562 47.152344 C 42.160156 46.742188 40.597656 46.308594 39.0625 45.808594 L 37.910156 45.4375 L 36.765625 45.035156 C 36 44.78125 35.253906 44.480469 34.5 44.195312 C 34.121094 44.054688 33.753906 43.890625 33.378906 43.738281 C 33.007812 43.582031 32.636719 43.433594 32.265625 43.273438 C 31.539062 42.933594 30.792969 42.628906 30.074219 42.269531 L 28.988281 41.742188 L 27.917969 41.1875 C 27.558594 41.007812 27.210938 40.808594 26.859375 40.613281 C 26.511719 40.417969 26.15625 40.226562 25.8125 40.023438 C 24.425781 39.214844 23.074219 38.351562 21.757812 37.4375 C 20.453125 36.507812 19.179688 35.53125 17.953125 34.5 C 16.726562 33.46875 15.566406 32.359375 14.441406 31.21875 C 13.320312 30.070312 12.257812 28.859375 11.253906 27.605469 C 10.246094 26.351562 9.308594 25.039062 8.429688 23.683594 C 7.542969 22.332031 6.734375 20.929688 5.980469 19.492188 C 5.226562 18.058594 4.550781 16.578125 3.933594 15.066406 C 3.625 14.3125 3.332031 13.550781 3.0625 12.777344 C 2.785156 12.007812 2.527344 11.230469 2.289062 10.449219 C 1.808594 8.878906 1.398438 7.285156 1.066406 5.671875 C 0.730469 4.054688 0.460938 2.421875 0.328125 0.765625 C 0.253906 1.59375 0.238281 2.429688 0.25 3.265625 C 0.257812 4.097656 0.292969 4.9375 0.359375 5.769531 C 0.484375 7.441406 0.710938 9.105469 1.023438 10.757812 C 1.335938 12.414062 1.742188 14.050781 2.230469 15.667969 C 2.710938 17.289062 3.296875 18.882812 3.953125 20.445312 C 4.609375 22.011719 5.363281 23.539062 6.183594 25.03125 C 7.011719 26.523438 7.925781 27.96875 8.90625 29.367188 C 9.890625 30.765625 10.960938 32.101562 12.09375 33.390625 C 13.222656 34.675781 14.425781 35.902344 15.6875 37.0625 C 16.953125 38.21875 18.273438 39.320312 19.644531 40.347656 C 21.027344 41.363281 22.441406 42.335938 23.902344 43.226562 C 24.265625 43.453125 24.640625 43.660156 25.007812 43.878906 C 25.378906 44.09375 25.746094 44.3125 26.125 44.511719 L 27.253906 45.121094 L 28.398438 45.699219 C 29.15625 46.09375 29.941406 46.4375 30.714844 46.796875 C 31.105469 46.972656 31.5 47.132812 31.890625 47.300781 C 32.285156 47.464844 32.675781 47.640625 33.074219 47.789062 C 33.867188 48.097656 34.660156 48.417969 35.464844 48.691406 L 36.667969 49.121094 L 37.882812 49.511719 C 39.503906 50.03125 41.140625 50.476562 42.785156 50.894531 C 43.195312 51.003906 43.609375 51.089844 44.023438 51.1875 L 45.261719 51.46875 L 47.753906 51.964844 L 50.253906 52.390625 L 52.761719 52.75 L 52.691406 49.097656 L 52.378906 49.152344 L 52.03125 49.203125 C 51.796875 49.238281 51.554688 49.269531 51.316406 49.300781 C 50.835938 49.355469 50.351562 49.40625 49.863281 49.449219 C 48.890625 49.53125 47.90625 49.582031 46.917969 49.613281 C 45.933594 49.65625 44.941406 49.660156 43.953125 49.652344 C 43.457031 49.648438 42.960938 49.632812 42.464844 49.621094 L 40.976562 49.558594 L 39.488281 49.472656 L 38 49.355469 C 37.011719 49.261719 36.019531 49.15625 35.027344 49.03125 L 34.285156 48.941406 L 33.546875 48.835938 C 33.050781 48.761719 32.554688 48.699219 32.066406 48.609375 L 30.585938 48.363281 L 29.113281 48.085938 C 28.617188 48 28.132812 47.882812 27.640625 47.78125 C 27.152344 47.679688 26.660156 47.578125 26.171875 47.457031 L 24.707031 47.113281 L 23.25 46.734375 L 22.519531 46.546875 L 21.796875 46.335938 L 20.34375 45.925781 L 18.902344 45.476562 L 18.183594 45.25 L 17.464844 45.011719 L 16.03125 44.53125 C 15.550781 44.367188 15.082031 44.1875 14.605469 44.015625 C 14.132812 43.839844 13.652344 43.679688 13.179688 43.492188 L 11.765625 42.941406 L 11.058594 42.664062 L 10.359375 42.371094 L 8.953125 41.789062 C 8.015625 41.394531 7.089844 40.964844 6.152344 40.566406 "/></g><g clip-rule="nonzero" clip-path="url(#b47c4aaa97)"><path style=" stroke:none;fill-rule:nonzero;fill:#123c63;fill-opacity:1;" d="M 0.328125 0.765625 C 0.328125 0.765625 0.398438 0.925781 0.53125 1.234375 C 0.667969 1.542969 0.863281 2.003906 1.136719 2.597656 C 1.277344 2.890625 1.441406 3.222656 1.617188 3.582031 C 1.792969 3.945312 1.988281 4.34375 2.214844 4.757812 C 2.445312 5.175781 2.675781 5.636719 2.949219 6.109375 C 3.230469 6.582031 3.527344 7.082031 3.839844 7.609375 C 5.132812 9.707031 6.890625 12.152344 9.210938 14.726562 C 10.378906 16.003906 11.695312 17.300781 13.152344 18.597656 C 13.523438 18.917969 13.898438 19.238281 14.277344 19.566406 C 14.664062 19.878906 15.0625 20.195312 15.460938 20.515625 C 16.269531 21.144531 17.109375 21.773438 17.992188 22.386719 C 19.75 23.613281 21.660156 24.777344 23.691406 25.886719 C 25.722656 26.992188 27.890625 28.007812 30.152344 28.957031 C 34.683594 30.84375 39.636719 32.359375 44.8125 33.5625 C 47.398438 34.171875 50.042969 34.683594 52.722656 35.144531 C 54.0625 35.375 55.414062 35.59375 56.769531 35.796875 C 58.125 36 59.488281 36.179688 60.855469 36.363281 C 63.585938 36.710938 66.332031 37.054688 69.078125 37.359375 C 71.824219 37.671875 74.5625 37.988281 77.253906 38.367188 C 79.945312 38.742188 82.609375 39.175781 85.074219 39.828125 C 85.386719 39.90625 85.6875 40 85.988281 40.085938 L 86.214844 40.152344 C 86.210938 40.152344 86.296875 40.179688 86.222656 40.15625 L 86.285156 40.175781 L 86.40625 40.214844 L 86.898438 40.378906 L 87.878906 40.703125 C 88.042969 40.757812 88.214844 40.808594 88.367188 40.863281 L 88.816406 41.03125 L 89.710938 41.359375 L 90.160156 41.523438 L 90.609375 41.707031 L 91.511719 42.078125 L 91.960938 42.261719 L 92.402344 42.464844 C 93.582031 42.992188 94.734375 43.554688 95.84375 44.175781 C 96.121094 44.328125 96.398438 44.480469 96.675781 44.636719 C 96.957031 44.785156 97.21875 44.960938 97.488281 45.121094 C 97.757812 45.285156 98.027344 45.449219 98.296875 45.613281 C 98.558594 45.789062 98.816406 45.960938 99.074219 46.136719 C 101.144531 47.539062 103.046875 49.113281 104.714844 50.855469 C 106.386719 52.59375 107.84375 54.484375 109.054688 56.480469 C 110.265625 58.472656 111.253906 60.558594 112.015625 62.679688 C 112.78125 64.800781 113.351562 66.941406 113.742188 69.058594 C 114.140625 71.175781 114.371094 73.257812 114.5 75.277344 C 114.628906 77.296875 114.625 79.246094 114.5625 81.101562 C 114.503906 82.960938 114.355469 84.726562 114.179688 86.386719 C 113.824219 89.707031 113.296875 92.59375 112.796875 94.957031 C 112.285156 97.320312 111.808594 99.171875 111.445312 100.421875 C 111.261719 101.046875 111.125 101.527344 111.023438 101.847656 C 110.921875 102.167969 110.867188 102.335938 110.867188 102.335938 C 110.867188 102.335938 110.949219 102.179688 111.105469 101.878906 C 111.257812 101.578125 111.484375 101.132812 111.753906 100.535156 C 112.296875 99.34375 113.082031 97.585938 113.90625 95.273438 C 114.734375 92.964844 115.625 90.113281 116.371094 86.75 C 117.113281 83.390625 117.707031 79.519531 117.828125 75.222656 C 117.882812 73.074219 117.796875 70.824219 117.546875 68.496094 C 117.492188 67.910156 117.398438 67.328125 117.320312 66.734375 C 117.214844 66.148438 117.128906 65.550781 117.003906 64.953125 C 116.882812 64.359375 116.761719 63.753906 116.609375 63.15625 C 116.53125 62.855469 116.464844 62.550781 116.382812 62.25 C 116.296875 61.949219 116.210938 61.644531 116.125 61.34375 L 115.996094 60.886719 L 115.847656 60.433594 C 115.75 60.132812 115.652344 59.828125 115.550781 59.523438 C 115.441406 59.222656 115.328125 58.921875 115.214844 58.617188 C 115.101562 58.316406 114.992188 58.007812 114.859375 57.710938 C 114.734375 57.410156 114.609375 57.109375 114.480469 56.808594 C 114.355469 56.503906 114.207031 56.210938 114.066406 55.910156 C 113.925781 55.613281 113.792969 55.308594 113.636719 55.011719 C 113.484375 54.71875 113.328125 54.421875 113.171875 54.125 C 113.019531 53.828125 112.851562 53.539062 112.679688 53.246094 C 112.511719 52.953125 112.339844 52.660156 112.167969 52.367188 C 111.984375 52.085938 111.796875 51.800781 111.613281 51.511719 L 111.332031 51.085938 C 111.238281 50.941406 111.136719 50.804688 111.035156 50.664062 C 110.835938 50.386719 110.636719 50.105469 110.433594 49.824219 C 110.234375 49.546875 110.011719 49.28125 109.800781 49.007812 C 109.582031 48.738281 109.378906 48.457031 109.148438 48.195312 C 108.917969 47.929688 108.691406 47.667969 108.460938 47.402344 C 106.625 45.292969 104.472656 43.414062 102.15625 41.738281 C 101.867188 41.53125 101.574219 41.320312 101.285156 41.113281 C 100.984375 40.917969 100.6875 40.71875 100.386719 40.523438 C 100.082031 40.332031 99.789062 40.121094 99.480469 39.941406 C 99.171875 39.761719 98.863281 39.574219 98.550781 39.390625 C 97.308594 38.667969 96.027344 38.011719 94.71875 37.394531 L 94.230469 37.164062 L 92.246094 36.304688 L 91.730469 36.105469 L 90.695312 35.703125 L 90.179688 35.503906 C 90.007812 35.441406 89.851562 35.390625 89.6875 35.332031 L 88.707031 34.996094 L 88.21875 34.828125 L 88.097656 34.785156 L 87.648438 34.648438 C 87.289062 34.539062 86.925781 34.425781 86.566406 34.332031 C 85.128906 33.941406 83.699219 33.632812 82.28125 33.367188 C 80.863281 33.105469 79.453125 32.878906 78.050781 32.683594 C 72.433594 31.929688 66.917969 31.4375 61.523438 30.839844 C 60.175781 30.6875 58.835938 30.527344 57.507812 30.363281 C 56.175781 30.207031 54.859375 30.03125 53.550781 29.851562 C 50.9375 29.480469 48.371094 29.0625 45.859375 28.59375 C 40.851562 27.632812 36.070312 26.449219 31.683594 24.929688 C 27.289062 23.421875 23.277344 21.613281 19.769531 19.589844 C 18.011719 18.582031 16.378906 17.523438 14.878906 16.4375 C 13.375 15.359375 12.015625 14.242188 10.761719 13.15625 C 8.285156 10.949219 6.300781 8.804688 4.773438 6.945312 C 3.25 5.078125 2.15625 3.515625 1.421875 2.441406 C 0.710938 1.347656 0.328125 0.765625 0.328125 0.765625 "/></g></g></g></g></g></svg>