<svg xmlns="http://www.w3.org/2000/svg" xmlns:xlink="http://www.w3.org/1999/xlink" width="500" zoomAndPan="magnify" viewBox="0 0 375 374.999991" height="500" preserveAspectRatio="xMidYMid meet" version="1.2"><defs><clipPath id="e0045dd8bf"><path d="M 138.136719 84.03125 L 237 84.03125 L 237 234 L 138.136719 234 Z M 138.136719 84.03125 "/></clipPath><clipPath id="1a2d6dd9d6"><path d="M 293.257812 78.765625 L 357.664062 78.765625 L 357.664062 130.992188 L 293.257812 130.992188 Z M 293.257812 78.765625 "/></clipPath><clipPath id="8c349fb306"><path d="M 240.449219 78.765625 L 357.664062 78.765625 L 357.664062 180.007812 L 240.449219 180.007812 Z M 240.449219 78.765625 "/></clipPath><clipPath id="14d8a08308"><path d="M 13.625 78.765625 L 78.03125 78.765625 L 78.03125 130.992188 L 13.625 130.992188 Z M 13.625 78.765625 "/></clipPath><clipPath id="5fe895d1e9"><path d="M 13.625 78.765625 L 130.84375 78.765625 L 130.84375 180.007812 L 13.625 180.007812 Z M 13.625 78.765625 "/></clipPath></defs><g id="ece4a5eb09"><rect x="0" width="375" y="0" height="374.999991" style="fill:#ffffff;fill-opacity:1;stroke:none;"/><rect x="0" width="375" y="0" height="374.999991" style="fill:#ffffff;fill-opacity:1;stroke:none;"/><g clip-rule="nonzero" clip-path="url(#e0045dd8bf)"><path style=" stroke:none;fill-rule:nonzero;fill:#46b07d;fill-opacity:1;" d="M 187.492188 84.898438 C 160.222656 84.898438 138.105469 107.011719 138.105469 134.296875 C 138.105469 161.570312 187.492188 233.0625 187.492188 233.0625 C 187.492188 233.0625 236.882812 161.570312 236.882812 134.296875 C 236.882812 107.011719 214.765625 84.898438 187.492188 84.898438 Z M 187.492188 157.679688 C 173.136719 157.679688 161.5 146.054688 161.5 131.683594 C 161.5 117.339844 173.136719 105.699219 187.492188 105.699219 C 201.851562 105.699219 213.476562 117.339844 213.476562 131.683594 C 213.476562 146.054688 201.851562 157.679688 187.492188 157.679688 Z M 187.492188 157.679688 "/></g><path style=" stroke:none;fill-rule:nonzero;fill:#123c63;fill-opacity:1;" d="M 249.574219 176.851562 C 249.574219 176.851562 249.707031 176.664062 249.949219 176.3125 C 250.011719 176.226562 250.082031 176.128906 250.15625 176.019531 C 250.242188 175.917969 250.332031 175.808594 250.433594 175.6875 C 250.535156 175.566406 250.644531 175.4375 250.761719 175.296875 C 250.878906 175.152344 251.019531 175.027344 251.160156 174.878906 C 251.304688 174.734375 251.457031 174.582031 251.617188 174.421875 C 251.78125 174.265625 251.964844 174.121094 252.152344 173.960938 C 252.34375 173.804688 252.53125 173.621094 252.753906 173.46875 C 252.972656 173.316406 253.199219 173.15625 253.433594 172.988281 C 253.554688 172.910156 253.671875 172.816406 253.800781 172.742188 C 253.929688 172.667969 254.058594 172.59375 254.191406 172.515625 C 254.457031 172.363281 254.730469 172.199219 255.019531 172.046875 C 255.3125 171.90625 255.617188 171.769531 255.929688 171.625 C 256.085938 171.558594 256.242188 171.480469 256.40625 171.414062 C 256.570312 171.355469 256.734375 171.292969 256.902344 171.234375 C 257.242188 171.113281 257.585938 170.988281 257.945312 170.875 C 258.304688 170.78125 258.671875 170.683594 259.046875 170.585938 C 259.234375 170.539062 259.421875 170.484375 259.617188 170.445312 C 259.808594 170.410156 260.003906 170.378906 260.199219 170.34375 C 260.597656 170.28125 260.996094 170.214844 261.402344 170.148438 C 263.03125 169.988281 264.769531 169.898438 266.539062 170.058594 C 266.980469 170.09375 267.429688 170.125 267.878906 170.167969 C 268.320312 170.234375 268.769531 170.304688 269.214844 170.371094 C 269.441406 170.40625 269.667969 170.441406 269.894531 170.476562 C 270.117188 170.511719 270.347656 170.539062 270.570312 170.59375 C 271.015625 170.695312 271.464844 170.796875 271.914062 170.898438 C 272.136719 170.949219 272.363281 171 272.589844 171.054688 C 272.816406 171.105469 273.042969 171.15625 273.261719 171.226562 C 273.707031 171.351562 274.152344 171.480469 274.597656 171.617188 C 275.03125 171.746094 275.464844 171.878906 275.898438 172.007812 L 277.183594 172.414062 C 277.402344 172.488281 277.597656 172.539062 277.804688 172.597656 L 278.414062 172.773438 C 278.816406 172.894531 279.234375 173 279.652344 173.105469 C 280.070312 173.214844 280.484375 173.320312 280.902344 173.414062 C 281.316406 173.507812 281.730469 173.621094 282.148438 173.695312 C 282.980469 173.867188 283.808594 174.011719 284.628906 174.152344 C 285.039062 174.210938 285.449219 174.269531 285.855469 174.328125 C 286.261719 174.378906 286.664062 174.425781 287.066406 174.472656 C 288.675781 174.640625 290.238281 174.726562 291.726562 174.730469 C 292.097656 174.734375 292.464844 174.722656 292.828125 174.71875 C 293.1875 174.714844 293.542969 174.6875 293.894531 174.679688 C 294.246094 174.667969 294.589844 174.640625 294.929688 174.621094 C 295.269531 174.589844 295.601562 174.5625 295.925781 174.535156 C 297.230469 174.410156 298.425781 174.226562 299.484375 174.023438 C 300.539062 173.824219 301.457031 173.597656 302.210938 173.390625 C 303.71875 172.972656 304.570312 172.625 304.570312 172.625 C 304.570312 172.625 304.527344 172.664062 304.445312 172.738281 C 304.359375 172.808594 304.234375 172.917969 304.066406 173.050781 C 303.726562 173.316406 303.214844 173.6875 302.523438 174.105469 C 301.835938 174.527344 300.96875 174.992188 299.933594 175.453125 C 298.898438 175.910156 297.699219 176.359375 296.351562 176.742188 C 296.015625 176.835938 295.667969 176.925781 295.316406 177.011719 C 294.960938 177.09375 294.597656 177.183594 294.226562 177.257812 C 293.488281 177.410156 292.714844 177.535156 291.914062 177.644531 C 290.316406 177.847656 288.613281 177.945312 286.855469 177.90625 C 286.414062 177.890625 285.972656 177.882812 285.523438 177.859375 C 285.078125 177.824219 284.632812 177.789062 284.179688 177.753906 C 283.730469 177.703125 283.277344 177.652344 282.820312 177.601562 C 282.367188 177.542969 281.914062 177.464844 281.457031 177.394531 C 281 177.328125 280.550781 177.226562 280.09375 177.144531 C 279.867188 177.097656 279.636719 177.058594 279.410156 177.007812 L 278.730469 176.84375 C 278.277344 176.738281 277.824219 176.636719 277.363281 176.496094 L 276.675781 176.304688 C 276.453125 176.238281 276.210938 176.179688 276.003906 176.109375 C 275.152344 175.835938 274.296875 175.558594 273.449219 175.289062 C 273.039062 175.15625 272.628906 175.023438 272.21875 174.886719 C 272.015625 174.8125 271.8125 174.761719 271.605469 174.707031 C 271.402344 174.652344 271.195312 174.59375 270.992188 174.539062 C 270.582031 174.429688 270.171875 174.316406 269.769531 174.207031 C 269.566406 174.144531 269.363281 174.109375 269.160156 174.0625 C 268.957031 174.015625 268.753906 173.972656 268.550781 173.929688 C 268.148438 173.839844 267.746094 173.75 267.347656 173.664062 C 266.945312 173.601562 266.550781 173.53125 266.15625 173.46875 C 265.957031 173.433594 265.761719 173.402344 265.5625 173.371094 C 265.464844 173.351562 265.367188 173.332031 265.269531 173.320312 L 264.980469 173.292969 C 264.589844 173.257812 264.203125 173.214844 263.824219 173.171875 C 263.632812 173.15625 263.441406 173.121094 263.253906 173.117188 C 263.066406 173.113281 262.878906 173.105469 262.691406 173.097656 C 262.316406 173.085938 261.949219 173.070312 261.582031 173.050781 C 261.21875 173.0625 260.863281 173.070312 260.507812 173.078125 C 260.332031 173.082031 260.15625 173.085938 259.980469 173.089844 C 259.808594 173.105469 259.636719 173.125 259.46875 173.136719 C 259.125 173.167969 258.789062 173.199219 258.460938 173.230469 C 258.132812 173.285156 257.816406 173.339844 257.5 173.390625 C 257.34375 173.414062 257.1875 173.441406 257.03125 173.464844 C 256.878906 173.492188 256.730469 173.535156 256.582031 173.570312 C 256.289062 173.644531 255.996094 173.71875 255.710938 173.78125 C 255.429688 173.863281 255.160156 173.957031 254.894531 174.039062 C 254.761719 174.082031 254.628906 174.125 254.5 174.167969 C 254.371094 174.207031 254.25 174.261719 254.128906 174.308594 C 253.882812 174.40625 253.644531 174.503906 253.414062 174.59375 C 253.296875 174.636719 253.191406 174.695312 253.082031 174.746094 C 252.976562 174.796875 252.871094 174.847656 252.765625 174.898438 C 252.558594 175 252.355469 175.089844 252.167969 175.191406 C 251.984375 175.296875 251.804688 175.394531 251.636719 175.492188 C 251.292969 175.675781 251.011719 175.867188 250.753906 176.03125 C 250.625 176.113281 250.507812 176.191406 250.398438 176.257812 C 250.292969 176.335938 250.195312 176.40625 250.109375 176.46875 C 249.761719 176.71875 249.574219 176.851562 249.574219 176.851562 "/><path style=" stroke:none;fill-rule:nonzero;fill:#123c63;fill-opacity:1;" d="M 304.613281 172.597656 C 304.042969 172.632812 303.476562 172.652344 302.90625 172.675781 C 302.339844 172.695312 301.773438 172.734375 301.203125 172.714844 C 300.628906 172.710938 300.058594 172.691406 299.484375 172.675781 C 299.195312 172.667969 298.90625 172.664062 298.621094 172.648438 L 297.765625 172.582031 C 297.191406 172.542969 296.621094 172.488281 296.046875 172.441406 C 295.480469 172.371094 294.910156 172.300781 294.339844 172.222656 L 293.484375 172.105469 L 292.632812 171.960938 C 292.066406 171.859375 291.5 171.757812 290.933594 171.644531 L 289.242188 171.261719 C 288.957031 171.199219 288.679688 171.125 288.402344 171.046875 L 287.5625 170.820312 C 287.28125 170.742188 287 170.671875 286.722656 170.585938 L 285.894531 170.324219 L 285.0625 170.058594 L 284.242188 169.769531 L 283.417969 169.476562 C 283.144531 169.371094 282.875 169.257812 282.605469 169.152344 C 282.332031 169.039062 282.058594 168.9375 281.792969 168.820312 L 280.984375 168.464844 C 280.714844 168.351562 280.449219 168.222656 280.183594 168.09375 C 279.917969 167.96875 279.648438 167.84375 279.386719 167.703125 C 279.121094 167.566406 278.859375 167.433594 278.59375 167.28125 C 278.457031 167.207031 278.328125 167.136719 278.191406 167.058594 C 278.054688 166.972656 277.933594 166.90625 277.765625 166.800781 L 268.945312 161.199219 L 279.25 163.546875 C 280.199219 163.765625 281.152344 163.980469 282.097656 164.210938 L 284.960938 164.789062 C 285.917969 164.949219 286.871094 165.132812 287.832031 165.277344 L 289.269531 165.476562 L 289.992188 165.582031 C 290.230469 165.613281 290.472656 165.636719 290.710938 165.664062 L 292.152344 165.820312 L 292.515625 165.859375 L 292.875 165.886719 L 293.597656 165.9375 C 294.082031 165.972656 294.5625 166.023438 295.042969 166.046875 L 296.488281 166.105469 C 296.730469 166.113281 296.972656 166.132812 297.210938 166.132812 C 297.453125 166.132812 297.695312 166.132812 297.933594 166.136719 C 298.417969 166.140625 298.898438 166.15625 299.378906 166.148438 C 300.34375 166.121094 301.308594 166.109375 302.265625 166.042969 C 303.230469 166.003906 304.183594 165.886719 305.144531 165.800781 L 306.578125 165.621094 C 307.058594 165.558594 307.53125 165.464844 308.007812 165.390625 C 308.484375 165.324219 308.953125 165.21875 309.429688 165.128906 C 309.664062 165.082031 309.902344 165.039062 310.136719 164.984375 L 310.84375 164.816406 L 311.550781 164.65625 L 312.25 164.46875 L 312.953125 164.28125 L 313.644531 164.070312 L 314.34375 163.859375 L 315.03125 163.625 C 315.496094 163.476562 315.945312 163.300781 316.402344 163.132812 C 317.316406 162.789062 318.214844 162.402344 319.101562 161.988281 C 319.992188 161.578125 320.855469 161.113281 321.714844 160.621094 C 321.929688 160.5 322.136719 160.367188 322.351562 160.238281 C 322.566406 160.113281 322.773438 159.976562 322.980469 159.84375 C 323.394531 159.566406 323.804688 159.28125 324.199219 158.972656 C 323.90625 159.382812 323.570312 159.761719 323.230469 160.132812 C 322.882812 160.503906 322.527344 160.867188 322.148438 161.207031 C 321.777344 161.554688 321.390625 161.882812 320.992188 162.203125 L 320.394531 162.679688 C 320.191406 162.832031 319.984375 162.980469 319.777344 163.132812 C 319.574219 163.285156 319.363281 163.425781 319.148438 163.570312 C 318.9375 163.710938 318.726562 163.859375 318.511719 164 L 317.859375 164.402344 L 317.53125 164.601562 L 317.199219 164.792969 L 316.527344 165.171875 C 316.304688 165.300781 316.074219 165.410156 315.84375 165.527344 L 315.160156 165.878906 L 314.460938 166.203125 L 313.757812 166.519531 L 312.328125 167.105469 L 311.601562 167.367188 L 310.875 167.625 C 310.628906 167.707031 310.382812 167.78125 310.136719 167.859375 C 309.644531 168.007812 309.152344 168.171875 308.65625 168.296875 C 308.15625 168.421875 307.660156 168.566406 307.15625 168.675781 L 305.640625 169.003906 C 305.136719 169.105469 304.628906 169.179688 304.117188 169.265625 C 303.609375 169.359375 303.097656 169.414062 302.585938 169.480469 C 301.566406 169.628906 300.539062 169.6875 299.511719 169.765625 C 298.996094 169.800781 298.480469 169.808594 297.96875 169.832031 C 297.453125 169.851562 296.9375 169.863281 296.425781 169.851562 L 294.882812 169.832031 C 294.367188 169.820312 293.855469 169.785156 293.34375 169.761719 L 292.574219 169.714844 L 292.191406 169.691406 L 291.808594 169.65625 L 290.277344 169.503906 C 289.253906 169.417969 288.246094 169.238281 287.234375 169.09375 C 286.980469 169.0625 286.726562 169.015625 286.476562 168.964844 L 285.722656 168.828125 L 284.21875 168.546875 L 281.238281 167.855469 C 280.253906 167.59375 279.273438 167.316406 278.292969 167.042969 L 279.777344 163.789062 C 279.84375 163.839844 279.96875 163.917969 280.066406 163.984375 C 280.167969 164.050781 280.289062 164.121094 280.398438 164.191406 C 280.617188 164.328125 280.851562 164.460938 281.078125 164.597656 C 281.308594 164.730469 281.546875 164.863281 281.78125 164.996094 C 282.015625 165.125 282.25 165.261719 282.492188 165.382812 L 283.214844 165.761719 C 283.453125 165.886719 283.703125 166 283.949219 166.121094 L 284.683594 166.480469 L 285.433594 166.820312 L 286.179688 167.164062 L 286.941406 167.480469 L 287.699219 167.800781 C 287.953125 167.910156 288.210938 168.003906 288.46875 168.105469 L 289.242188 168.40625 C 289.496094 168.507812 289.753906 168.609375 290.015625 168.695312 L 291.582031 169.253906 C 292.105469 169.433594 292.636719 169.589844 293.164062 169.765625 L 293.960938 170.023438 L 294.761719 170.253906 L 296.371094 170.71875 C 296.910156 170.855469 297.453125 170.992188 297.996094 171.132812 L 298.8125 171.347656 C 299.082031 171.414062 299.355469 171.46875 299.628906 171.53125 C 300.175781 171.65625 300.722656 171.777344 301.273438 171.90625 L 301.6875 172.003906 L 302.105469 172.082031 L 302.941406 172.25 C 303.5 172.363281 304.054688 172.472656 304.613281 172.597656 "/><path style=" stroke:none;fill-rule:nonzero;fill:#123c63;fill-opacity:1;" d="M 324.199219 158.972656 C 323.558594 159.097656 322.914062 159.203125 322.269531 159.316406 C 321.949219 159.371094 321.625 159.429688 321.304688 159.480469 L 320.820312 159.554688 L 320.335938 159.617188 L 318.375 159.839844 C 318.050781 159.871094 317.71875 159.917969 317.394531 159.9375 L 316.410156 160.007812 L 314.441406 160.128906 C 313.785156 160.152344 313.128906 160.15625 312.46875 160.171875 C 312.140625 160.179688 311.8125 160.1875 311.480469 160.1875 L 310.492188 160.171875 C 309.835938 160.152344 309.175781 160.152344 308.515625 160.121094 L 306.539062 160.003906 C 306.207031 159.988281 305.878906 159.953125 305.550781 159.925781 L 304.5625 159.835938 C 303.902344 159.777344 303.246094 159.6875 302.589844 159.605469 L 301.601562 159.480469 L 300.621094 159.324219 L 299.636719 159.164062 L 298.65625 158.976562 C 298.003906 158.859375 297.351562 158.71875 296.699219 158.570312 C 296.371094 158.5 296.046875 158.414062 295.722656 158.335938 C 295.398438 158.253906 295.074219 158.171875 294.746094 158.082031 C 294.421875 157.992188 294.097656 157.90625 293.769531 157.808594 C 293.605469 157.757812 293.445312 157.714844 293.273438 157.660156 C 293.105469 157.605469 292.953125 157.558594 292.753906 157.488281 L 279.628906 152.84375 L 293.597656 153.890625 L 296.570312 154.113281 L 299.539062 154.269531 C 300.527344 154.308594 301.515625 154.3125 302.503906 154.34375 C 303.492188 154.347656 304.480469 154.347656 305.464844 154.339844 L 306.945312 154.289062 C 307.433594 154.273438 307.929688 154.269531 308.421875 154.234375 C 309.402344 154.167969 310.386719 154.128906 311.363281 154.023438 C 311.851562 153.980469 312.34375 153.941406 312.832031 153.890625 L 314.292969 153.710938 C 314.535156 153.679688 314.78125 153.652344 315.023438 153.617188 L 315.75 153.507812 C 316.234375 153.429688 316.722656 153.367188 317.203125 153.28125 C 318.167969 153.09375 319.132812 152.921875 320.085938 152.699219 L 320.804688 152.542969 L 321.515625 152.355469 L 322.226562 152.171875 L 322.582031 152.082031 L 322.9375 151.980469 C 323.40625 151.839844 323.878906 151.707031 324.34375 151.5625 C 324.808594 151.402344 325.273438 151.246094 325.742188 151.097656 L 327.121094 150.585938 L 328.484375 150.027344 L 329.828125 149.421875 C 330.265625 149.195312 330.71875 148.996094 331.152344 148.761719 C 331.585938 148.527344 332.023438 148.296875 332.445312 148.042969 C 332.660156 147.917969 332.878906 147.800781 333.085938 147.671875 L 333.71875 147.273438 C 334.550781 146.738281 335.363281 146.164062 336.144531 145.539062 C 336.925781 144.914062 337.683594 144.25 338.355469 143.484375 C 338.132812 143.945312 337.855469 144.378906 337.566406 144.800781 C 337.277344 145.226562 336.96875 145.640625 336.636719 146.035156 C 335.980469 146.835938 335.261719 147.578125 334.5 148.285156 C 333.738281 148.988281 332.933594 149.648438 332.09375 150.261719 C 331.886719 150.425781 331.671875 150.570312 331.460938 150.71875 L 330.816406 151.160156 C 330.375 151.441406 329.933594 151.714844 329.492188 151.992188 C 329.039062 152.25 328.585938 152.511719 328.128906 152.761719 L 326.734375 153.472656 C 326.261719 153.695312 325.785156 153.910156 325.308594 154.125 C 324.832031 154.328125 324.347656 154.519531 323.863281 154.71875 C 323.382812 154.925781 322.886719 155.082031 322.394531 155.257812 L 321.65625 155.515625 L 320.910156 155.75 L 320.160156 155.980469 C 319.914062 156.058594 319.664062 156.132812 319.410156 156.195312 L 317.898438 156.585938 C 317.390625 156.710938 316.882812 156.8125 316.371094 156.925781 L 315.609375 157.09375 C 315.355469 157.144531 315.097656 157.183594 314.839844 157.226562 L 313.304688 157.492188 C 312.789062 157.566406 312.273438 157.628906 311.761719 157.699219 C 310.730469 157.851562 309.695312 157.917969 308.664062 158.015625 C 307.628906 158.105469 306.59375 158.136719 305.5625 158.1875 C 304.527344 158.203125 303.492188 158.214844 302.460938 158.21875 C 301.429688 158.191406 300.394531 158.164062 299.367188 158.121094 C 298.335938 158.050781 297.308594 158 296.28125 157.910156 L 293.210938 157.59375 L 294.058594 154 L 294.457031 154.148438 C 294.59375 154.199219 294.746094 154.246094 294.886719 154.296875 C 295.175781 154.402344 295.476562 154.496094 295.773438 154.589844 C 296.070312 154.6875 296.371094 154.777344 296.671875 154.867188 C 296.972656 154.953125 297.273438 155.050781 297.578125 155.128906 C 298.1875 155.292969 298.792969 155.472656 299.410156 155.625 L 300.328125 155.859375 L 301.257812 156.074219 L 302.183594 156.289062 L 303.117188 156.488281 C 303.742188 156.621094 304.363281 156.757812 304.992188 156.863281 C 305.621094 156.972656 306.246094 157.113281 306.875 157.210938 L 308.769531 157.519531 C 309.402344 157.625 310.039062 157.703125 310.671875 157.792969 L 311.625 157.929688 C 311.945312 157.972656 312.265625 158.003906 312.582031 158.042969 C 313.222656 158.117188 313.859375 158.183594 314.5 158.265625 L 316.425781 158.441406 L 317.390625 158.539062 C 317.714844 158.574219 318.03125 158.582031 318.355469 158.605469 L 320.289062 158.746094 L 320.777344 158.785156 L 321.265625 158.808594 C 321.589844 158.820312 321.917969 158.839844 322.242188 158.855469 C 322.894531 158.894531 323.546875 158.921875 324.199219 158.972656 "/><path style=" stroke:none;fill-rule:nonzero;fill:#123c63;fill-opacity:1;" d="M 338.355469 143.484375 C 337.988281 143.664062 337.621094 143.847656 337.253906 144.023438 C 336.886719 144.199219 336.5 144.34375 336.117188 144.503906 C 335.738281 144.671875 335.347656 144.800781 334.957031 144.9375 L 334.371094 145.140625 C 334.175781 145.203125 333.976562 145.257812 333.777344 145.316406 L 333.183594 145.492188 C 332.984375 145.550781 332.785156 145.605469 332.585938 145.652344 L 331.378906 145.949219 C 330.570312 146.113281 329.757812 146.289062 328.941406 146.417969 C 328.125 146.558594 327.304688 146.65625 326.480469 146.761719 C 325.660156 146.851562 324.835938 146.933594 324.011719 146.988281 C 323.183594 147.058594 322.359375 147.089844 321.53125 147.125 C 320.707031 147.144531 319.878906 147.167969 319.054688 147.167969 C 318.640625 147.175781 318.226562 147.167969 317.8125 147.160156 C 317.402344 147.152344 316.988281 147.152344 316.574219 147.136719 L 315.335938 147.097656 L 314.101562 147.035156 C 313.277344 146.984375 312.453125 146.933594 311.628906 146.867188 C 310.808594 146.804688 309.984375 146.726562 309.164062 146.640625 C 308.34375 146.550781 307.523438 146.457031 306.707031 146.355469 C 305.886719 146.25 305.070312 146.140625 304.253906 146.011719 C 303.4375 145.890625 302.621094 145.753906 301.808594 145.613281 L 300.582031 145.390625 C 300.171875 145.316406 299.773438 145.238281 299.34375 145.140625 L 282.691406 141.519531 L 299.8125 141.464844 L 301.652344 141.457031 L 302.574219 141.453125 C 302.878906 141.453125 303.1875 141.457031 303.492188 141.4375 C 304.101562 141.414062 304.714844 141.386719 305.328125 141.371094 L 306.246094 141.339844 C 306.550781 141.324219 306.855469 141.300781 307.160156 141.277344 L 308.988281 141.148438 C 309.140625 141.136719 309.292969 141.128906 309.445312 141.113281 L 309.898438 141.0625 L 311.71875 140.875 C 312.023438 140.839844 312.328125 140.816406 312.628906 140.765625 L 314.4375 140.507812 C 315.042969 140.433594 315.636719 140.308594 316.238281 140.203125 L 317.136719 140.046875 C 317.4375 139.992188 317.738281 139.945312 318.03125 139.875 L 320.257812 139.386719 L 320.699219 139.269531 L 321.582031 139.042969 C 322.171875 138.890625 322.761719 138.75 323.339844 138.5625 C 323.921875 138.386719 324.503906 138.222656 325.082031 138.035156 C 325.65625 137.835938 326.230469 137.640625 326.804688 137.449219 C 327.09375 137.355469 327.378906 137.246094 327.660156 137.136719 L 328.511719 136.808594 C 328.792969 136.699219 329.082031 136.597656 329.359375 136.476562 L 330.191406 136.117188 L 331.03125 135.761719 C 331.3125 135.640625 331.582031 135.503906 331.859375 135.375 C 332.964844 134.871094 334.039062 134.300781 335.109375 133.726562 L 335.902344 133.273438 C 336.167969 133.125 336.4375 132.980469 336.691406 132.816406 L 337.46875 132.335938 C 337.726562 132.171875 337.992188 132.019531 338.242188 131.847656 L 339.007812 131.34375 C 339.261719 131.171875 339.515625 131.007812 339.761719 130.824219 L 340.503906 130.289062 L 340.878906 130.023438 L 341.242188 129.746094 C 341.730469 129.371094 342.21875 129.003906 342.6875 128.609375 L 343.398438 128.023438 L 344.09375 127.417969 L 344.441406 127.113281 L 344.777344 126.800781 L 345.457031 126.171875 L 346.117188 125.523438 L 346.445312 125.199219 L 346.765625 124.867188 C 347.632812 123.984375 348.453125 123.054688 349.242188 122.089844 C 349.636719 121.609375 350.023438 121.121094 350.394531 120.617188 C 350.761719 120.113281 351.125 119.601562 351.46875 119.074219 C 351.246094 119.664062 350.980469 120.238281 350.707031 120.804688 C 350.425781 121.371094 350.136719 121.9375 349.816406 122.484375 C 349.1875 123.585938 348.496094 124.65625 347.742188 125.683594 L 347.464844 126.070312 L 346.585938 127.207031 L 345.972656 127.941406 L 345.660156 128.308594 L 345.34375 128.667969 L 344.703125 129.382812 C 344.484375 129.617188 344.257812 129.84375 344.035156 130.074219 C 343.59375 130.539062 343.128906 130.976562 342.660156 131.421875 C 341.734375 132.308594 340.746094 133.128906 339.738281 133.933594 C 339.238281 134.339844 338.710938 134.710938 338.195312 135.09375 C 337.9375 135.292969 337.667969 135.464844 337.402344 135.648438 L 336.601562 136.191406 C 335.527344 136.898438 334.421875 137.566406 333.285156 138.183594 C 333.003906 138.335938 332.726562 138.503906 332.4375 138.648438 L 331.574219 139.082031 L 330.707031 139.511719 C 330.417969 139.65625 330.117188 139.78125 329.824219 139.914062 L 328.941406 140.308594 C 328.644531 140.4375 328.351562 140.574219 328.050781 140.6875 C 327.449219 140.925781 326.847656 141.164062 326.246094 141.394531 C 325.640625 141.613281 325.027344 141.8125 324.417969 142.023438 C 323.808594 142.242188 323.1875 142.417969 322.570312 142.601562 L 321.640625 142.871094 L 321.175781 143.003906 L 320.707031 143.117188 L 318.828125 143.574219 C 318.515625 143.65625 318.199219 143.710938 317.882812 143.777344 L 316.9375 143.964844 C 316.308594 144.09375 315.675781 144.21875 315.039062 144.304688 L 313.132812 144.59375 C 312.816406 144.648438 312.496094 144.675781 312.175781 144.714844 L 311.21875 144.820312 L 310.261719 144.921875 L 309.785156 144.972656 C 309.625 144.988281 309.464844 144.992188 309.304688 145.003906 L 307.386719 145.128906 C 307.066406 145.144531 306.746094 145.171875 306.425781 145.183594 L 305.464844 145.207031 C 304.824219 145.226562 304.1875 145.238281 303.546875 145.25 C 303.226562 145.261719 302.90625 145.25 302.585938 145.246094 L 301.628906 145.226562 L 299.714844 145.191406 L 300.183594 141.511719 L 301.328125 141.773438 L 302.5 142.03125 C 303.285156 142.195312 304.070312 142.355469 304.855469 142.503906 L 307.226562 142.945312 C 308.015625 143.085938 308.808594 143.21875 309.601562 143.347656 C 310.394531 143.46875 311.1875 143.597656 311.984375 143.710938 C 312.777344 143.828125 313.574219 143.933594 314.371094 144.03125 L 315.566406 144.179688 L 316.761719 144.316406 C 317.164062 144.363281 317.5625 144.394531 317.960938 144.4375 C 318.363281 144.476562 318.761719 144.511719 319.160156 144.546875 C 319.960938 144.621094 320.761719 144.671875 321.5625 144.726562 L 322.765625 144.792969 C 323.167969 144.816406 323.566406 144.832031 323.96875 144.84375 C 324.367188 144.851562 324.769531 144.878906 325.171875 144.878906 L 326.375 144.890625 C 327.179688 144.886719 327.984375 144.890625 328.785156 144.851562 C 329.589844 144.835938 330.386719 144.773438 331.191406 144.722656 L 332.394531 144.609375 C 332.796875 144.578125 333.191406 144.507812 333.59375 144.460938 C 333.792969 144.433594 333.992188 144.414062 334.191406 144.382812 L 334.789062 144.28125 C 335.1875 144.207031 335.589844 144.15625 335.980469 144.0625 C 336.375 143.972656 336.773438 143.90625 337.167969 143.796875 C 337.5625 143.6875 337.960938 143.589844 338.355469 143.484375 "/><g clip-rule="nonzero" clip-path="url(#1a2d6dd9d6)"><path style=" stroke:none;fill-rule:nonzero;fill:#123c63;fill-opacity:1;" d="M 351.777344 118.4375 C 350.921875 118.984375 350.066406 119.53125 349.195312 120.054688 L 347.875 120.824219 L 347.210938 121.207031 L 346.539062 121.570312 L 345.191406 122.292969 C 344.742188 122.535156 344.28125 122.753906 343.824219 122.984375 C 343.367188 123.207031 342.914062 123.441406 342.449219 123.65625 L 341.054688 124.292969 C 340.820312 124.398438 340.589844 124.507812 340.355469 124.609375 L 339.648438 124.90625 L 338.230469 125.5 L 336.796875 126.050781 L 336.078125 126.328125 L 335.351562 126.582031 L 333.902344 127.089844 L 332.433594 127.5625 C 331.945312 127.722656 331.453125 127.863281 330.957031 128.003906 C 330.464844 128.144531 329.972656 128.300781 329.472656 128.425781 L 327.980469 128.816406 L 326.476562 129.167969 C 325.972656 129.289062 325.46875 129.386719 324.964844 129.492188 L 324.207031 129.652344 L 323.445312 129.792969 C 322.429688 129.984375 321.410156 130.140625 320.386719 130.289062 L 318.847656 130.492188 L 317.304688 130.660156 L 315.757812 130.789062 C 315.238281 130.820312 314.722656 130.859375 314.203125 130.882812 C 313.167969 130.929688 312.128906 130.96875 311.085938 130.96875 C 310.042969 130.96875 309 130.941406 307.953125 130.882812 C 307.429688 130.851562 306.902344 130.8125 306.375 130.765625 C 306.109375 130.738281 305.847656 130.714844 305.578125 130.683594 L 305.171875 130.632812 L 304.964844 130.605469 L 304.734375 130.570312 L 293.269531 128.828125 L 304.804688 126.929688 L 307.207031 126.535156 L 309.59375 126.085938 L 311.96875 125.570312 C 312.75 125.375 313.542969 125.207031 314.324219 125 C 315.886719 124.59375 317.441406 124.164062 318.972656 123.664062 L 320.121094 123.292969 L 321.261719 122.894531 C 322.023438 122.636719 322.769531 122.339844 323.523438 122.054688 C 323.898438 121.914062 324.265625 121.753906 324.636719 121.601562 C 325.007812 121.445312 325.378906 121.296875 325.746094 121.132812 C 326.472656 120.796875 327.21875 120.492188 327.933594 120.132812 L 329.015625 119.609375 L 330.082031 119.058594 C 330.441406 118.878906 330.789062 118.679688 331.136719 118.484375 C 331.484375 118.289062 331.839844 118.101562 332.179688 117.894531 C 333.5625 117.09375 334.910156 116.230469 336.222656 115.320312 C 337.523438 114.394531 338.792969 113.417969 340.015625 112.390625 C 341.238281 111.363281 342.394531 110.257812 343.515625 109.117188 C 344.632812 107.976562 345.691406 106.769531 346.695312 105.519531 C 347.695312 104.269531 348.632812 102.960938 349.507812 101.609375 C 350.390625 100.265625 351.199219 98.863281 351.949219 97.433594 C 352.699219 96 353.375 94.523438 353.992188 93.019531 C 354.296875 92.269531 354.589844 91.507812 354.859375 90.738281 C 355.136719 89.972656 355.390625 89.199219 355.628906 88.417969 C 356.105469 86.855469 356.515625 85.265625 356.847656 83.65625 C 357.179688 82.046875 357.453125 80.417969 357.582031 78.765625 C 357.660156 79.589844 357.671875 80.425781 357.660156 81.257812 C 357.652344 82.089844 357.621094 82.921875 357.550781 83.753906 C 357.425781 85.417969 357.199219 87.078125 356.890625 88.726562 C 356.578125 90.375 356.171875 92.007812 355.6875 93.621094 C 355.207031 95.234375 354.625 96.824219 353.96875 98.382812 C 353.316406 99.941406 352.566406 101.464844 351.746094 102.953125 C 350.921875 104.4375 350.011719 105.878906 349.035156 107.273438 C 348.054688 108.667969 346.984375 110 345.855469 111.285156 C 344.730469 112.566406 343.53125 113.789062 342.273438 114.945312 C 341.011719 116.097656 339.695312 117.195312 338.328125 118.21875 C 336.953125 119.230469 335.542969 120.199219 334.085938 121.089844 C 333.722656 121.316406 333.351562 121.523438 332.980469 121.738281 C 332.613281 121.953125 332.246094 122.171875 331.867188 122.367188 L 330.742188 122.976562 L 329.601562 123.554688 C 328.847656 123.945312 328.066406 124.289062 327.296875 124.648438 C 326.90625 124.824219 326.511719 124.980469 326.121094 125.148438 C 325.730469 125.3125 325.339844 125.488281 324.945312 125.636719 C 324.152344 125.941406 323.363281 126.261719 322.558594 126.539062 L 321.359375 126.964844 L 320.148438 127.351562 C 318.535156 127.871094 316.902344 128.316406 315.261719 128.730469 C 314.855469 128.84375 314.441406 128.925781 314.027344 129.023438 L 312.792969 129.304688 L 310.308594 129.800781 L 307.820312 130.222656 L 305.320312 130.582031 L 305.390625 126.941406 L 305.699219 126.996094 L 306.046875 127.046875 C 306.28125 127.082031 306.523438 127.113281 306.757812 127.144531 C 307.238281 127.199219 307.722656 127.25 308.207031 127.289062 C 309.179688 127.375 310.160156 127.425781 311.140625 127.457031 C 312.125 127.5 313.113281 127.5 314.101562 127.496094 C 314.59375 127.492188 315.089844 127.472656 315.582031 127.464844 L 317.066406 127.402344 L 318.546875 127.316406 L 320.03125 127.199219 C 321.019531 127.105469 322.007812 127 322.992188 126.875 L 323.734375 126.785156 L 324.472656 126.679688 C 324.964844 126.609375 325.457031 126.542969 325.949219 126.457031 L 327.421875 126.207031 L 328.890625 125.929688 C 329.382812 125.847656 329.871094 125.730469 330.359375 125.628906 C 330.847656 125.527344 331.335938 125.425781 331.820312 125.304688 L 333.28125 124.964844 L 334.734375 124.585938 L 335.460938 124.398438 L 336.183594 124.191406 L 337.628906 123.78125 L 339.066406 123.332031 L 339.785156 123.109375 L 340.5 122.867188 L 341.933594 122.390625 C 342.410156 122.226562 342.875 122.046875 343.351562 121.875 C 343.824219 121.703125 344.304688 121.542969 344.769531 121.355469 L 346.179688 120.804688 L 346.886719 120.53125 L 347.585938 120.238281 L 348.988281 119.65625 C 349.921875 119.265625 350.839844 118.832031 351.777344 118.4375 "/></g><g clip-rule="nonzero" clip-path="url(#8c349fb306)"><path style=" stroke:none;fill-rule:nonzero;fill:#123c63;fill-opacity:1;" d="M 357.582031 78.765625 C 357.582031 78.765625 357.515625 78.921875 357.378906 79.230469 C 357.242188 79.539062 357.050781 80 356.777344 80.589844 C 356.636719 80.886719 356.476562 81.210938 356.296875 81.574219 C 356.121094 81.933594 355.929688 82.332031 355.699219 82.746094 C 355.472656 83.164062 355.242188 83.621094 354.972656 84.09375 C 354.691406 84.5625 354.394531 85.0625 354.082031 85.589844 C 352.792969 87.675781 351.042969 90.117188 348.730469 92.679688 C 347.566406 93.957031 346.253906 95.246094 344.800781 96.542969 C 344.433594 96.859375 344.058594 97.179688 343.679688 97.503906 C 343.292969 97.816406 342.898438 98.132812 342.5 98.453125 C 341.691406 99.078125 340.855469 99.707031 339.976562 100.316406 C 338.222656 101.539062 336.320312 102.703125 334.292969 103.804688 C 332.269531 104.910156 330.109375 105.921875 327.855469 106.863281 C 323.335938 108.746094 318.402344 110.257812 313.242188 111.457031 C 310.664062 112.0625 308.027344 112.574219 305.355469 113.035156 C 304.019531 113.261719 302.675781 113.480469 301.324219 113.683594 C 299.972656 113.886719 298.617188 114.066406 297.253906 114.246094 C 294.527344 114.597656 291.789062 114.9375 289.054688 115.242188 C 286.320312 115.550781 283.589844 115.867188 280.902344 116.246094 C 278.222656 116.621094 275.570312 117.050781 273.109375 117.703125 C 272.796875 117.78125 272.5 117.871094 272.199219 117.960938 L 271.976562 118.027344 C 271.976562 118.027344 271.890625 118.054688 271.964844 118.027344 L 271.90625 118.050781 L 271.78125 118.089844 L 271.292969 118.253906 L 270.3125 118.574219 C 270.152344 118.628906 269.980469 118.679688 269.828125 118.734375 L 269.382812 118.898438 L 268.488281 119.226562 L 268.039062 119.390625 L 267.589844 119.574219 L 266.691406 119.945312 L 266.246094 120.128906 L 265.804688 120.328125 C 264.632812 120.855469 263.480469 121.417969 262.375 122.035156 C 262.097656 122.1875 261.820312 122.339844 261.546875 122.492188 C 261.265625 122.640625 261.003906 122.816406 260.734375 122.980469 C 260.464844 123.140625 260.199219 123.304688 259.929688 123.46875 C 259.671875 123.644531 259.414062 123.816406 259.152344 123.992188 C 257.089844 125.386719 255.195312 126.957031 253.53125 128.695312 C 251.867188 130.429688 250.414062 132.3125 249.207031 134.300781 C 248 136.289062 247.015625 138.367188 246.257812 140.480469 C 245.492188 142.59375 244.925781 144.726562 244.535156 146.839844 C 244.136719 148.945312 243.910156 151.027344 243.78125 153.035156 C 243.652344 155.046875 243.65625 156.992188 243.71875 158.84375 C 243.777344 160.695312 243.921875 162.457031 244.097656 164.113281 C 244.457031 167.421875 244.980469 170.296875 245.480469 172.652344 C 245.988281 175.007812 246.460938 176.851562 246.824219 178.097656 C 247.007812 178.722656 247.144531 179.199219 247.246094 179.519531 C 247.347656 179.839844 247.402344 180.007812 247.402344 180.007812 C 247.402344 180.007812 247.320312 179.851562 247.164062 179.554688 C 247.011719 179.253906 246.785156 178.808594 246.515625 178.214844 C 245.976562 177.027344 245.195312 175.273438 244.375 172.96875 C 243.546875 170.667969 242.65625 167.824219 241.914062 164.472656 C 241.175781 161.125 240.582031 157.265625 240.460938 152.980469 C 240.410156 150.839844 240.492188 148.597656 240.742188 146.277344 C 240.800781 145.695312 240.890625 145.113281 240.96875 144.523438 C 241.074219 143.933594 241.160156 143.339844 241.285156 142.746094 C 241.40625 142.152344 241.523438 141.550781 241.679688 140.953125 C 241.753906 140.652344 241.820312 140.351562 241.902344 140.050781 C 241.988281 139.75 242.074219 139.449219 242.160156 139.148438 L 242.289062 138.691406 L 242.433594 138.242188 C 242.535156 137.9375 242.632812 137.636719 242.730469 137.332031 C 242.84375 137.035156 242.953125 136.734375 243.066406 136.429688 C 243.179688 136.128906 243.289062 135.824219 243.421875 135.527344 C 243.546875 135.226562 243.671875 134.929688 243.800781 134.625 C 243.921875 134.324219 244.074219 134.03125 244.210938 133.730469 C 244.355469 133.433594 244.484375 133.132812 244.640625 132.839844 C 244.792969 132.542969 244.949219 132.25 245.105469 131.953125 C 245.253906 131.65625 245.425781 131.367188 245.59375 131.074219 C 245.761719 130.785156 245.933594 130.496094 246.101562 130.203125 C 246.289062 129.917969 246.472656 129.632812 246.65625 129.347656 L 246.9375 128.921875 C 247.03125 128.777344 247.132812 128.640625 247.230469 128.503906 C 247.429688 128.226562 247.632812 127.945312 247.832031 127.667969 C 248.03125 127.386719 248.253906 127.125 248.464844 126.851562 C 248.679688 126.582031 248.886719 126.300781 249.113281 126.042969 C 249.34375 125.777344 249.570312 125.515625 249.796875 125.253906 C 251.628906 123.148438 253.773438 121.273438 256.082031 119.605469 C 256.371094 119.398438 256.664062 119.191406 256.953125 118.980469 C 257.25 118.785156 257.550781 118.589844 257.847656 118.394531 C 258.148438 118.203125 258.441406 117.996094 258.753906 117.816406 C 259.058594 117.632812 259.367188 117.449219 259.675781 117.265625 C 260.914062 116.546875 262.195312 115.890625 263.496094 115.277344 L 263.984375 115.046875 L 264.476562 114.832031 L 265.46875 114.402344 L 265.964844 114.191406 L 266.476562 113.988281 L 268.023438 113.390625 C 268.191406 113.328125 268.347656 113.277344 268.511719 113.21875 L 269.488281 112.882812 L 269.976562 112.71875 L 270.097656 112.675781 L 270.273438 112.621094 L 270.542969 112.539062 C 270.90625 112.429688 271.265625 112.316406 271.621094 112.226562 C 273.058594 111.832031 274.480469 111.527344 275.894531 111.261719 C 277.308594 111 278.714844 110.773438 280.113281 110.578125 C 285.707031 109.828125 291.210938 109.339844 296.585938 108.742188 C 297.929688 108.589844 299.265625 108.433594 300.589844 108.269531 C 301.914062 108.113281 303.226562 107.9375 304.53125 107.757812 C 307.136719 107.386719 309.695312 106.96875 312.199219 106.503906 C 317.191406 105.546875 321.953125 104.363281 326.332031 102.851562 C 330.710938 101.351562 334.707031 99.546875 338.203125 97.527344 C 339.957031 96.527344 341.582031 95.46875 343.078125 94.386719 C 344.578125 93.308594 345.933594 92.199219 347.183594 91.113281 C 349.652344 88.917969 351.628906 86.777344 353.152344 84.925781 C 354.671875 83.0625 355.761719 81.507812 356.492188 80.4375 C 357.203125 79.34375 357.582031 78.765625 357.582031 78.765625 "/></g><g style="fill:#123c63;fill-opacity:1;"><g transform="translate(15.019796, 280.645388)"><path style="stroke:none" d="M 50.890625 0 L 38.015625 0 L 35.15625 -4.96875 L 16.046875 -4.96875 L 13.203125 0 L 0.3125 0 L 19.703125 -30.28125 L 31.515625 -30.28125 Z M 30.875 -12.453125 L 25.609375 -21.640625 L 20.34375 -12.453125 Z M 30.875 -12.453125 "/></g></g><g style="fill:#123c63;fill-opacity:1;"><g transform="translate(66.227037, 280.645388)"><path style="stroke:none" d="M 44.75 0 L 32.734375 0 C 32.179688 -0.757812 31.796875 -1.734375 31.578125 -2.921875 C 31.378906 -3.828125 31.082031 -4.71875 30.6875 -5.59375 C 30.289062 -6.476562 29.609375 -7.210938 28.640625 -7.796875 C 27.679688 -8.378906 26.25 -8.695312 24.34375 -8.75 L 16.09375 -8.75 L 16.09375 0 L 3.375 0 L 3.375 -30.296875 L 24.046875 -30.296875 C 28.992188 -30.296875 32.984375 -29.925781 36.015625 -29.1875 C 39.046875 -28.457031 41.257812 -27.296875 42.65625 -25.703125 C 44.050781 -24.117188 44.75 -22.054688 44.75 -19.515625 C 44.75 -17.390625 44.265625 -15.597656 43.296875 -14.140625 C 42.335938 -12.691406 40.816406 -11.546875 38.734375 -10.703125 C 40.742188 -9.878906 42.046875 -8.882812 42.640625 -7.71875 C 43.242188 -6.550781 43.613281 -5.273438 43.75 -3.890625 C 43.894531 -2.648438 44.226562 -1.351562 44.75 0 Z M 16.09375 -16.21875 L 23.359375 -16.234375 C 25.378906 -16.234375 26.972656 -16.320312 28.140625 -16.5 C 29.316406 -16.6875 30.179688 -16.9375 30.734375 -17.25 C 31.296875 -17.570312 31.648438 -17.925781 31.796875 -18.3125 C 31.953125 -18.707031 32.03125 -19.109375 32.03125 -19.515625 C 32.03125 -19.921875 31.953125 -20.320312 31.796875 -20.71875 C 31.648438 -21.113281 31.296875 -21.46875 30.734375 -21.78125 C 30.179688 -22.101562 29.316406 -22.351562 28.140625 -22.53125 C 26.972656 -22.71875 25.378906 -22.8125 23.359375 -22.8125 L 16.09375 -22.8125 Z M 16.09375 -16.21875 "/></g></g><g style="fill:#123c63;fill-opacity:1;"><g transform="translate(112.661976, 280.645388)"><path style="stroke:none" d="M 22.90625 0.65625 C 15.414062 0.65625 9.90625 -0.882812 6.375 -3.96875 C 3.25 -6.6875 1.6875 -10.40625 1.6875 -15.125 C 1.6875 -19.832031 3.25 -23.554688 6.375 -26.296875 C 9.90625 -29.359375 15.414062 -30.890625 22.90625 -30.890625 C 27.300781 -30.890625 30.9375 -30.382812 33.8125 -29.375 C 36.6875 -28.375 38.914062 -27 40.5 -25.25 C 42.09375 -23.507812 43.148438 -21.515625 43.671875 -19.265625 L 30.296875 -19.265625 C 28.960938 -21.609375 26.5 -22.78125 22.90625 -22.78125 C 19.84375 -22.78125 17.585938 -21.894531 16.140625 -20.125 C 14.984375 -18.71875 14.40625 -17.050781 14.40625 -15.125 C 14.40625 -13.195312 14.984375 -11.523438 16.140625 -10.109375 C 17.585938 -8.335938 19.84375 -7.453125 22.90625 -7.453125 C 26.5 -7.453125 28.960938 -8.632812 30.296875 -11 L 43.671875 -11 C 43.148438 -8.738281 42.09375 -6.734375 40.5 -4.984375 C 38.914062 -3.234375 36.6875 -1.851562 33.8125 -0.84375 C 30.9375 0.15625 27.300781 0.65625 22.90625 0.65625 Z M 22.90625 0.65625 "/></g></g><g style="fill:#123c63;fill-opacity:1;"><g transform="translate(158.019964, 280.645388)"><path style="stroke:none" d="M 22.90625 0.65625 C 15.414062 0.65625 9.90625 -0.882812 6.375 -3.96875 C 3.25 -6.695312 1.6875 -10.414062 1.6875 -15.125 C 1.6875 -19.832031 3.25 -23.554688 6.375 -26.296875 C 9.90625 -29.378906 15.414062 -30.921875 22.90625 -30.921875 C 27.175781 -30.921875 30.722656 -30.441406 33.546875 -29.484375 C 36.378906 -28.523438 38.601562 -27.21875 40.21875 -25.5625 C 41.832031 -23.90625 42.9375 -22 43.53125 -19.84375 L 29.921875 -19.84375 C 28.503906 -21.800781 26.164062 -22.78125 22.90625 -22.78125 C 19.84375 -22.78125 17.585938 -21.898438 16.140625 -20.140625 C 14.984375 -18.722656 14.40625 -17.050781 14.40625 -15.125 C 14.40625 -13.195312 14.984375 -11.523438 16.140625 -10.109375 C 17.585938 -8.347656 19.84375 -7.46875 22.90625 -7.46875 C 25.382812 -7.46875 27.25 -7.679688 28.5 -8.109375 C 29.75 -8.546875 30.660156 -9.109375 31.234375 -9.796875 L 26.265625 -9.796875 L 26.265625 -15.125 L 43.53125 -15.125 L 43.53125 0.015625 L 38.25 0.015625 L 37.171875 -2.921875 C 33.804688 -0.535156 29.050781 0.65625 22.90625 0.65625 Z M 22.90625 0.65625 "/></g></g><g style="fill:#123c63;fill-opacity:1;"><g transform="translate(204.074809, 280.645388)"><path style="stroke:none" d="M 21.3125 0.65625 C 13.914062 0.65625 8.710938 -0.878906 5.703125 -3.953125 C 3.171875 -6.523438 1.90625 -10.25 1.90625 -15.125 L 1.90625 -30.28125 L 14.609375 -30.28125 L 14.609375 -15.125 C 14.609375 -13.007812 14.96875 -11.335938 15.6875 -10.109375 C 16.71875 -8.347656 18.59375 -7.46875 21.3125 -7.46875 C 24.050781 -7.46875 25.929688 -8.347656 26.953125 -10.109375 C 27.671875 -11.378906 28.03125 -13.050781 28.03125 -15.125 L 28.03125 -30.28125 L 40.734375 -30.28125 L 40.734375 -14.953125 C 40.734375 -10.191406 39.472656 -6.523438 36.953125 -3.953125 C 33.929688 -0.878906 28.71875 0.65625 21.3125 0.65625 Z M 21.3125 0.65625 "/></g></g><g style="fill:#123c63;fill-opacity:1;"><g transform="translate(246.708799, 280.645388)"><path style="stroke:none" d="M 16.09375 0 L 3.375 0 L 3.375 -30.296875 L 16.09375 -30.296875 Z M 16.09375 0 "/></g></g><g style="fill:#123c63;fill-opacity:1;"><g transform="translate(266.178103, 280.645388)"><path style="stroke:none" d="M 23.65625 0 L 3.375 0 L 3.375 -30.296875 L 23.65625 -30.296875 C 31.945312 -30.296875 37.910156 -29.132812 41.546875 -26.8125 C 44.472656 -24.945312 46.140625 -22.398438 46.546875 -19.171875 C 46.722656 -17.773438 46.8125 -16.429688 46.8125 -15.140625 C 46.8125 -13.859375 46.722656 -12.515625 46.546875 -11.109375 C 46.378906 -9.710938 45.914062 -8.351562 45.15625 -7.03125 C 44.394531 -5.71875 43.1875 -4.535156 41.53125 -3.484375 C 39.875 -2.429688 37.601562 -1.585938 34.71875 -0.953125 C 31.84375 -0.316406 28.15625 0 23.65625 0 Z M 22.453125 -7.5 C 28.910156 -7.5 32.5625 -9.128906 33.40625 -12.390625 C 33.632812 -13.304688 33.75 -14.222656 33.75 -15.140625 C 33.75 -16.066406 33.628906 -16.984375 33.390625 -17.890625 C 33.160156 -18.804688 32.671875 -19.632812 31.921875 -20.375 C 31.171875 -21.113281 30.039062 -21.703125 28.53125 -22.140625 C 27.019531 -22.585938 24.992188 -22.8125 22.453125 -22.8125 L 16.09375 -22.8125 L 16.09375 -7.5 Z M 22.453125 -7.5 "/></g></g><g style="fill:#123c63;fill-opacity:1;"><g transform="translate(314.682448, 280.645388)"><path style="stroke:none" d="M 39.875 0 L 3.375 0 L 3.375 -30.296875 L 38.203125 -30.296875 L 38.203125 -22.8125 L 16.09375 -22.8125 L 16.09375 -18.0625 L 34.78125 -18.0625 L 34.78125 -12.234375 L 16.09375 -12.234375 L 16.09375 -7.5 L 39.875 -7.5 Z M 39.875 0 "/></g></g><path style=" stroke:none;fill-rule:nonzero;fill:#123c63;fill-opacity:1;" d="M 121.714844 176.851562 C 121.714844 176.851562 121.585938 176.664062 121.339844 176.3125 C 121.28125 176.226562 121.210938 176.128906 121.132812 176.019531 C 121.050781 175.917969 120.957031 175.808594 120.855469 175.6875 C 120.753906 175.566406 120.644531 175.4375 120.527344 175.296875 C 120.414062 175.152344 120.269531 175.027344 120.128906 174.878906 C 119.984375 174.734375 119.835938 174.582031 119.675781 174.421875 C 119.511719 174.265625 119.324219 174.121094 119.136719 173.960938 C 118.949219 173.804688 118.757812 173.621094 118.539062 173.46875 C 118.320312 173.316406 118.089844 173.15625 117.855469 172.988281 C 117.734375 172.910156 117.621094 172.816406 117.492188 172.742188 C 117.363281 172.667969 117.230469 172.59375 117.097656 172.515625 C 116.832031 172.363281 116.558594 172.199219 116.269531 172.046875 C 115.980469 171.90625 115.675781 171.769531 115.363281 171.625 C 115.207031 171.558594 115.046875 171.480469 114.886719 171.414062 C 114.722656 171.355469 114.554688 171.292969 114.386719 171.234375 C 114.050781 171.113281 113.703125 170.988281 113.347656 170.875 C 112.984375 170.78125 112.617188 170.683594 112.242188 170.585938 C 112.054688 170.539062 111.867188 170.484375 111.675781 170.445312 C 111.480469 170.410156 111.285156 170.378906 111.089844 170.34375 C 110.695312 170.28125 110.292969 170.214844 109.886719 170.148438 C 108.257812 169.988281 106.519531 169.898438 104.753906 170.058594 C 104.308594 170.09375 103.863281 170.125 103.414062 170.167969 C 102.96875 170.234375 102.523438 170.304688 102.074219 170.371094 C 101.847656 170.40625 101.625 170.441406 101.398438 170.476562 C 101.171875 170.511719 100.941406 170.539062 100.71875 170.59375 C 100.273438 170.695312 99.828125 170.796875 99.375 170.898438 C 99.152344 170.949219 98.925781 171 98.699219 171.054688 C 98.472656 171.105469 98.246094 171.15625 98.027344 171.226562 C 97.582031 171.351562 97.136719 171.480469 96.695312 171.617188 C 96.261719 171.746094 95.828125 171.878906 95.394531 172.007812 L 94.105469 172.414062 C 93.886719 172.488281 93.691406 172.539062 93.488281 172.597656 L 92.875 172.773438 C 92.472656 172.894531 92.054688 173 91.636719 173.105469 C 91.222656 173.214844 90.804688 173.320312 90.390625 173.414062 C 89.972656 173.507812 89.558594 173.621094 89.140625 173.695312 C 88.3125 173.867188 87.484375 174.011719 86.664062 174.152344 C 86.25 174.210938 85.84375 174.269531 85.4375 174.328125 C 85.027344 174.378906 84.625 174.425781 84.222656 174.472656 C 82.617188 174.640625 81.054688 174.726562 79.566406 174.730469 C 79.195312 174.734375 78.828125 174.722656 78.464844 174.71875 C 78.101562 174.714844 77.746094 174.6875 77.394531 174.679688 C 77.042969 174.667969 76.699219 174.640625 76.359375 174.621094 C 76.023438 174.589844 75.6875 174.5625 75.363281 174.535156 C 74.058594 174.410156 72.863281 174.226562 71.808594 174.023438 C 70.75 173.824219 69.832031 173.597656 69.078125 173.390625 C 67.570312 172.972656 66.722656 172.625 66.722656 172.625 C 66.722656 172.625 66.765625 172.664062 66.847656 172.738281 C 66.929688 172.808594 67.054688 172.917969 67.226562 173.050781 C 67.566406 173.316406 68.078125 173.6875 68.769531 174.105469 C 69.457031 174.527344 70.324219 174.992188 71.355469 175.453125 C 72.390625 175.910156 73.589844 176.359375 74.9375 176.742188 C 75.277344 176.835938 75.621094 176.925781 75.976562 177.011719 C 76.332031 177.09375 76.691406 177.183594 77.0625 177.257812 C 77.804688 177.410156 78.578125 177.535156 79.375 177.644531 C 80.972656 177.847656 82.675781 177.945312 84.4375 177.90625 C 84.875 177.890625 85.320312 177.882812 85.765625 177.859375 C 86.210938 177.824219 86.660156 177.789062 87.113281 177.753906 C 87.5625 177.703125 88.015625 177.652344 88.46875 177.601562 C 88.921875 177.542969 89.375 177.464844 89.832031 177.394531 C 90.289062 177.328125 90.738281 177.226562 91.195312 177.144531 C 91.425781 177.097656 91.652344 177.058594 91.882812 177.007812 L 92.558594 176.84375 C 93.015625 176.738281 93.46875 176.636719 93.925781 176.496094 L 94.613281 176.304688 C 94.839844 176.238281 95.082031 176.179688 95.289062 176.109375 C 96.140625 175.835938 96.992188 175.558594 97.839844 175.289062 C 98.253906 175.15625 98.660156 175.023438 99.070312 174.886719 C 99.273438 174.8125 99.480469 174.761719 99.683594 174.707031 C 99.890625 174.652344 100.09375 174.59375 100.300781 174.539062 C 100.710938 174.429688 101.117188 174.316406 101.523438 174.207031 C 101.722656 174.144531 101.929688 174.109375 102.132812 174.0625 C 102.335938 174.015625 102.535156 173.972656 102.738281 173.929688 C 103.144531 173.839844 103.546875 173.75 103.945312 173.664062 C 104.34375 173.601562 104.742188 173.53125 105.136719 173.46875 C 105.335938 173.433594 105.53125 173.402344 105.726562 173.371094 C 105.824219 173.351562 105.921875 173.332031 106.019531 173.320312 L 106.3125 173.292969 C 106.699219 173.257812 107.085938 173.214844 107.46875 173.171875 C 107.660156 173.15625 107.851562 173.121094 108.039062 173.117188 C 108.226562 173.113281 108.414062 173.105469 108.601562 173.097656 C 108.972656 173.085938 109.34375 173.070312 109.707031 173.050781 C 110.070312 173.0625 110.429688 173.070312 110.78125 173.078125 C 110.960938 173.082031 111.136719 173.085938 111.308594 173.089844 C 111.480469 173.105469 111.652344 173.125 111.824219 173.136719 C 112.164062 173.167969 112.5 173.199219 112.832031 173.230469 C 113.15625 173.285156 113.476562 173.339844 113.789062 173.390625 C 113.945312 173.414062 114.105469 173.441406 114.257812 173.464844 C 114.410156 173.492188 114.558594 173.535156 114.707031 173.570312 C 115.003906 173.644531 115.292969 173.71875 115.582031 173.78125 C 115.863281 173.863281 116.128906 173.957031 116.398438 174.039062 C 116.527344 174.082031 116.660156 174.125 116.789062 174.167969 C 116.917969 174.207031 117.039062 174.261719 117.164062 174.308594 C 117.410156 174.40625 117.644531 174.503906 117.875 174.59375 C 117.992188 174.636719 118.097656 174.695312 118.207031 174.746094 C 118.316406 174.796875 118.421875 174.847656 118.523438 174.898438 C 118.730469 175 118.9375 175.089844 119.121094 175.191406 C 119.308594 175.296875 119.484375 175.394531 119.652344 175.492188 C 120 175.675781 120.28125 175.867188 120.535156 176.03125 C 120.664062 176.113281 120.785156 176.191406 120.894531 176.257812 C 121 176.335938 121.09375 176.40625 121.183594 176.46875 C 121.53125 176.71875 121.714844 176.851562 121.714844 176.851562 "/><path style=" stroke:none;fill-rule:nonzero;fill:#123c63;fill-opacity:1;" d="M 66.679688 172.597656 C 67.246094 172.632812 67.816406 172.652344 68.382812 172.675781 C 68.953125 172.695312 69.519531 172.734375 70.089844 172.714844 C 70.660156 172.710938 71.234375 172.691406 71.808594 172.675781 C 72.09375 172.667969 72.382812 172.664062 72.667969 172.648438 L 73.527344 172.582031 C 74.097656 172.542969 74.667969 172.488281 75.242188 172.441406 C 75.8125 172.371094 76.382812 172.300781 76.949219 172.222656 L 77.808594 172.105469 L 78.65625 171.960938 C 79.226562 171.859375 79.792969 171.757812 80.359375 171.644531 L 82.050781 171.261719 C 82.332031 171.199219 82.613281 171.125 82.890625 171.046875 L 83.726562 170.820312 C 84.007812 170.742188 84.289062 170.671875 84.566406 170.585938 L 85.398438 170.324219 L 86.226562 170.058594 L 87.050781 169.769531 L 87.875 169.476562 C 88.144531 169.371094 88.414062 169.257812 88.6875 169.152344 C 88.957031 169.039062 89.230469 168.9375 89.5 168.820312 L 90.304688 168.464844 C 90.574219 168.351562 90.839844 168.222656 91.105469 168.09375 C 91.375 167.96875 91.640625 167.84375 91.90625 167.703125 C 92.167969 167.566406 92.433594 167.433594 92.699219 167.28125 C 92.832031 167.207031 92.960938 167.136719 93.097656 167.058594 C 93.238281 166.972656 93.359375 166.90625 93.527344 166.800781 L 102.34375 161.199219 L 92.042969 163.546875 C 91.089844 163.765625 90.140625 163.980469 89.191406 164.210938 L 86.332031 164.789062 C 85.371094 164.949219 84.417969 165.132812 83.460938 165.277344 L 82.019531 165.476562 L 81.300781 165.582031 C 81.058594 165.613281 80.820312 165.636719 80.578125 165.664062 L 79.136719 165.820312 L 78.777344 165.859375 L 78.414062 165.886719 L 77.691406 165.9375 C 77.210938 165.972656 76.730469 166.023438 76.246094 166.046875 L 74.800781 166.105469 C 74.5625 166.113281 74.320312 166.132812 74.078125 166.132812 C 73.835938 166.132812 73.597656 166.132812 73.355469 166.136719 C 72.875 166.140625 72.390625 166.15625 71.910156 166.148438 C 70.949219 166.121094 69.984375 166.109375 69.023438 166.042969 C 68.058594 166.003906 67.105469 165.886719 66.144531 165.800781 L 64.710938 165.621094 C 64.234375 165.558594 63.761719 165.464844 63.285156 165.390625 C 62.804688 165.324219 62.335938 165.21875 61.863281 165.128906 C 61.625 165.082031 61.386719 165.039062 61.152344 164.984375 L 60.449219 164.816406 L 59.742188 164.65625 L 59.039062 164.46875 L 58.339844 164.28125 L 57.644531 164.070312 L 56.945312 163.859375 L 56.257812 163.625 C 55.796875 163.476562 55.34375 163.300781 54.886719 163.132812 C 53.976562 162.789062 53.078125 162.402344 52.191406 161.988281 C 51.300781 161.578125 50.433594 161.113281 49.578125 160.621094 C 49.359375 160.5 49.152344 160.367188 48.9375 160.238281 C 48.726562 160.113281 48.519531 159.976562 48.308594 159.84375 C 47.894531 159.566406 47.484375 159.28125 47.089844 158.972656 C 47.382812 159.382812 47.71875 159.761719 48.0625 160.132812 C 48.410156 160.503906 48.765625 160.867188 49.140625 161.207031 C 49.511719 161.554688 49.902344 161.882812 50.296875 162.203125 L 50.894531 162.679688 C 51.097656 162.832031 51.308594 162.980469 51.511719 163.132812 C 51.71875 163.285156 51.929688 163.425781 52.140625 163.570312 C 52.351562 163.710938 52.5625 163.859375 52.777344 164 L 53.433594 164.402344 L 53.757812 164.601562 L 54.09375 164.792969 L 54.761719 165.171875 C 54.984375 165.300781 55.21875 165.410156 55.445312 165.527344 L 56.132812 165.878906 L 56.832031 166.203125 L 57.535156 166.519531 L 58.246094 166.8125 L 58.964844 167.105469 L 59.6875 167.367188 L 60.417969 167.625 C 60.660156 167.707031 60.90625 167.78125 61.152344 167.859375 C 61.644531 168.007812 62.136719 168.171875 62.636719 168.296875 C 63.136719 168.421875 63.632812 168.566406 64.136719 168.675781 L 65.648438 169.003906 C 66.152344 169.105469 66.664062 169.179688 67.171875 169.265625 C 67.679688 169.359375 68.191406 169.414062 68.703125 169.480469 C 69.726562 169.628906 70.753906 169.6875 71.78125 169.765625 C 72.292969 169.800781 72.808594 169.808594 73.324219 169.832031 C 73.835938 169.851562 74.351562 169.863281 74.867188 169.851562 L 76.40625 169.832031 C 76.921875 169.820312 77.433594 169.785156 77.949219 169.761719 L 78.714844 169.714844 L 79.101562 169.691406 L 79.484375 169.65625 L 81.011719 169.503906 C 82.035156 169.417969 83.042969 169.238281 84.058594 169.09375 C 84.3125 169.0625 84.5625 169.015625 84.8125 168.964844 L 85.566406 168.828125 L 87.074219 168.546875 L 90.054688 167.855469 C 91.039062 167.59375 92.019531 167.316406 92.996094 167.042969 L 91.515625 163.789062 C 91.445312 163.839844 91.324219 163.917969 91.222656 163.984375 C 91.121094 164.050781 91.003906 164.121094 90.894531 164.191406 C 90.675781 164.328125 90.441406 164.460938 90.210938 164.597656 C 89.980469 164.730469 89.746094 164.863281 89.511719 164.996094 C 89.273438 165.125 89.042969 165.261719 88.796875 165.382812 L 88.078125 165.761719 C 87.835938 165.886719 87.585938 166 87.34375 166.121094 L 86.605469 166.480469 L 85.859375 166.820312 L 85.109375 167.164062 L 84.351562 167.480469 L 83.589844 167.800781 C 83.335938 167.910156 83.078125 168.003906 82.820312 168.105469 L 82.050781 168.40625 C 81.792969 168.507812 81.535156 168.609375 81.273438 168.695312 L 79.710938 169.253906 C 79.183594 169.433594 78.652344 169.589844 78.125 169.765625 L 77.332031 170.023438 L 76.527344 170.253906 L 74.921875 170.71875 C 74.378906 170.855469 73.835938 170.992188 73.292969 171.132812 L 72.480469 171.347656 C 72.207031 171.414062 71.933594 171.46875 71.660156 171.53125 C 71.117188 171.65625 70.566406 171.777344 70.019531 171.90625 L 69.605469 172.003906 L 69.1875 172.082031 L 68.351562 172.25 C 67.792969 172.363281 67.234375 172.472656 66.679688 172.597656 "/><path style=" stroke:none;fill-rule:nonzero;fill:#123c63;fill-opacity:1;" d="M 47.089844 158.972656 C 47.734375 159.097656 48.375 159.203125 49.019531 159.316406 C 49.339844 159.371094 49.664062 159.429688 49.984375 159.480469 L 50.46875 159.554688 L 50.957031 159.617188 L 52.914062 159.839844 C 53.242188 159.871094 53.570312 159.917969 53.898438 159.9375 L 54.878906 160.007812 L 56.847656 160.128906 C 57.503906 160.152344 58.164062 160.15625 58.820312 160.171875 C 59.148438 160.179688 59.480469 160.1875 59.808594 160.1875 L 60.796875 160.171875 C 61.457031 160.152344 62.117188 160.152344 62.773438 160.121094 L 64.753906 160.003906 C 65.082031 159.988281 65.410156 159.953125 65.742188 159.925781 L 66.726562 159.835938 C 67.386719 159.777344 68.042969 159.6875 68.703125 159.605469 L 69.6875 159.480469 L 70.671875 159.324219 L 71.652344 159.164062 L 72.632812 158.976562 C 73.289062 158.859375 73.941406 158.71875 74.589844 158.570312 C 74.917969 158.5 75.242188 158.414062 75.566406 158.335938 C 75.894531 158.253906 76.21875 158.171875 76.542969 158.082031 C 76.867188 157.992188 77.195312 157.90625 77.523438 157.808594 C 77.6875 157.757812 77.847656 157.714844 78.015625 157.660156 C 78.1875 157.605469 78.339844 157.558594 78.535156 157.488281 L 91.664062 152.84375 L 77.691406 153.890625 L 74.722656 154.113281 L 71.753906 154.269531 C 70.765625 154.308594 69.777344 154.3125 68.785156 154.34375 C 67.800781 154.347656 66.8125 154.347656 65.824219 154.339844 L 64.347656 154.289062 C 63.855469 154.273438 63.359375 154.269531 62.871094 154.234375 C 61.890625 154.167969 60.902344 154.128906 59.925781 154.023438 C 59.4375 153.980469 58.945312 153.941406 58.457031 153.890625 L 56.996094 153.710938 C 56.753906 153.679688 56.507812 153.652344 56.265625 153.617188 L 55.539062 153.507812 C 55.054688 153.429688 54.570312 153.367188 54.085938 153.28125 C 53.125 153.09375 52.15625 152.921875 51.203125 152.699219 L 50.484375 152.542969 L 49.773438 152.355469 L 49.0625 152.171875 L 48.707031 152.082031 L 48.355469 151.980469 C 47.886719 151.839844 47.414062 151.707031 46.945312 151.5625 C 46.480469 151.402344 46.015625 151.246094 45.550781 151.097656 L 44.167969 150.585938 L 42.804688 150.027344 L 41.460938 149.421875 C 41.023438 149.195312 40.574219 148.996094 40.140625 148.761719 C 39.707031 148.527344 39.265625 148.296875 38.84375 148.042969 C 38.632812 147.917969 38.410156 147.800781 38.203125 147.671875 L 37.574219 147.273438 C 36.742188 146.738281 35.925781 146.164062 35.144531 145.539062 C 34.367188 144.914062 33.609375 144.25 32.9375 143.484375 C 33.15625 143.945312 33.433594 144.378906 33.722656 144.800781 C 34.011719 145.226562 34.324219 145.640625 34.652344 146.035156 C 35.308594 146.835938 36.03125 147.578125 36.789062 148.285156 C 37.550781 148.988281 38.355469 149.648438 39.195312 150.261719 C 39.402344 150.425781 39.617188 150.570312 39.832031 150.71875 L 40.476562 151.160156 C 40.914062 151.441406 41.355469 151.714844 41.800781 151.992188 C 42.25 152.25 42.703125 152.511719 43.160156 152.761719 L 44.558594 153.472656 C 45.027344 153.695312 45.503906 153.910156 45.980469 154.125 C 46.457031 154.328125 46.945312 154.519531 47.429688 154.71875 C 47.910156 154.925781 48.40625 155.082031 48.894531 155.257812 L 49.636719 155.515625 L 50.382812 155.75 L 51.128906 155.980469 C 51.378906 156.058594 51.628906 156.132812 51.878906 156.195312 L 53.394531 156.585938 C 53.898438 156.710938 54.410156 156.8125 54.917969 156.925781 L 55.679688 157.09375 C 55.9375 157.144531 56.195312 157.183594 56.449219 157.226562 L 57.988281 157.492188 C 58.5 157.566406 59.015625 157.628906 59.53125 157.699219 C 60.558594 157.851562 61.59375 157.917969 62.625 158.015625 C 63.660156 158.105469 64.695312 158.136719 65.730469 158.1875 C 66.761719 158.203125 67.796875 158.214844 68.832031 158.21875 C 69.863281 158.191406 70.894531 158.164062 71.925781 158.121094 C 72.953125 158.050781 73.984375 158 75.007812 157.910156 L 78.078125 157.59375 L 77.234375 154 L 76.835938 154.148438 C 76.695312 154.199219 76.546875 154.246094 76.402344 154.296875 C 76.113281 154.402344 75.8125 154.496094 75.515625 154.589844 C 75.222656 154.6875 74.921875 154.777344 74.621094 154.867188 C 74.316406 154.953125 74.019531 155.050781 73.714844 155.128906 C 73.105469 155.292969 72.5 155.472656 71.882812 155.625 L 70.960938 155.859375 L 70.035156 156.074219 L 69.105469 156.289062 L 68.171875 156.488281 C 67.550781 156.621094 66.925781 156.757812 66.296875 156.863281 C 65.667969 156.972656 65.046875 157.113281 64.414062 157.210938 L 62.519531 157.519531 C 61.886719 157.625 61.253906 157.703125 60.617188 157.792969 L 59.664062 157.929688 C 59.347656 157.972656 59.027344 158.003906 58.707031 158.042969 C 58.070312 158.117188 57.429688 158.183594 56.789062 158.265625 L 54.863281 158.441406 L 53.898438 158.539062 C 53.578125 158.574219 53.257812 158.582031 52.9375 158.605469 L 51 158.746094 L 50.515625 158.785156 L 50.023438 158.808594 C 49.699219 158.820312 49.371094 158.839844 49.046875 158.855469 C 48.394531 158.894531 47.742188 158.921875 47.089844 158.972656 "/><path style=" stroke:none;fill-rule:nonzero;fill:#123c63;fill-opacity:1;" d="M 32.9375 143.484375 C 33.300781 143.664062 33.667969 143.847656 34.035156 144.023438 C 34.40625 144.199219 34.792969 144.34375 35.171875 144.503906 C 35.554688 144.671875 35.945312 144.800781 36.332031 144.9375 L 36.921875 145.140625 C 37.117188 145.203125 37.316406 145.257812 37.511719 145.316406 L 38.109375 145.492188 C 38.304688 145.550781 38.503906 145.605469 38.707031 145.652344 L 39.910156 145.949219 C 40.722656 146.113281 41.53125 146.289062 42.351562 146.417969 C 43.167969 146.558594 43.988281 146.65625 44.808594 146.761719 C 45.628906 146.851562 46.457031 146.933594 47.28125 146.988281 C 48.105469 147.058594 48.929688 147.089844 49.757812 147.125 C 50.585938 147.144531 51.410156 147.167969 52.238281 147.167969 C 52.652344 147.175781 53.0625 147.167969 53.476562 147.160156 C 53.890625 147.152344 54.304688 147.152344 54.714844 147.136719 L 55.953125 147.097656 L 57.191406 147.035156 C 58.015625 146.984375 58.839844 146.933594 59.660156 146.867188 C 60.484375 146.804688 61.304688 146.726562 62.125 146.640625 C 62.945312 146.550781 63.765625 146.457031 64.582031 146.355469 C 65.402344 146.25 66.21875 146.140625 67.035156 146.011719 C 67.851562 145.890625 68.667969 145.753906 69.484375 145.613281 L 70.707031 145.390625 C 71.121094 145.316406 71.515625 145.238281 71.949219 145.140625 L 88.601562 141.519531 L 71.476562 141.464844 L 69.636719 141.457031 L 68.71875 141.453125 C 68.410156 141.453125 68.105469 141.457031 67.800781 141.4375 C 67.1875 141.414062 66.574219 141.386719 65.964844 141.371094 L 65.046875 141.339844 C 64.742188 141.324219 64.4375 141.300781 64.132812 141.277344 L 62.304688 141.148438 C 62.152344 141.136719 61.996094 141.128906 61.847656 141.113281 L 61.390625 141.0625 L 59.570312 140.875 C 59.265625 140.839844 58.964844 140.816406 58.664062 140.765625 L 56.851562 140.507812 C 56.246094 140.433594 55.652344 140.308594 55.050781 140.203125 L 54.152344 140.046875 C 53.855469 139.992188 53.554688 139.945312 53.257812 139.875 L 51.03125 139.386719 L 50.589844 139.269531 L 49.707031 139.042969 C 49.121094 138.890625 48.527344 138.75 47.949219 138.5625 C 47.371094 138.386719 46.785156 138.222656 46.207031 138.035156 C 45.636719 137.835938 45.0625 137.640625 44.484375 137.449219 C 44.195312 137.355469 43.914062 137.246094 43.628906 137.136719 L 42.78125 136.808594 C 42.5 136.699219 42.210938 136.597656 41.933594 136.476562 L 41.097656 136.117188 L 40.257812 135.761719 C 39.976562 135.640625 39.707031 135.503906 39.433594 135.375 C 38.328125 134.871094 37.253906 134.300781 36.179688 133.726562 L 35.386719 133.273438 C 35.125 133.125 34.855469 132.980469 34.597656 132.816406 L 33.820312 132.335938 C 33.5625 132.171875 33.296875 132.019531 33.046875 131.847656 L 32.285156 131.34375 C 32.03125 131.171875 31.773438 131.007812 31.527344 130.824219 L 30.785156 130.289062 L 30.410156 130.023438 L 30.046875 129.746094 C 29.5625 129.371094 29.070312 129.003906 28.601562 128.609375 L 27.890625 128.023438 L 27.199219 127.417969 L 26.851562 127.113281 L 26.511719 126.800781 L 25.835938 126.171875 L 25.175781 125.523438 L 24.84375 125.199219 L 24.523438 124.867188 C 23.65625 123.984375 22.835938 123.054688 22.046875 122.089844 C 21.65625 121.609375 21.269531 121.121094 20.894531 120.617188 C 20.527344 120.113281 20.164062 119.601562 19.820312 119.074219 C 20.042969 119.664062 20.308594 120.238281 20.585938 120.804688 C 20.867188 121.371094 21.15625 121.9375 21.472656 122.484375 C 22.101562 123.585938 22.796875 124.65625 23.546875 125.683594 L 23.828125 126.070312 L 24.707031 127.207031 L 25.320312 127.941406 L 25.628906 128.308594 L 25.949219 128.667969 L 26.589844 129.382812 C 26.808594 129.617188 27.03125 129.84375 27.253906 130.074219 C 27.695312 130.539062 28.164062 130.976562 28.628906 131.421875 C 29.558594 132.308594 30.546875 133.128906 31.550781 133.933594 C 32.050781 134.339844 32.578125 134.710938 33.09375 135.09375 C 33.351562 135.292969 33.621094 135.464844 33.886719 135.648438 L 34.6875 136.191406 C 35.765625 136.898438 36.871094 137.566406 38.003906 138.183594 C 38.289062 138.335938 38.566406 138.503906 38.851562 138.648438 L 39.714844 139.082031 L 40.585938 139.511719 C 40.875 139.65625 41.171875 139.78125 41.464844 139.914062 L 42.351562 140.308594 C 42.644531 140.4375 42.941406 140.574219 43.242188 140.6875 C 43.839844 140.925781 44.441406 141.164062 45.042969 141.394531 C 45.652344 141.613281 46.265625 141.8125 46.875 142.023438 C 47.480469 142.242188 48.101562 142.417969 48.71875 142.601562 L 49.648438 142.871094 L 50.113281 143.003906 L 50.582031 143.117188 L 52.460938 143.574219 C 52.773438 143.65625 53.089844 143.710938 53.40625 143.777344 L 54.351562 143.964844 C 54.984375 144.09375 55.613281 144.21875 56.25 144.304688 L 58.160156 144.59375 C 58.476562 144.648438 58.792969 144.675781 59.113281 144.714844 L 60.070312 144.820312 L 61.027344 144.921875 L 61.507812 144.972656 C 61.667969 144.988281 61.828125 144.992188 61.988281 145.003906 L 63.90625 145.128906 C 64.226562 145.144531 64.546875 145.171875 64.867188 145.183594 L 65.824219 145.207031 C 66.464844 145.226562 67.105469 145.238281 67.746094 145.25 C 68.0625 145.261719 68.382812 145.25 68.703125 145.246094 L 69.660156 145.226562 L 71.578125 145.191406 L 71.105469 141.511719 L 69.960938 141.773438 L 68.789062 142.03125 C 68.007812 142.195312 67.222656 142.355469 66.433594 142.503906 L 64.066406 142.945312 C 63.277344 143.085938 62.484375 143.21875 61.691406 143.347656 C 60.894531 143.46875 60.101562 143.597656 59.308594 143.710938 C 58.511719 143.828125 57.71875 143.933594 56.917969 144.03125 L 55.722656 144.179688 L 54.527344 144.316406 C 54.128906 144.363281 53.726562 144.394531 53.328125 144.4375 C 52.929688 144.476562 52.527344 144.511719 52.128906 144.546875 C 51.328125 144.621094 50.53125 144.671875 49.726562 144.726562 L 48.527344 144.792969 C 48.125 144.816406 47.722656 144.832031 47.320312 144.84375 C 46.921875 144.851562 46.519531 144.878906 46.117188 144.878906 L 44.914062 144.890625 C 44.113281 144.886719 43.308594 144.890625 42.507812 144.851562 C 41.703125 144.835938 40.902344 144.773438 40.097656 144.722656 L 38.898438 144.609375 C 38.496094 144.578125 38.101562 144.507812 37.699219 144.460938 C 37.5 144.433594 37.296875 144.414062 37.097656 144.382812 L 36.503906 144.28125 C 36.105469 144.207031 35.699219 144.15625 35.308594 144.0625 C 34.917969 143.972656 34.515625 143.90625 34.121094 143.796875 C 33.726562 143.6875 33.332031 143.589844 32.9375 143.484375 "/><g clip-rule="nonzero" clip-path="url(#14d8a08308)"><path style=" stroke:none;fill-rule:nonzero;fill:#123c63;fill-opacity:1;" d="M 19.511719 118.4375 C 20.371094 118.984375 21.226562 119.53125 22.097656 120.054688 L 23.414062 120.824219 L 24.078125 121.207031 L 24.75 121.570312 L 26.097656 122.292969 C 26.546875 122.535156 27.007812 122.753906 27.464844 122.984375 C 27.921875 123.207031 28.378906 123.441406 28.839844 123.65625 L 30.238281 124.292969 C 30.46875 124.398438 30.699219 124.507812 30.933594 124.609375 L 31.644531 124.90625 L 33.058594 125.5 L 34.492188 126.050781 L 35.210938 126.328125 L 37.390625 127.089844 L 38.855469 127.5625 C 39.34375 127.722656 39.839844 127.863281 40.332031 128.003906 C 40.828125 128.144531 41.320312 128.300781 41.816406 128.425781 L 43.3125 128.816406 L 44.816406 129.167969 C 45.316406 129.289062 45.824219 129.386719 46.328125 129.492188 L 47.085938 129.652344 L 47.84375 129.792969 C 48.859375 129.984375 49.878906 130.140625 50.902344 130.289062 L 52.441406 130.492188 L 53.984375 130.660156 L 55.535156 130.789062 C 56.050781 130.820312 56.566406 130.859375 57.085938 130.882812 C 58.125 130.929688 59.160156 130.96875 60.203125 130.96875 C 61.246094 130.96875 62.289062 130.941406 63.335938 130.882812 C 63.863281 130.851562 64.386719 130.8125 64.914062 130.765625 C 65.179688 130.738281 65.445312 130.714844 65.714844 130.683594 L 66.121094 130.632812 L 66.328125 130.605469 L 66.558594 130.570312 L 78.019531 128.828125 L 66.488281 126.929688 L 64.085938 126.535156 L 61.695312 126.085938 L 59.324219 125.570312 C 58.539062 125.375 57.75 125.207031 56.964844 125 C 55.402344 124.59375 53.847656 124.164062 52.316406 123.664062 L 51.167969 123.292969 L 50.027344 122.894531 C 49.265625 122.636719 48.519531 122.339844 47.769531 122.054688 C 47.390625 121.914062 47.023438 121.753906 46.652344 121.601562 C 46.28125 121.445312 45.910156 121.296875 45.542969 121.132812 C 44.816406 120.796875 44.074219 120.492188 43.355469 120.132812 L 42.273438 119.609375 L 41.207031 119.058594 C 40.851562 118.878906 40.503906 118.679688 40.15625 118.484375 C 39.804688 118.289062 39.453125 118.101562 39.109375 117.894531 C 37.726562 117.09375 36.378906 116.230469 35.066406 115.320312 C 33.765625 114.394531 32.5 113.417969 31.277344 112.390625 C 30.054688 111.363281 28.898438 110.257812 27.773438 109.117188 C 26.65625 107.976562 25.601562 106.769531 24.597656 105.519531 C 23.59375 104.269531 22.660156 102.960938 21.78125 101.609375 C 20.898438 100.265625 20.09375 98.863281 19.34375 97.433594 C 18.589844 96 17.917969 94.523438 17.300781 93.019531 C 16.992188 92.269531 16.703125 91.507812 16.433594 90.738281 C 16.15625 89.972656 15.898438 89.199219 15.664062 88.417969 C 15.183594 86.855469 14.777344 85.265625 14.441406 83.65625 C 14.109375 82.046875 13.839844 80.417969 13.707031 78.765625 C 13.632812 79.589844 13.621094 80.425781 13.628906 81.257812 C 13.640625 82.089844 13.671875 82.921875 13.738281 83.753906 C 13.863281 85.417969 14.089844 87.078125 14.402344 88.726562 C 14.710938 90.375 15.117188 92.007812 15.601562 93.621094 C 16.082031 95.234375 16.664062 96.824219 17.320312 98.382812 C 17.976562 99.941406 18.726562 101.464844 19.542969 102.953125 C 20.367188 104.4375 21.277344 105.878906 22.257812 107.273438 C 23.238281 108.667969 24.308594 110 25.433594 111.285156 C 26.558594 112.566406 27.757812 113.789062 29.019531 114.945312 C 30.28125 116.097656 31.59375 117.195312 32.964844 118.21875 C 34.339844 119.230469 35.75 120.199219 37.207031 121.089844 C 37.570312 121.316406 37.941406 121.523438 38.308594 121.738281 C 38.675781 121.953125 39.046875 122.171875 39.421875 122.367188 L 40.546875 122.976562 L 41.6875 123.554688 C 42.445312 123.945312 43.222656 124.289062 43.996094 124.648438 C 44.382812 124.824219 44.777344 124.980469 45.167969 125.148438 C 45.5625 125.3125 45.949219 125.488281 46.347656 125.636719 C 47.140625 125.941406 47.925781 126.261719 48.730469 126.539062 L 49.929688 126.964844 L 51.140625 127.351562 C 52.753906 127.871094 54.390625 128.316406 56.027344 128.730469 C 56.4375 128.84375 56.851562 128.925781 57.261719 129.023438 L 58.496094 129.304688 L 60.980469 129.800781 L 63.472656 130.222656 L 65.972656 130.582031 L 65.902344 126.941406 L 65.589844 126.996094 L 65.242188 127.046875 C 65.011719 127.082031 64.769531 127.113281 64.53125 127.144531 C 64.050781 127.199219 63.570312 127.25 63.082031 127.289062 C 62.113281 127.375 61.132812 127.425781 60.148438 127.457031 C 59.164062 127.5 58.179688 127.5 57.191406 127.496094 C 56.695312 127.492188 56.203125 127.472656 55.707031 127.464844 L 54.226562 127.402344 L 52.742188 127.316406 L 51.257812 127.199219 C 50.269531 127.105469 49.28125 127 48.296875 126.875 L 47.558594 126.785156 L 46.816406 126.679688 C 46.324219 126.609375 45.832031 126.542969 45.34375 126.457031 L 43.867188 126.207031 L 42.398438 125.929688 C 41.90625 125.847656 41.421875 125.730469 40.933594 125.628906 C 40.445312 125.527344 39.953125 125.425781 39.46875 125.304688 L 38.007812 124.964844 L 36.558594 124.585938 L 35.828125 124.398438 L 35.109375 124.191406 L 33.660156 123.78125 L 32.222656 123.332031 L 31.503906 123.109375 L 30.789062 122.867188 L 29.359375 122.390625 C 28.882812 122.226562 28.414062 122.046875 27.9375 121.875 C 27.46875 121.703125 26.988281 121.542969 26.519531 121.355469 L 25.109375 120.804688 L 24.402344 120.53125 L 23.707031 120.238281 L 22.304688 119.65625 C 21.371094 119.265625 20.449219 118.832031 19.511719 118.4375 "/></g><g clip-rule="nonzero" clip-path="url(#5fe895d1e9)"><path style=" stroke:none;fill-rule:nonzero;fill:#123c63;fill-opacity:1;" d="M 13.707031 78.765625 C 13.707031 78.765625 13.777344 78.921875 13.910156 79.230469 C 14.046875 79.539062 14.242188 80 14.511719 80.589844 C 14.65625 80.886719 14.816406 81.210938 14.992188 81.574219 C 15.167969 81.933594 15.363281 82.332031 15.589844 82.746094 C 15.816406 83.164062 16.046875 83.621094 16.320312 84.09375 C 16.597656 84.5625 16.894531 85.0625 17.207031 85.589844 C 18.496094 87.675781 20.25 90.117188 22.5625 92.679688 C 23.726562 93.957031 25.039062 95.246094 26.492188 96.542969 C 26.859375 96.859375 27.234375 97.179688 27.609375 97.503906 C 28 97.816406 28.394531 98.132812 28.792969 98.453125 C 29.597656 99.078125 30.4375 99.707031 31.316406 100.316406 C 33.066406 101.539062 34.972656 102.703125 36.996094 103.804688 C 39.019531 104.910156 41.179688 105.921875 43.4375 106.863281 C 47.953125 108.746094 52.890625 110.257812 58.046875 111.457031 C 60.625 112.0625 63.261719 112.574219 65.933594 113.035156 C 67.269531 113.261719 68.613281 113.480469 69.964844 113.683594 C 71.316406 113.886719 72.675781 114.066406 74.039062 114.246094 C 76.761719 114.597656 79.5 114.9375 82.234375 115.242188 C 84.972656 115.550781 87.699219 115.867188 90.386719 116.246094 C 93.066406 116.621094 95.722656 117.050781 98.183594 117.703125 C 98.492188 117.78125 98.789062 117.871094 99.089844 117.960938 L 99.316406 118.027344 C 99.3125 118.027344 99.402344 118.054688 99.324219 118.027344 L 99.386719 118.050781 L 99.507812 118.089844 L 99.996094 118.253906 L 100.976562 118.574219 C 101.136719 118.628906 101.308594 118.679688 101.460938 118.734375 L 101.910156 118.898438 L 102.804688 119.226562 L 103.25 119.390625 L 103.699219 119.574219 L 104.597656 119.945312 L 105.046875 120.128906 L 105.484375 120.328125 C 106.660156 120.855469 107.808594 121.417969 108.914062 122.035156 C 109.191406 122.1875 109.46875 122.339844 109.746094 122.492188 C 110.027344 122.640625 110.285156 122.816406 110.554688 122.980469 C 110.824219 123.140625 111.09375 123.304688 111.359375 123.46875 C 111.617188 123.644531 111.878906 123.816406 112.136719 123.992188 C 114.199219 125.386719 116.09375 126.957031 117.757812 128.695312 C 119.425781 130.429688 120.875 132.3125 122.082031 134.300781 C 123.292969 136.289062 124.273438 138.367188 125.03125 140.480469 C 125.796875 142.59375 126.363281 144.726562 126.753906 146.839844 C 127.152344 148.945312 127.382812 151.027344 127.511719 153.035156 C 127.636719 155.046875 127.632812 156.992188 127.574219 158.84375 C 127.515625 160.695312 127.367188 162.457031 127.191406 164.113281 C 126.835938 167.421875 126.3125 170.296875 125.8125 172.652344 C 125.300781 175.007812 124.828125 176.851562 124.464844 178.097656 C 124.285156 178.722656 124.144531 179.199219 124.046875 179.519531 C 123.941406 179.839844 123.890625 180.007812 123.890625 180.007812 C 123.890625 180.007812 123.96875 179.851562 124.125 179.554688 C 124.277344 179.253906 124.503906 178.808594 124.773438 178.214844 C 125.316406 177.027344 126.097656 175.273438 126.917969 172.96875 C 127.746094 170.667969 128.632812 167.824219 129.375 164.472656 C 130.113281 161.125 130.710938 157.265625 130.828125 152.980469 C 130.882812 150.839844 130.796875 148.597656 130.550781 146.277344 C 130.492188 145.695312 130.402344 145.113281 130.320312 144.523438 C 130.21875 143.933594 130.128906 143.339844 130.007812 142.746094 C 129.882812 142.152344 129.765625 141.550781 129.613281 140.953125 C 129.535156 140.652344 129.46875 140.351562 129.386719 140.050781 C 129.300781 139.75 129.21875 139.449219 129.132812 139.148438 L 129 138.691406 L 128.855469 138.242188 C 128.757812 137.9375 128.65625 137.636719 128.558594 137.332031 C 128.449219 137.035156 128.335938 136.734375 128.222656 136.429688 C 128.109375 136.128906 128 135.824219 127.871094 135.527344 C 127.746094 135.226562 127.617188 134.929688 127.492188 134.625 C 127.367188 134.324219 127.21875 134.03125 127.082031 133.730469 C 126.9375 133.433594 126.804688 133.132812 126.648438 132.839844 C 126.496094 132.542969 126.34375 132.25 126.1875 131.953125 C 126.035156 131.65625 125.867188 131.367188 125.695312 131.074219 C 125.527344 130.785156 125.359375 130.496094 125.1875 130.203125 C 125.003906 129.917969 124.816406 129.632812 124.632812 129.347656 L 124.355469 128.921875 C 124.261719 128.777344 124.15625 128.640625 124.058594 128.503906 C 123.859375 128.226562 123.660156 127.945312 123.460938 127.667969 C 123.257812 127.386719 123.039062 127.125 122.828125 126.851562 C 122.609375 126.582031 122.40625 126.300781 122.175781 126.042969 C 121.949219 125.777344 121.722656 125.515625 121.492188 125.253906 C 119.660156 123.148438 117.515625 121.273438 115.207031 119.605469 C 114.917969 119.398438 114.628906 119.191406 114.335938 118.980469 C 114.039062 118.785156 113.742188 118.589844 113.441406 118.394531 C 113.140625 118.203125 112.847656 117.996094 112.539062 117.816406 C 112.230469 117.632812 111.921875 117.449219 111.613281 117.265625 C 110.375 116.546875 109.097656 115.890625 107.796875 115.277344 L 107.308594 115.046875 L 106.8125 114.832031 L 105.824219 114.402344 L 105.328125 114.191406 L 104.8125 113.988281 L 103.785156 113.589844 L 103.269531 113.390625 C 103.097656 113.328125 102.941406 113.277344 102.777344 113.21875 L 101.804688 112.882812 L 101.3125 112.71875 L 101.191406 112.675781 L 101.015625 112.621094 L 100.746094 112.539062 C 100.386719 112.429688 100.027344 112.316406 99.667969 112.226562 C 98.234375 111.832031 96.8125 111.527344 95.398438 111.261719 C 93.984375 111 92.578125 110.773438 91.179688 110.578125 C 85.582031 109.828125 80.082031 109.339844 74.703125 108.742188 C 73.363281 108.589844 72.027344 108.433594 70.703125 108.269531 C 69.375 108.113281 68.0625 107.9375 66.757812 107.757812 C 64.152344 107.386719 61.59375 106.96875 59.09375 106.503906 C 54.097656 105.546875 49.335938 104.363281 44.960938 102.851562 C 40.582031 101.351562 36.582031 99.546875 33.085938 97.527344 C 31.335938 96.527344 29.707031 95.46875 28.214844 94.386719 C 26.714844 93.308594 25.359375 92.199219 24.105469 91.113281 C 21.636719 88.917969 19.664062 86.777344 18.140625 84.925781 C 16.617188 83.0625 15.53125 81.507812 14.800781 80.4375 C 14.085938 79.34375 13.707031 78.765625 13.707031 78.765625 "/></g></g></svg>