<svg xmlns="http://www.w3.org/2000/svg" xmlns:xlink="http://www.w3.org/1999/xlink" width="500" zoomAndPan="magnify" viewBox="0 0 375 374.999991" height="500" preserveAspectRatio="xMidYMid meet" version="1.2"><defs><clipPath id="0e5a6a147d"><path d="M 27.945312 5.550781 L 346.695312 5.550781 L 346.695312 375 L 27.945312 375 Z M 27.945312 5.550781 "/></clipPath></defs><g id="f417c93e0c"><rect x="0" width="375" y="0" height="374.999991" style="fill:#ffffff;fill-opacity:1;stroke:none;"/><rect x="0" width="375" y="0" height="374.999991" style="fill:#ffffff;fill-opacity:1;stroke:none;"/><path style=" stroke:none;fill-rule:nonzero;fill:#99cc67;fill-opacity:1;" d="M 219.257812 107.453125 C 219.503906 107.269531 219.75 107.09375 220.003906 106.933594 L 228.835938 106.933594 C 229.695312 107.5 230.480469 108.242188 231.132812 109.148438 C 233.96875 113.125 233.269531 118.785156 229.558594 121.8125 C 199.75 146.214844 175.800781 142.941406 156.851562 140.34375 C 146.300781 138.902344 137.851562 137.75 132.765625 143.914062 C 127.558594 150.214844 127.558594 159.714844 132.765625 166.039062 C 136.914062 171.046875 152.207031 170.441406 168.636719 169.789062 C 181.484375 169.296875 194.910156 168.753906 206.585938 171.054688 C 248.515625 179.3125 249.621094 231.648438 211.722656 251.199219 C 198.921875 257.792969 185.648438 259.886719 173.503906 261.832031 C 153.472656 264.992188 137.429688 267.542969 141.867188 298.449219 C 141.867188 298.515625 141.890625 298.5625 141.890625 298.632812 L 124.746094 298.632812 C 118.886719 252.21875 142.136719 248.515625 171.046875 243.9375 C 188.105469 241.226562 211.21875 237.683594 219.742188 219.574219 C 223.351562 211.894531 223.328125 202.886719 217.875 196.453125 C 214.828125 192.859375 210.074219 190.105469 203.542969 188.824219 C 193.667969 186.878906 181.191406 187.359375 169.25 187.828125 C 148.65625 188.664062 129.457031 189.40625 120.039062 177.984375 C 109.179688 164.820312 109.179688 145.140625 120.039062 131.949219 C 143.703125 103.230469 174.027344 144.480469 219.257812 107.453125 Z M 219.257812 107.453125 "/><path style=" stroke:none;fill-rule:evenodd;fill:#99cc67;fill-opacity:1;" d="M 326.035156 339.402344 L 274.414062 339.402344 C 266.125 339.402344 259.320312 346.195312 259.320312 354.503906 C 259.320312 362.832031 266.125 369.625 274.414062 369.625 L 326.035156 369.625 C 334.347656 369.625 341.128906 362.832031 341.128906 354.503906 C 341.128906 346.195312 334.347656 339.402344 326.035156 339.402344 Z M 326.035156 339.402344 "/><path style=" stroke:none;fill-rule:evenodd;fill:#99cc67;fill-opacity:1;" d="M 220.082031 124.074219 C 165.0625 48.851562 195.28125 11.238281 225.472656 11.238281 C 255.6875 11.238281 285.910156 48.851562 230.878906 124.074219 C 229.574219 125.859375 227.675781 126.828125 225.472656 126.828125 C 223.285156 126.828125 221.394531 125.859375 220.082031 124.074219 Z M 220.082031 124.074219 "/><path style=" stroke:none;fill-rule:evenodd;fill:#99cc67;fill-opacity:1;" d="M 225.472656 34.945312 C 236.355469 34.945312 245.1875 43.796875 245.1875 54.699219 C 245.1875 65.601562 236.355469 74.425781 225.472656 74.425781 C 214.589844 74.425781 205.785156 65.601562 205.785156 54.699219 C 205.785156 43.796875 214.589844 34.945312 225.472656 34.945312 Z M 225.472656 34.945312 "/><path style=" stroke:none;fill-rule:evenodd;fill:#99cc67;fill-opacity:1;" d="M 115.445312 221.445312 L 112.113281 258.3125 L 101.453125 247.632812 L 81.398438 268.378906 L 69.253906 256.207031 L 89.308594 235.460938 L 78.671875 224.78125 Z M 115.445312 221.445312 "/><g clip-rule="nonzero" clip-path="url(#0e5a6a147d)"><path style=" stroke:none;fill-rule:nonzero;fill:#336667;fill-opacity:1;" d="M 120.96875 222.050781 L 117.628906 258.804688 C 117.359375 261.871094 114.65625 264.109375 111.613281 263.839844 C 110.261719 263.726562 109.09375 263.113281 108.1875 262.238281 L 108.1875 262.261719 L 101.519531 255.578125 L 85.367188 272.265625 C 83.226562 274.453125 79.714844 274.519531 77.527344 272.375 L 77.457031 272.3125 L 77.457031 272.335938 L 65.3125 260.167969 C 63.148438 257.976562 63.148438 254.457031 65.3125 252.289062 C 65.382812 252.203125 65.46875 252.128906 65.535156 252.066406 L 81.511719 235.542969 L 74.730469 228.746094 C 72.570312 226.582031 72.570312 223.039062 74.730469 220.871094 C 75.8125 219.789062 77.210938 219.246094 78.625 219.246094 L 114.945312 215.925781 C 117.988281 215.65625 120.691406 217.910156 120.960938 220.957031 C 121.015625 221.324219 121.015625 221.691406 120.96875 222.050781 Z M 107.671875 245.957031 L 109.339844 227.585938 L 90.976562 229.257812 L 93.25 231.535156 C 95.390625 233.679688 95.414062 237.15625 93.300781 239.347656 L 77.050781 256.144531 L 81.335938 260.453125 L 97.203125 244.0625 C 97.3125 243.925781 97.425781 243.816406 97.542969 243.703125 C 99.707031 241.515625 103.242188 241.515625 105.40625 243.703125 Z M 71.867188 134.976562 C 68.785156 134.976562 66.304688 132.46875 66.304688 129.402344 C 66.304688 126.3125 68.785156 123.828125 71.867188 123.828125 L 103.75 123.828125 C 106.820312 123.828125 109.316406 126.3125 109.316406 129.402344 C 109.316406 132.46875 106.8125 134.976562 103.75 134.976562 Z M 71.867188 210.285156 C 68.785156 210.285156 66.304688 207.800781 66.304688 204.710938 C 66.304688 201.636719 68.785156 199.136719 71.867188 199.136719 L 127.097656 199.136719 C 130.164062 199.136719 132.660156 201.644531 132.660156 204.710938 C 132.660156 207.800781 130.15625 210.285156 127.097656 210.285156 Z M 71.867188 191.460938 C 68.785156 191.460938 66.304688 188.949219 66.304688 185.882812 C 66.304688 182.816406 68.785156 180.308594 71.867188 180.308594 L 109.023438 180.308594 C 112.105469 180.308594 114.585938 182.816406 114.585938 185.882812 C 114.585938 188.949219 112.105469 191.460938 109.023438 191.460938 Z M 71.867188 172.632812 C 68.785156 172.632812 66.304688 170.125 66.304688 167.058594 C 66.304688 163.992188 68.785156 161.480469 71.867188 161.480469 L 98.324219 161.480469 C 101.390625 161.480469 103.886719 163.992188 103.886719 167.058594 C 103.886719 170.132812 101.382812 172.632812 98.324219 172.632812 Z M 71.867188 153.804688 C 68.785156 153.804688 66.304688 151.296875 66.304688 148.230469 C 66.304688 145.140625 68.785156 142.65625 71.867188 142.65625 L 91.359375 142.65625 C 94.445312 142.65625 96.921875 145.140625 96.921875 148.230469 C 96.921875 151.296875 94.445312 153.804688 91.359375 153.804688 Z M 225.472656 29.363281 C 232.460938 29.363281 238.789062 32.207031 243.367188 36.792969 C 247.921875 41.359375 250.757812 47.699219 250.757812 54.699219 C 250.757812 61.675781 247.921875 68.015625 243.367188 72.601562 C 238.796875 77.179688 232.460938 80.007812 225.472656 80.007812 C 218.511719 80.007812 212.183594 77.1875 207.605469 72.601562 C 203.035156 68.023438 200.210938 61.675781 200.210938 54.699219 C 200.210938 47.699219 203.027344 41.359375 207.605469 36.792969 C 212.175781 32.214844 218.511719 29.363281 225.472656 29.363281 Z M 235.480469 44.671875 C 232.9375 42.097656 229.398438 40.515625 225.472656 40.515625 C 221.578125 40.515625 218.039062 42.089844 215.488281 44.671875 C 212.921875 47.21875 211.339844 50.765625 211.339844 54.699219 C 211.339844 58.601562 212.914062 62.144531 215.488281 64.703125 C 218.03125 67.273438 221.570312 68.859375 225.472656 68.859375 C 229.390625 68.859375 232.929688 67.28125 235.480469 64.703125 C 238.046875 62.152344 239.628906 58.609375 239.628906 54.699219 C 239.621094 50.773438 238.046875 47.226562 235.480469 44.671875 Z M 214.457031 125.785156 C 213.128906 123.914062 211.839844 122.082031 210.601562 120.25 C 189.78125 132.261719 172.367188 129.914062 157.222656 127.832031 C 144.265625 126.074219 133.296875 124.585938 124.308594 135.488281 C 119.738281 141.039062 117.433594 147.992188 117.433594 154.96875 C 117.433594 161.921875 119.730469 168.871094 124.308594 174.425781 C 127.980469 178.890625 133.925781 181.019531 141.160156 181.988281 C 149.226562 183.050781 158.941406 182.667969 169.011719 182.261719 C 181.292969 181.78125 194.136719 181.265625 204.589844 183.320312 C 208.3125 184.070312 211.578125 185.238281 214.417969 186.753906 C 217.546875 188.425781 220.089844 190.503906 222.101562 192.84375 C 225.527344 196.882812 227.308594 201.667969 227.714844 206.640625 C 228.121094 211.761719 227.039062 217.074219 224.742188 221.921875 C 215.050781 242.558594 190.515625 246.4375 172.261719 249.351562 L 171.921875 249.398438 C 158.265625 251.566406 145.945312 253.507812 138.417969 259.847656 C 131.746094 265.445312 128.1875 275.203125 129.722656 293.035156 L 135.714844 293.035156 C 134.769531 279.105469 138.441406 270.800781 144.976562 265.421875 C 152.121094 259.578125 161.828125 258.015625 172.644531 256.328125 C 178.574219 255.378906 184.765625 254.382812 191.03125 252.847656 C 197.09375 251.335938 203.222656 249.304688 209.167969 246.230469 C 218.882812 241.21875 225.726562 233.835938 229.652344 225.683594 C 232.832031 219.023438 234.089844 211.863281 233.398438 205.117188 C 232.699219 198.5 230.105469 192.246094 225.601562 187.238281 C 220.980469 182.117188 214.3125 178.230469 205.519531 176.496094 C 199.980469 175.410156 194.050781 174.980469 187.992188 174.917969 C 181.777344 174.832031 175.242188 175.078125 168.859375 175.324219 C 160.484375 175.667969 152.367188 175.976562 145.761719 175.570312 C 137.898438 175.09375 131.699219 173.453125 128.480469 169.566406 C 125.03125 165.367188 123.296875 160.152344 123.296875 154.960938 C 123.296875 149.742188 125.03125 144.527344 128.480469 140.328125 C 132.152344 135.902344 136.820312 134.117188 142.359375 133.710938 C 146.953125 133.367188 152 134.054688 157.589844 134.816406 C 172.945312 136.945312 191.832031 139.539062 214.457031 125.785156 Z M 198.996094 101.359375 C 197.214844 98.0625 195.59375 94.863281 194.171875 91.738281 L 46.839844 91.738281 C 44.699219 91.738281 42.761719 92.601562 41.359375 94.015625 C 39.9375 95.441406 39.0625 97.378906 39.0625 99.503906 L 39.0625 306.046875 C 39.0625 308.167969 39.945312 310.109375 41.359375 311.535156 C 42.761719 312.960938 44.699219 313.8125 46.839844 313.8125 L 250.464844 313.8125 C 247.738281 310.332031 245.527344 307.179688 243.707031 304.191406 L 66.84375 304.191406 C 62.289062 304.191406 58.171875 302.34375 55.175781 299.34375 C 52.179688 296.339844 50.335938 292.207031 50.335938 287.652344 L 50.335938 117.910156 C 50.335938 113.347656 52.179688 109.222656 55.175781 106.21875 C 58.171875 103.214844 62.296875 101.367188 66.84375 101.367188 L 198.996094 101.367188 Z M 189.601562 80.589844 C 185.65625 69.574219 183.949219 59.769531 183.949219 51.242188 C 183.949219 42.554688 185.730469 35.035156 188.726562 28.757812 C 191.808594 22.347656 196.15625 17.265625 201.253906 13.523438 C 208.398438 8.28125 216.960938 5.671875 225.472656 5.671875 C 234.011719 5.671875 242.570312 8.289062 249.71875 13.523438 C 254.8125 17.273438 259.160156 22.347656 262.21875 28.757812 C 265.242188 35.035156 267.023438 42.554688 267.023438 51.242188 C 267.023438 59.769531 265.3125 69.574219 261.371094 80.589844 L 271.550781 80.589844 C 276.757812 80.589844 281.488281 82.707031 284.890625 86.140625 C 288.316406 89.574219 290.457031 94.3125 290.457031 99.503906 L 290.457031 175.761719 C 299.984375 184.683594 312.488281 199.597656 321.84375 214.324219 C 329.976562 227.148438 335.859375 240.128906 335.746094 249.679688 L 334.777344 335.761719 C 336.964844 336.796875 338.941406 338.199219 340.636719 339.894531 C 344.378906 343.648438 346.703125 348.816406 346.703125 354.503906 C 346.703125 360.214844 344.378906 365.382812 340.636719 369.132812 C 336.890625 372.882812 331.734375 375.210938 326.035156 375.210938 L 274.414062 375.210938 C 268.738281 375.210938 263.554688 372.882812 259.8125 369.132812 C 256.066406 365.382812 253.746094 360.214844 253.746094 354.503906 C 253.746094 348.816406 256.066406 343.648438 259.8125 339.894531 C 260.917969 338.789062 262.132812 337.816406 263.4375 336.980469 C 263.054688 334.273438 262.21875 331.589844 261.027344 328.945312 C 260.417969 327.617188 259.726562 326.285156 258.914062 324.972656 L 46.839844 324.972656 C 41.632812 324.972656 36.902344 322.851562 33.476562 319.421875 C 30.074219 315.988281 27.933594 311.25 27.933594 306.054688 L 27.933594 99.511719 C 27.933594 94.320312 30.074219 89.582031 33.476562 86.148438 C 36.902344 82.714844 41.632812 80.597656 46.839844 80.597656 L 189.601562 80.597656 Z M 256.792969 91.746094 C 255.367188 94.863281 253.746094 98.070312 251.964844 101.367188 C 256.339844 101.480469 260.304688 103.3125 263.207031 106.21875 C 266.203125 109.222656 268.046875 113.355469 268.046875 117.910156 L 268.046875 221.554688 C 271.042969 224.175781 273.523438 227.917969 274.828125 232.617188 C 274.988281 233.113281 275.050781 233.636719 275.050781 234.132812 L 275.050781 269.914062 L 279.3125 269.914062 L 279.3125 99.511719 C 279.3125 97.394531 278.429688 95.449219 277.011719 94.027344 C 275.613281 92.601562 273.675781 91.746094 271.535156 91.746094 Z M 245.457031 112.511719 C 242.460938 117.296875 239.105469 122.242188 235.363281 127.363281 C 234.191406 128.964844 232.707031 130.207031 231.011719 131.066406 C 229.320312 131.949219 227.453125 132.398438 225.472656 132.398438 C 225.226562 132.398438 224.980469 132.375 224.726562 132.375 C 197.03125 151.289062 174.617188 148.382812 156.5 145.894531 C 156.207031 145.894531 155.9375 145.847656 155.664062 145.785156 C 150.890625 145.132812 146.589844 144.566406 143.136719 144.835938 C 140.546875 145.019531 138.449219 145.738281 137.035156 147.457031 C 135.300781 149.574219 134.417969 152.269531 134.417969 154.976562 C 134.417969 157.683594 135.300781 160.367188 137.035156 162.46875 C 137.957031 163.601562 141.46875 164.183594 146.40625 164.476562 C 152.605469 164.859375 160.355469 164.546875 168.398438 164.230469 C 174.871094 163.984375 181.46875 163.710938 188.113281 163.824219 C 194.871094 163.910156 201.5 164.367188 207.652344 165.582031 C 218.960938 167.820312 227.683594 172.941406 233.835938 179.808594 C 239.964844 186.601562 243.476562 195.066406 244.421875 203.988281 C 245.320312 212.773438 243.722656 222.003906 239.621094 230.539062 C 234.734375 240.742188 226.234375 249.957031 214.25 256.144531 C 207.398438 259.664062 200.503906 261.964844 193.675781 263.664062 C 187.070312 265.289062 180.585938 266.324219 174.371094 267.320312 C 165.132812 268.785156 156.792969 270.097656 152.015625 274.023438 C 148.097656 277.25 146.023438 282.871094 146.835938 293.058594 L 238.539062 293.058594 C 235.472656 283.054688 236.761719 273.0625 238.921875 256.304688 C 239.710938 250.1875 240.632812 243.097656 241.515625 234.402344 C 242.164062 227.71875 244.78125 223.070312 248.269531 220.289062 C 250.703125 218.371094 253.5 217.375 256.378906 217.238281 C 256.5625 217.214844 256.734375 217.214844 256.917969 217.214844 L 256.917969 117.902344 C 256.917969 116.414062 256.308594 115.082031 255.34375 114.085938 C 254.351562 113.117188 253 112.511719 251.539062 112.511719 Z M 195.078125 51.242188 C 195.078125 60.273438 197.324219 71.015625 202.644531 83.503906 C 202.804688 83.800781 202.9375 84.09375 203.027344 84.40625 C 205.664062 90.433594 208.972656 96.84375 213.097656 103.664062 C 213.253906 103.910156 213.414062 104.140625 213.550781 104.410156 C 214.542969 106.035156 215.578125 107.660156 216.65625 109.332031 C 216.730469 109.421875 216.769531 109.515625 216.839844 109.601562 C 216.929688 109.738281 217 109.851562 217.085938 109.984375 C 219.359375 113.480469 221.863281 117.097656 224.566406 120.800781 C 224.703125 120.960938 224.8125 121.097656 224.949219 121.160156 C 225.058594 121.207031 225.242188 121.246094 225.464844 121.246094 C 225.710938 121.246094 225.894531 121.199219 226.003906 121.160156 C 226.140625 121.085938 226.253906 120.953125 226.386719 120.800781 C 230.550781 115.089844 234.207031 109.628906 237.40625 104.410156 C 237.539062 104.140625 237.675781 103.917969 237.855469 103.660156 C 241.984375 96.84375 245.289062 90.433594 247.929688 84.40625 C 248.015625 84.085938 248.152344 83.792969 248.308594 83.503906 C 253.628906 71.015625 255.878906 60.273438 255.878906 51.242188 C 255.878906 44.242188 254.527344 38.347656 252.230469 33.546875 C 249.996094 28.894531 246.824219 25.214844 243.128906 22.507812 C 237.96875 18.714844 231.730469 16.820312 225.464844 16.820312 C 219.226562 16.820312 212.984375 18.714844 207.820312 22.507812 C 204.121094 25.214844 200.941406 28.894531 198.71875 33.546875 C 196.429688 38.355469 195.078125 44.242188 195.078125 51.242188 Z M 326.035156 344.953125 L 274.414062 344.953125 C 271.800781 344.953125 269.414062 346.035156 267.699219 347.773438 C 265.964844 349.507812 264.882812 351.882812 264.882812 354.503906 C 264.882812 357.121094 265.964844 359.511719 267.699219 361.257812 C 269.40625 362.992188 271.800781 364.050781 274.414062 364.050781 L 326.035156 364.050781 C 328.648438 364.050781 331.035156 362.992188 332.773438 361.257812 C 334.484375 359.519531 335.566406 357.121094 335.566406 354.503906 C 335.566406 351.882812 334.484375 349.515625 332.773438 347.773438 C 331.035156 346.035156 328.648438 344.953125 326.035156 344.953125 Z M 271.097656 324.320312 C 272.339844 327.003906 273.285156 329.734375 273.914062 332.488281 L 323.730469 332.488281 L 324.652344 249.589844 C 324.738281 242.453125 319.578125 231.527344 312.441406 220.289062 C 305.90625 209.992188 297.792969 199.65625 290.445312 191.59375 C 290.472656 209.546875 290.535156 218.1875 290.582031 226.8125 C 290.695312 240.398438 290.789062 253.996094 290.789062 275.480469 C 290.789062 278.570312 288.308594 281.058594 285.226562 281.058594 L 269.492188 281.058594 C 266.425781 281.058594 263.929688 278.570312 263.929688 275.480469 L 263.929688 234.914062 C 263.046875 232.269531 261.5625 230.371094 259.914062 229.289062 C 259.734375 229.203125 259.574219 229.082031 259.398438 228.996094 L 259.351562 228.945312 C 258.515625 228.515625 257.65625 228.292969 256.894531 228.332031 C 256.265625 228.359375 255.65625 228.558594 255.136719 228.988281 C 253.851562 229.980469 252.890625 232.078125 252.546875 235.484375 C 251.6875 244.015625 250.742188 251.359375 249.90625 257.675781 C 246.59375 283.34375 245.625 290.8125 262.914062 311.535156 C 264.105469 312.960938 265.210938 314.402344 266.25 315.890625 C 266.410156 316.097656 266.570312 316.324219 266.703125 316.546875 C 268.421875 319.101562 269.90625 321.675781 271.097656 324.320312 Z M 118.601562 293.050781 C 116.929688 271.515625 122.027344 259.097656 131.285156 251.308594 C 141.136719 243.050781 154.902344 240.863281 170.179688 238.441406 L 170.523438 238.367188 C 186.292969 235.882812 207.5 232.523438 214.710938 217.191406 C 216.171875 214.078125 216.871094 210.710938 216.625 207.507812 C 216.402344 204.777344 215.457031 202.203125 213.628906 200.0625 C 212.5 198.730469 211.039062 197.535156 209.210938 196.566406 C 207.367188 195.570312 205.132812 194.804688 202.46875 194.285156 C 193.183594 192.453125 181.039062 192.933594 169.433594 193.386719 C 158.910156 193.816406 148.726562 194.222656 139.710938 193.027344 C 129.839844 191.722656 121.484375 188.511719 115.738281 181.535156 C 109.453125 173.929688 106.296875 164.445312 106.296875 154.984375 C 106.296875 145.523438 109.453125 136.042969 115.738281 128.414062 C 128.648438 112.75 142.4375 114.621094 158.6875 116.835938 C 171.101562 118.53125 185.25 120.449219 201.425781 112.527344 L 66.84375 112.527344 C 65.359375 112.527344 64.03125 113.140625 63.039062 114.101562 C 62.066406 115.097656 61.464844 116.429688 61.464844 117.917969 L 61.464844 287.667969 C 61.464844 289.132812 62.074219 290.488281 63.039062 291.480469 C 64.03125 292.453125 65.359375 293.058594 66.84375 293.058594 L 118.601562 293.058594 Z M 118.601562 293.050781 "/></g></g></svg>