<svg xmlns="http://www.w3.org/2000/svg" xmlns:xlink="http://www.w3.org/1999/xlink" width="500" zoomAndPan="magnify" viewBox="0 0 375 374.999991" height="500" preserveAspectRatio="xMidYMid meet" version="1.2"><defs><clipPath id="808447a844"><path d="M 100 17.355469 L 275 17.355469 L 275 192 L 100 192 Z M 100 17.355469 "/></clipPath><clipPath id="2ca72b8c5a"><path d="M 21.609375 191 L 353.109375 191 L 353.109375 354 L 21.609375 354 Z M 21.609375 191 "/></clipPath></defs><g id="b27a70db72"><rect x="0" width="375" y="0" height="374.999991" style="fill:#ffffff;fill-opacity:1;stroke:none;"/><rect x="0" width="375" y="0" height="374.999991" style="fill:#ffffff;fill-opacity:1;stroke:none;"/><g clip-rule="nonzero" clip-path="url(#808447a844)"><path style=" stroke:none;fill-rule:nonzero;fill:#123c63;fill-opacity:1;" d="M 274.34375 104.355469 C 274.34375 152.402344 235.390625 191.351562 187.34375 191.351562 C 139.296875 191.351562 100.347656 152.402344 100.347656 104.355469 C 100.347656 56.304688 139.296875 17.355469 187.34375 17.355469 C 235.390625 17.355469 274.34375 56.304688 274.34375 104.355469 Z M 274.34375 104.355469 "/></g><g clip-rule="nonzero" clip-path="url(#2ca72b8c5a)"><path style=" stroke:none;fill-rule:nonzero;fill:#46b07d;fill-opacity:1;" d="M 353.007812 319.890625 C 353.007812 328.230469 347.078125 335.394531 338.882812 336.953125 L 317.15625 341.078125 C 231.382812 357.371094 143.300781 357.371094 57.523438 341.078125 L 35.800781 336.953125 C 27.601562 335.394531 21.675781 328.230469 21.675781 319.890625 C 21.675781 254.722656 69.625 200.761719 132.167969 191.351562 C 146.867188 204.382812 166.15625 212.367188 187.34375 212.367188 C 208.535156 212.367188 227.816406 204.390625 242.519531 191.351562 C 305.058594 200.761719 353.007812 254.722656 353.007812 319.890625 Z M 353.007812 319.890625 "/></g></g></svg>